<?xml  version="1.0" encoding="UTF-8"?>
<!DOCTYPE svg PUBLIC "-//W3C//DTD SVG 1.0//EN" "http://www.w3.org/TR/2001/REC-SVG-20010904/DTD/svg10.dtd" >
<svg xmlns="http://www.w3.org/2000/svg" >
<metadata>
<version>1.0</version>
<id><![CDATA[Gill Sans W02 Medium Italic]]></id>
<vendor>Monotype Imaging Inc.</vendor>
<credits>
<name>Fonts.com WebFonts</name>
<URL>http://webfonts.fonts.com</URL>
<role>Home of the Web fonts</role>
</credits>
<license>
<URL>http://webfonts.fonts.com/Legal</URL>
</license>
<copyright><![CDATA[Digitized data copyright The Monotype Corporation 1991-1999.]]></copyright>
<trademark><![CDATA[Gill Sans¨ is a trademark of The Monotype Corporation which may be registered in certain jurisdictions.]]></trademark>
<licensee>
<name></name>
</licensee>
</metadata>
<defs >
<font horiz-adv-x="964" id="f317c23c-bff8-4972-b8d3-db5a0da45fdf">
<font-face font-family="" panose-1="2 11 5 2 2 1 4 9 2 3" ascent="1888" descent="-574" units-per-em="2048" alphabetic="0">
</font-face>
<missing-glyph horiz-adv-x="569" />

<glyph unicode="&#xA;" />
<glyph unicode="&#xD;" />
<glyph unicode=" " horiz-adv-x="569" />
<glyph unicode="!" horiz-adv-x="512" d="M193 340Q219 598 234 921T272 1329T385 1415Q467 1415 467 1294Q467 1223 399 928L268 340H193ZM86 90Q86 139 121 174T205 209Q254 209 289 174T324 90Q324 41 289 6T205 -29Q156 -29 121 6T86 90Z"  />
<glyph unicode="&quot;" horiz-adv-x="725" d="M508 1466H705V1227L657 946H555L508 1227V1466ZM176 1466H373V1227L326 946H223L176 1227V1466Z"  />
<glyph unicode="#" horiz-adv-x="1196" d="M4 871V994H330L416 1397H537L451 994H872L956 1397H1079L993 994H1192V871H969L893 500H1192V377H868L784 -22H662L748 377H324L240 -22H117L201 377H4V500H227L305 871H4ZM848 871H426L348 500H772L848 871Z"  />
<glyph unicode="$" horiz-adv-x="1024" d="M989 1237L963 1053Q838 1133 696 1161L635 723Q946 560 946 342Q946 203 834 99T530 -18L502 -225H350L379 -18Q201 7 82 92L111 293Q237 206 406 162L465 600Q302 691 230 778T158 979Q158 1118 270 1219T569 1333L580 1415H731L721 1333Q861 1317 989 1237ZM496 809L545 1167Q449 1152 396 1107T342 1001Q342 939 380 897T496 809ZM606 520L553 150Q648 159 706 209T764 326Q764 435 606 520Z"  />
<glyph unicode="%" horiz-adv-x="1450" d="M430 1415Q558 1415 649 1325T741 1104Q741 979 648 886T430 793Q301 793 210 885T119 1104Q119 1235 209 1325T430 1415ZM430 942Q497 942 544 990T592 1104Q592 1172 545 1219T430 1266Q362 1266 315 1220T268 1104Q268 1041 317 992T430 942ZM1292 1415L375 -18H219L1139 1415H1292ZM1081 606Q1210 606 1301 516T1393 295Q1393 170 1300 77T1081 -16Q952 -16 861 76T770 295Q770 426 860 516T1081 606ZM1081 133Q1149 133 1196 181T1243 295Q1243 363 1196 410T1081 457Q1013 457 967 411T920 295Q920 232 969 183T1081 133Z"  />
<glyph unicode="&amp;" horiz-adv-x="1409" d="M1157 702H1337Q1213 397 1053 244Q1174 129 1305 129Q1334 129 1350 135L1282 -10Q1266 -18 1233 -18Q1166 -18 1081 24T934 135Q728 -18 502 -18Q317 -18 211 91T104 373Q104 492 191 605T430 786Q352 938 352 1081Q352 1222 446 1318T678 1415Q791 1415 870 1333T950 1130Q950 896 653 729Q737 581 934 352Q1076 495 1157 702ZM575 866Q668 913 720 982T772 1120Q772 1182 739 1221T651 1260Q596 1260 557 1207T518 1075Q518 986 575 866ZM510 643Q293 522 293 371Q293 267 363 200T545 133Q666 133 815 242Q625 459 510 643Z"  />
<glyph unicode="&apos;" horiz-adv-x="385" d="M176 1466H373V1227L326 946H223L176 1227V1466Z"  />
<glyph unicode="(" horiz-adv-x="598" d="M586 1415H684Q590 1302 473 1062T315 563T274 164Q274 -191 401 -471H315Q222 -295 166 -82T109 311Q109 583 218 841T586 1415Z"  />
<glyph unicode=")" horiz-adv-x="598" d="M-14 -471H-113Q-18 -358 99 -118T256 381T297 780Q297 1135 170 1415H256Q349 1239 406 1026T463 633Q463 361 353 103T-14 -471Z"  />
<glyph unicode="*" horiz-adv-x="918" d="M596 1362L545 1102Q573 1096 586 1081L758 1245Q809 1296 852 1296Q880 1296 899 1275T918 1223Q918 1167 852 1143L598 1051Q602 1039 602 1025Q602 1013 598 1004L805 928Q918 886 918 825Q918 802 897 780T852 758Q806 758 733 829L586 975Q565 954 545 954L592 702Q596 680 596 659Q596 569 528 569Q458 569 458 666Q458 692 465 723L514 954Q496 955 475 975L315 827Q241 760 197 760Q174 760 155 781T135 827Q135 892 246 930L461 1004Q458 1016 458 1029Q458 1041 461 1051L229 1137Q139 1169 139 1219Q139 1252 160 1275T211 1298Q244 1298 307 1239L475 1081Q485 1097 514 1102L467 1346Q461 1375 461 1399Q461 1487 528 1487Q600 1487 600 1399Q600 1380 596 1362Z"  />
<glyph unicode="+" horiz-adv-x="1196" d="M545 1206H713V807H1112V639H713V240H545V639H145V807H545V1206Z"  />
<glyph unicode="&#x2c;" horiz-adv-x="406" d="M-49 -295L-37 -205Q98 -161 98 -29Q18 7 18 76Q18 129 54 163T147 197Q202 197 239 151T276 35Q276 -78 189 -169T-49 -295Z"  />
<glyph unicode="-" horiz-adv-x="512" d="M512 543L487 369H0L25 543H512Z"  />
<glyph unicode="." horiz-adv-x="406" d="M33 90Q33 139 68 174T152 209Q200 209 235 174T270 90Q270 41 235 6T152 -29Q103 -29 68 6T33 90Z"  />
<glyph unicode="/" horiz-adv-x="575" d="M57 -18L459 1415H602L201 -18H57Z"  />
<glyph unicode="0" horiz-adv-x="1067" d="M668 1415Q840 1415 933 1286T1026 909Q1026 541 873 262T473 -18Q104 -18 104 479Q104 827 255 1121T668 1415ZM471 147Q609 147 723 386T838 932Q838 1249 659 1249Q528 1249 413 1010T297 483Q297 147 471 147Z"  />
<glyph unicode="1" horiz-adv-x="1067" d="M766 1415L545 0H360L584 1415H766Z"  />
<glyph unicode="2" horiz-adv-x="1067" d="M244 1120L270 1319Q431 1415 586 1415Q737 1415 830 1323T924 1081Q924 930 792 721T375 172H907L883 0H35Q443 499 594 729T745 1067Q745 1148 693 1194T549 1241Q408 1241 244 1120Z"  />
<glyph unicode="3" horiz-adv-x="1067" d="M264 1161L291 1354Q433 1415 580 1415Q749 1415 851 1316T954 1053Q954 820 682 719Q870 639 870 403Q870 240 743 111T385 -18Q221 -18 49 59L74 225Q228 147 377 147Q512 147 595 218T678 403Q678 516 602 580T424 637L446 803Q597 814 679 887T762 1051Q762 1140 702 1194T543 1249Q400 1249 264 1161Z"  />
<glyph unicode="4" horiz-adv-x="1067" d="M932 1415L803 580H1004L983 430H776L709 0H530L604 430H80V510L821 1415H932ZM315 580H627L709 1065L315 580Z"  />
<glyph unicode="5" horiz-adv-x="1067" d="M977 1397L946 1225H545L489 877Q678 866 783 756T889 471Q889 255 743 119T365 -18Q169 -18 31 86L94 248Q225 147 375 147Q516 147 606 237T696 469Q696 579 618 645T406 711Q356 711 283 694L408 1397H977Z"  />
<glyph unicode="6" horiz-adv-x="1067" d="M848 1397L446 811L451 807Q512 854 631 854Q781 854 871 759T961 504Q961 300 814 141T479 -18Q308 -18 210 95T111 408Q111 507 165 642T303 899L643 1397H848ZM483 156Q597 156 687 257T778 489Q778 577 725 632T590 688Q470 688 382 598T293 387Q293 285 346 221T483 156Z"  />
<glyph unicode="7" horiz-adv-x="1067" d="M1081 1397L428 -18H238L811 1225H248L272 1397H1081Z"  />
<glyph unicode="8" horiz-adv-x="1067" d="M770 729Q954 651 954 432Q954 243 816 113T475 -18Q299 -18 191 89T82 369Q82 661 381 752Q223 845 223 1026Q223 1185 343 1300T629 1415Q800 1415 904 1317T1008 1057Q1008 947 946 859T770 729ZM596 817Q689 817 757 887T825 1055Q825 1141 772 1195T635 1249Q540 1249 473 1180T406 1014Q406 926 458 872T596 817ZM487 147Q604 147 688 230T772 428Q772 532 711 591T541 651Q430 651 347 566T264 367Q264 272 327 210T487 147Z"  />
<glyph unicode="9" horiz-adv-x="1067" d="M264 -18L678 584L674 588Q589 539 496 539Q349 539 255 632T160 870Q160 1091 306 1253T649 1415Q807 1415 909 1300T1012 1008Q1012 874 964 754T813 483L469 -18H264ZM541 705Q648 705 735 796T823 999Q823 1107 772 1171T633 1235Q520 1235 434 1135T348 903Q348 705 541 705Z"  />
<glyph unicode=":" horiz-adv-x="406" d="M147 829Q147 878 182 913T266 948Q315 948 350 913T385 829Q385 781 350 746T266 711Q217 711 182 746T147 829ZM33 90Q33 139 68 174T152 209Q200 209 235 174T270 90Q270 41 235 6T152 -29Q103 -29 68 6T33 90Z"  />
<glyph unicode=";" horiz-adv-x="406" d="M147 829Q147 878 182 913T266 948Q315 948 350 913T385 829Q385 781 350 746T266 711Q217 711 182 746T147 829ZM-20 -295L-8 -205Q127 -161 127 -29Q47 7 47 76Q47 129 83 163T176 197Q231 197 268 151T305 35Q305 -78 218 -169T-20 -295Z"  />
<glyph unicode="&lt;" horiz-adv-x="1196" d="M143 641V809L1114 1223V1044L344 725L1114 406V227L143 641Z"  />
<glyph unicode="=" horiz-adv-x="1196" d="M145 1030H1112V862H145V1030ZM145 584H1112V416H145V584Z"  />
<glyph unicode="&gt;" horiz-adv-x="1196" d="M1114 641L143 227V406L913 725L143 1044V1223L1114 809V641Z"  />
<glyph unicode="?" horiz-adv-x="725" d="M180 1135L209 1337Q330 1415 438 1415Q573 1415 655 1329T737 1100Q737 1033 707 961T548 750T375 518T322 340H209Q209 457 250 579T406 837T539 1017T559 1096Q559 1165 518 1207T408 1249Q306 1249 180 1135ZM123 90Q123 139 158 174T242 209Q291 209 325 174T360 90Q360 41 326 6T242 -29Q193 -29 158 6T123 90Z"  />
<glyph unicode="@" horiz-adv-x="2068" d="M1825 18H2009Q1736 -430 1122 -430Q651 -430 381 -190T111 469Q111 883 374 1188T1100 1493Q1472 1493 1715 1272T1958 713Q1958 439 1772 218T1360 -4Q1161 -4 1161 164Q1016 -2 858 -2Q701 -2 597 126T492 451Q492 690 654 886T1012 1083Q1200 1083 1313 899L1348 1055H1528L1360 283Q1354 258 1354 238Q1354 160 1425 160Q1519 160 1663 318T1808 715Q1808 985 1604 1166T1092 1348Q734 1348 497 1102T260 485Q260 122 487 -80T1124 -283Q1605 -283 1825 18ZM1024 940Q894 940 787 785T680 436Q680 305 741 224T899 143Q1030 143 1142 300T1255 647Q1255 781 1192 860T1024 940Z"  />
<glyph unicode="A" horiz-adv-x="1067" d="M721 1405L993 0H821L737 438H299L115 0H-72L545 1405H721ZM360 586H709L602 1159L360 586Z"  />
<glyph unicode="B" horiz-adv-x="1044" d="M274 1397H479Q694 1397 808 1302T922 1042Q922 860 729 766Q1018 666 1018 391Q1018 217 878 109T514 0H80L274 1397ZM436 1237L381 838H481Q596 838 664 895T733 1047Q733 1240 494 1240Q467 1240 436 1237ZM358 682L285 156H496Q657 156 743 219T829 399Q829 518 730 600T494 682H358Z"  />
<glyph unicode="C" horiz-adv-x="1130" d="M1188 1415L1151 1239H1049Q687 1239 493 1045T299 575Q299 385 399 272T666 158Q752 158 868 204T1083 330L1053 104Q836 -18 639 -18Q402 -18 251 144T100 563Q100 939 361 1177T1055 1415H1188Z"  />
<glyph unicode="D" horiz-adv-x="1343" d="M80 0L279 1397H444Q832 1397 1048 1211T1264 696Q1264 380 1074 190T535 0H80ZM442 1229L293 166H461Q700 166 815 223T997 405T1065 702Q1065 950 897 1089T506 1229H442Z"  />
<glyph unicode="E" horiz-adv-x="1044" d="M1020 1397L997 1231H438L377 793H870L848 627H352L285 166H1020L995 0H78L281 1397H1020Z"  />
<glyph unicode="F" horiz-adv-x="854" d="M932 1397L909 1231H424L362 793H809L784 627H338L250 0H63L266 1397H932Z"  />
<glyph unicode="G" horiz-adv-x="1237" d="M1182 606L1110 104Q883 -18 659 -18Q390 -18 231 158T72 596Q72 928 321 1171T1030 1415Q1120 1415 1272 1397L1249 1229Q1084 1247 1001 1247Q658 1247 464 1054T270 602Q270 402 383 276T674 150Q807 150 942 217L975 459H776L797 606H1182Z"  />
<glyph unicode="H" horiz-adv-x="1430" d="M1407 1397L1210 0H1018L1106 618H350L264 0H72L268 1397H459L375 793H1130L1214 1397H1407Z"  />
<glyph unicode="I" horiz-adv-x="492" d="M469 1397L272 0H80L276 1397H469Z"  />
<glyph unicode="J" horiz-adv-x="492" d="M475 1397L264 -102Q212 -471 -96 -471Q-162 -471 -229 -459L-272 -287Q-197 -303 -137 -303Q-33 -303 16 -252T82 -90L291 1397H475Z"  />
<glyph unicode="K" horiz-adv-x="1153" d="M1174 1397L530 752L1155 0H936L360 731L258 0H70L266 1397H455L362 799L367 795L961 1397H1174Z"  />
<glyph unicode="L" horiz-adv-x="854" d="M453 1397L270 156H844L821 0H72L268 1397H453Z"  />
<glyph unicode="M" horiz-adv-x="1665" d="M1522 1397V0H1337L1336 1064L772 0L526 1069L182 0H-2L459 1397H618L836 451L1337 1397H1522Z"  />
<glyph unicode="N" horiz-adv-x="1409" d="M1389 1397L1192 0H1092L397 1020L254 0H80L276 1397H371L1069 369L1214 1397H1389Z"  />
<glyph unicode="O" horiz-adv-x="1343" d="M782 1415Q1003 1415 1139 1254T1276 829Q1276 465 1077 224T602 -18Q384 -18 244 147T104 571Q104 894 294 1154T782 1415ZM606 150Q800 150 943 358T1087 862Q1087 1042 1004 1144T780 1247Q564 1247 429 1032T293 545Q293 362 378 256T606 150Z"  />
<glyph unicode="P" horiz-adv-x="918" d="M252 1397H492Q708 1397 826 1297T944 1001Q944 840 827 715T498 590H330L248 0H55L252 1397ZM420 1231L354 756H489Q615 756 685 828T756 1008Q756 1109 690 1170T502 1231H420Z"  />
<glyph unicode="Q" horiz-adv-x="1343" d="M1276 -31H1307Q1297 -199 1208 -299T971 -399Q815 -399 692 -298T508 0Q315 40 210 199T104 596Q104 900 293 1157T776 1415Q1008 1415 1142 1258T1276 827Q1276 518 1127 292T715 0Q749 -110 830 -170T1010 -231Q1089 -231 1165 -180T1276 -31ZM618 168Q809 168 948 366T1087 852Q1087 1041 1007 1144T782 1247Q559 1247 426 1026T293 551Q293 364 377 266T618 168Z"  />
<glyph unicode="R" horiz-adv-x="1087" d="M270 1397H522Q799 1397 898 1287T997 1018Q997 895 922 804T711 676Q773 636 827 522L1077 0H877L717 332Q641 489 588 552T426 616H352L266 0H74L270 1397ZM438 1231L377 782H475Q634 782 716 848T799 1028Q799 1231 547 1231H438Z"  />
<glyph unicode="S" horiz-adv-x="938" d="M899 1360L872 1169Q760 1243 627 1243Q515 1243 448 1185T381 1032Q381 985 413 933T600 757T804 538T854 350Q854 200 741 91T440 -18Q273 -18 102 82L131 287Q322 154 459 154Q533 154 599 202T666 334Q666 387 633 444T444 628T241 848T193 1034Q193 1196 327 1305T643 1415Q770 1415 899 1360Z"  />
<glyph unicode="T" horiz-adv-x="1044" d="M1141 1397L1116 1223H723L551 0H358L530 1223H137L162 1397H1141Z"  />
<glyph unicode="U" horiz-adv-x="1300" d="M1311 1397L1190 535Q1152 263 1003 123T608 -18Q390 -18 260 100T129 415Q129 456 135 498L262 1397H446L317 483Q313 454 313 427Q313 298 398 224T618 150Q735 150 824 205T948 344T1005 594L1118 1397H1311Z"  />
<glyph unicode="V" horiz-adv-x="1044" d="M1157 1397L475 -12H403L131 1397H311L498 422L965 1397H1157Z"  />
<glyph unicode="W" horiz-adv-x="1898" d="M2019 1397L1343 -12H1272L1001 979L526 -12H453L123 1397H299L530 408L1001 1397H1073L1346 391L1825 1397H2019Z"  />
<glyph unicode="X" horiz-adv-x="1366" d="M1440 1397L842 719L1296 0H1077L715 575L215 0H-37L612 739L199 1397H410L741 883L1196 1397H1440Z"  />
<glyph unicode="Y" horiz-adv-x="1004" d="M1141 1397L651 696L553 0H369L467 696L139 1397H334L571 885L928 1397H1141Z"  />
<glyph unicode="Z" horiz-adv-x="1194" d="M1325 1397L307 174H1135L1110 0H-66L948 1223H154L178 1397H1325Z"  />
<glyph unicode="[" horiz-adv-x="682" d="M770 1397L752 1262H487L266 -317H528L510 -453H78L338 1397H770Z"  />
<glyph unicode="\" horiz-adv-x="575" d="M571 -18H428L27 1415H170L571 -18Z"  />
<glyph unicode="]" horiz-adv-x="682" d="M-98 -453L-80 -317H184L406 1262H143L162 1397H594L334 -453H-98Z"  />
<glyph unicode="^" horiz-adv-x="961" d="M272 596H88L442 1397H588L942 596H760L514 1194L272 596Z"  />
<glyph unicode="_" horiz-adv-x="1024" d="M-12 -154H1036V-256H-12V-154Z"  />
<glyph unicode="`" horiz-adv-x="682" d="M412 1372L551 1073H436L205 1372H412Z"  />
<glyph unicode="a" horiz-adv-x="961" d="M913 920L784 0H610L627 106L623 111Q502 -18 375 -18Q249 -18 161 88T72 346Q72 608 236 778T696 948Q816 948 913 920ZM647 266L723 797Q695 799 669 799Q464 799 357 669T250 377Q250 266 301 196T432 125Q495 125 570 187T647 266Z"  />
<glyph unicode="b" horiz-adv-x="961" d="M430 1397L356 846Q456 948 580 948Q722 948 812 832T903 528Q903 284 749 128T305 -29Q162 -29 61 -14L252 1397H430ZM250 115H346Q522 115 623 228T725 532Q725 657 672 727T526 797Q467 797 402 763T330 680L250 115Z"  />
<glyph unicode="c" horiz-adv-x="788" d="M731 205L711 37Q591 -29 455 -29Q270 -29 160 86T49 395Q49 628 216 788T645 948Q711 948 803 932L780 778Q715 793 647 793Q466 793 347 677T227 406Q227 276 294 202T479 127Q603 127 731 205Z"  />
<glyph unicode="d" horiz-adv-x="961" d="M979 1397L782 0Q681 -29 547 -29Q314 -29 189 82T63 397Q63 597 226 772T668 948H741L805 1397H979ZM627 119L721 803H676Q481 803 362 685T242 401Q242 264 321 190T547 115Q600 115 627 119Z"  />
<glyph unicode="e" horiz-adv-x="897" d="M795 240L770 74Q630 -29 463 -29Q289 -29 184 92T78 416Q78 641 204 794T514 948Q654 948 747 841T840 563Q840 521 834 477H260Q252 431 252 389Q252 262 321 189T496 115Q624 115 795 240ZM287 598H672Q672 694 629 749T506 805Q356 805 287 598Z"  />
<glyph unicode="f" horiz-adv-x="555" d="M588 920L565 766H379L231 -387H61L209 766H61L84 920H229Q246 1157 361 1286T672 1415Q774 1415 895 1372L870 1200Q776 1251 690 1251Q432 1251 401 920H588Z"  />
<glyph unicode="g" horiz-adv-x="874" d="M911 920L893 784H715Q776 698 776 602Q776 492 727 408T606 290T421 235T278 194T248 145Q248 124 274 107T461 50T687 -54T752 -209Q752 -321 646 -396T377 -471Q202 -471 90 -403T-23 -233Q-23 -100 242 -43Q82 16 82 119Q82 172 131 218T264 289Q98 368 98 553Q98 708 198 814T440 920H911ZM430 379Q509 379 559 443T610 594Q610 675 564 726T446 778Q376 778 320 713T264 565Q264 484 311 432T430 379ZM391 -340Q480 -340 533 -308T586 -225Q586 -175 499 -135T381 -94Q342 -94 243 -135T143 -229Q143 -280 209 -310T391 -340Z"  />
<glyph unicode="h" horiz-adv-x="961" d="M414 1397L326 772L330 768Q485 948 649 948Q750 948 806 880T863 695Q863 662 858 627L770 0H596L684 637Q687 661 687 682Q687 817 580 817Q502 817 403 717T301 598L217 0H43L240 1397H414Z"  />
<glyph unicode="i" horiz-adv-x="385" d="M195 1208Q195 1250 224 1279T295 1309Q336 1309 365 1280T395 1208Q395 1167 366 1138T295 1108Q254 1108 225 1137T195 1208ZM350 920L221 0H47L176 920H350Z"  />
<glyph unicode="j" horiz-adv-x="385" d="M293 1309Q334 1309 363 1280T393 1208Q393 1167 364 1138T293 1108Q252 1108 223 1137T193 1208Q193 1250 222 1279T293 1309ZM41 -137L176 920H350L209 -186Q191 -325 107 -398T-109 -471Q-166 -471 -211 -453L-188 -299Q-145 -309 -111 -309Q19 -309 41 -137Z"  />
<glyph unicode="k" horiz-adv-x="938" d="M418 1397L292 516L682 920H903L481 485L932 0H711L287 467L221 0H49L244 1397H418Z"  />
<glyph unicode="l" horiz-adv-x="385" d="M418 1397L221 0H47L244 1397H418Z"  />
<glyph unicode="m" horiz-adv-x="1516" d="M350 920L326 760Q487 934 647 934Q825 934 856 727Q1024 934 1200 934Q1298 934 1357 867T1417 679Q1417 641 1411 596L1327 0H1153L1239 604Q1244 635 1244 662Q1244 797 1145 797Q1120 797 1090 787T1023 752T923 665T856 584L772 0H598L680 582Q687 625 687 659Q687 797 578 797Q509 797 407 701T301 584L219 0H45L176 920H350Z"  />
<glyph unicode="n" horiz-adv-x="961" d="M365 920L342 758L346 754Q493 934 651 934Q758 934 817 856T876 653Q876 618 870 580L782 0H610L694 586Q699 617 699 643Q699 715 669 753T594 791Q568 791 536 778T466 738T375 656T317 586L233 0H61L190 920H365Z"  />
<glyph unicode="o" horiz-adv-x="918" d="M514 948Q669 948 762 839T856 547Q856 295 730 133T420 -29Q258 -29 166 80T74 383Q74 624 201 786T514 948ZM514 811Q407 811 330 679T252 365Q252 257 298 189T414 121Q523 121 600 245T678 557Q678 673 633 742T514 811Z"  />
<glyph unicode="p" horiz-adv-x="1004" d="M428 1153L395 920Q465 948 551 948Q713 948 822 826T932 520Q932 301 784 136T377 -29H262L201 -471H27L190 692Q134 652 89 588T37 524Q29 524 29 537Q29 583 81 669T207 815L254 1153H428ZM377 791L283 119H367Q544 119 649 238T754 520Q754 660 680 738T492 817Q431 817 377 791Z"  />
<glyph unicode="q" horiz-adv-x="961" d="M909 948L711 -471H537L606 27Q493 -29 416 -29Q259 -29 161 85T63 385Q63 626 233 787T715 948H909ZM625 156L715 805Q492 816 367 698T242 375Q242 257 307 186T481 115Q538 115 625 156Z"  />
<glyph unicode="r" horiz-adv-x="641" d="M379 920L352 745L356 741Q438 858 486 896T600 934Q641 934 676 920V723Q621 754 569 754Q518 754 478 729T381 620T322 518L250 0H76L205 920H379Z"  />
<glyph unicode="s" horiz-adv-x="725" d="M662 852V670Q503 791 385 791Q332 791 296 763T260 694Q260 668 282 639T424 529T585 382T627 246Q627 125 547 48T342 -29Q189 -29 23 92L53 260Q225 123 336 123Q388 123 421 152T455 225Q455 258 431 292T288 409T132 555T94 684Q94 803 173 875T383 948Q521 948 662 852Z"  />
<glyph unicode="t" horiz-adv-x="575" d="M584 920L565 784H381L293 281Q286 243 286 217Q286 127 383 127Q455 127 551 182L541 12Q445 -29 350 -29Q237 -29 172 28T106 180Q106 203 111 227L207 784H45L66 920H233L268 1108H440L408 920H584Z"  />
<glyph unicode="u" horiz-adv-x="961" d="M898 920L767 0H595L611 156Q452 -14 308 -14Q215 -14 151 52T86 242Q86 277 91 313L177 920H351L265 313Q261 283 261 257Q261 119 363 119Q470 119 640 322L724 920H898Z"  />
<glyph unicode="v" horiz-adv-x="768" d="M842 920L369 -18H283L74 920H246L371 336L666 920H842Z"  />
<glyph unicode="w" horiz-adv-x="1260" d="M1325 920L852 -18H770L647 584L336 -18H256L66 920H236L350 301L649 920H735L850 301L1155 920H1325Z"  />
<glyph unicode="x" horiz-adv-x="874" d="M907 920L537 465L770 0H584L416 344L150 0H-63L338 487L121 920H307L453 610L692 920H907Z"  />
<glyph unicode="y" horiz-adv-x="768" d="M819 920L160 -471H-25L225 55L47 920H221L348 287L637 920H819Z"  />
<glyph unicode="z" horiz-adv-x="938" d="M915 920L305 154H840L807 0H-27L573 766H109L129 920H915Z"  />
<glyph unicode="{" horiz-adv-x="682" d="M57 449V612Q166 612 215 685T264 946V1126Q264 1322 333 1406T555 1491H635V1335H604Q494 1335 462 1295T430 1128V981Q430 770 383 674T223 530Q336 484 383 388T430 80V-68Q430 -194 462 -234T604 -274H635V-430H555Q403 -430 334 -346T264 -66V115Q264 302 215 375T57 449Z"  />
<glyph unicode="|" horiz-adv-x="532" d="M221 -471V1397H377V-471H221Z"  />
<glyph unicode="}" horiz-adv-x="682" d="M625 612V449Q516 449 467 376T418 115V-66Q418 -261 349 -345T127 -430H47V-274H78Q188 -274 220 -234T252 -68V80Q252 291 299 387T459 530Q346 577 299 673T252 981V1128Q252 1255 220 1295T78 1335H47V1491H127Q279 1491 348 1407T418 1126V946Q418 759 467 686T625 612Z"  />
<glyph unicode="~" horiz-adv-x="1196" d="M80 406V575Q237 707 385 707Q471 707 643 629T889 551Q1006 551 1176 688V518Q1020 387 877 387Q793 387 619 465T371 543Q254 543 80 406Z"  />
<glyph unicode="&#xA0;" horiz-adv-x="569" />
<glyph unicode="&#xA1;" horiz-adv-x="512" d="M428 854Q428 805 393 770T309 735Q260 735 225 770T190 854Q190 903 225 938T309 973Q358 973 393 938T428 854ZM322 604Q295 347 280 24T242 -385T129 -471Q47 -471 47 -350Q47 -279 115 16L246 604H322Z"  />
<glyph unicode="&#xA2;" horiz-adv-x="788" d="M807 930L784 778Q709 793 655 793L451 127Q605 113 743 221L717 37Q612 -30 478 -30Q434 -30 403 -18L289 -385H195L313 0Q57 95 57 406Q57 621 209 776T610 944L719 1305H819L707 944Q779 937 807 930ZM362 152L559 784Q408 751 322 648T236 406Q236 230 362 152Z"  />
<glyph unicode="&#xA3;" horiz-adv-x="961" d="M1036 1391L1012 1219Q956 1241 907 1241Q794 1241 704 1125T530 768H754L705 602H479L340 193Q388 197 397 197Q446 197 541 180T705 162Q820 162 936 217L909 27Q814 -18 682 -18Q634 -18 514 -1T319 16Q246 16 158 0L84 -16H74L289 602H109L158 768H340Q451 1096 587 1255T905 1415Q964 1415 1036 1391Z"  />
<glyph unicode="&#xA4;" horiz-adv-x="1130" d="M948 463L1085 326L969 209L831 346Q725 274 596 274Q467 274 360 346L223 209L106 326L244 463Q172 568 172 698Q172 824 244 934L106 1071L223 1188L360 1051Q465 1122 596 1122Q722 1122 831 1051L969 1188L1085 1071L948 934Q1020 831 1020 698Q1020 569 948 463ZM856 698Q856 805 780 881T596 958Q489 958 413 882T336 698Q336 591 412 515T596 438Q703 438 779 514T856 698Z"  />
<glyph unicode="&#xA5;" horiz-adv-x="1130" d="M1108 750L1079 614H674L641 463H1049L1020 328H614L545 0H365L432 328H27L57 463H461L492 614H84L113 750H455L182 1466H365L612 772L1090 1466H1306L774 750H1108Z"  />
<glyph unicode="&#xA6;" horiz-adv-x="532" d="M221 700V1397H377V700H221ZM221 -471V360H377V-471H221Z"  />
<glyph unicode="&#xA7;" horiz-adv-x="1004" d="M946 1114L782 1055Q805 1095 805 1139Q805 1197 767 1234T670 1272Q590 1272 534 1223T477 1102Q477 1057 507 1007T683 835T877 620T924 434Q924 335 849 241T647 94Q752 -41 752 -154Q752 -292 649 -381T385 -471Q234 -471 143 -396T53 -178L211 -90Q206 -120 206 -148Q206 -328 385 -328Q466 -328 519 -284T573 -170Q573 -121 539 -65T349 123T147 340T100 506Q100 621 183 714T405 840Q295 956 295 1081Q295 1228 403 1321T684 1415Q806 1415 879 1349T952 1175Q952 1145 946 1114ZM522 209Q626 235 685 294T745 422Q745 552 543 717Q421 711 350 654T278 512Q278 430 365 353T522 209Z"  />
<glyph unicode="&#xA8;" horiz-adv-x="682" d="M539 1214Q539 1253 567 1281T633 1309Q671 1309 699 1281T727 1214Q727 1176 699 1148T633 1120Q595 1120 567 1148T539 1214ZM172 1214Q172 1253 200 1281T266 1309Q304 1309 332 1281T360 1214Q360 1176 332 1148T266 1120Q228 1120 200 1148T172 1214Z"  />
<glyph unicode="&#xA9;" horiz-adv-x="1516" d="M2 737Q2 1049 223 1270T756 1491Q1068 1491 1289 1270T1511 737Q1511 425 1290 204T756 -18Q444 -18 223 203T2 737ZM1386 737Q1386 997 1201 1181T756 1366Q496 1366 312 1182T127 737Q127 477 311 292T756 106Q1016 106 1201 291T1386 737ZM999 614L1122 578Q1053 305 750 305Q572 305 467 424T362 748Q362 934 472 1046T766 1159Q1035 1159 1108 924L989 895Q928 1049 756 1049Q640 1049 570 961T500 727Q500 584 568 503T758 422Q844 422 910 473T999 614Z"  />
<glyph unicode="&#xAA;" horiz-adv-x="641" d="M670 1397L584 844H449L455 891Q384 838 311 838Q224 838 165 900T106 1055Q106 1216 219 1315T518 1415Q593 1415 670 1397ZM473 1010L520 1315Q395 1315 321 1251T246 1071Q246 1010 275 970T348 930Q403 930 473 1010Z"  />
<glyph unicode="&#xAB;" horiz-adv-x="897" d="M913 920L559 438L731 0H592L412 459L756 920H913ZM516 920L162 438L334 0H195L14 459L358 920H516Z"  />
<glyph unicode="&#xAC;" horiz-adv-x="1196" d="M1112 258H944V694H143V862H1112V258Z"  />
<glyph unicode="&#xAD;" horiz-adv-x="512" d="M512 543L488 368H0L25 543H512Z"  />
<glyph unicode="&#xAE;" horiz-adv-x="1516" d="M2 737Q2 1049 223 1270T756 1491Q1068 1491 1289 1270T1511 737Q1511 425 1290 204T756 -18Q444 -18 223 203T2 737ZM1386 737Q1386 997 1201 1181T756 1366Q496 1366 312 1182T127 737Q127 477 311 292T756 106Q1016 106 1201 291T1386 737ZM454 319V1130H812Q940 1130 1010 1067T1081 918Q1081 822 1019 757T849 684V680Q925 658 1038 477L1136 319H976L905 446Q835 569 791 616T663 664H585V319H454ZM585 776H773Q941 776 941 899Q941 953 901 986T796 1020H585V776Z"  />
<glyph unicode="&#xAF;" horiz-adv-x="1024" d="M266 1496V1598H1421V1496H266Z"  />
<glyph unicode="&#xB0;" horiz-adv-x="811" d="M127 1214Q127 1329 208 1410T403 1491Q518 1491 599 1410T680 1214Q680 1100 599 1019T403 938Q289 938 208 1019T127 1214ZM573 1214Q573 1284 524 1333T403 1382Q333 1382 285 1334T236 1214Q236 1144 284 1094T403 1044Q474 1044 523 1094T573 1214Z"  />
<glyph unicode="&#xB1;" horiz-adv-x="1196" d="M545 1206H713V807H1112V639H713V240H545V639H145V807H545V1206ZM145 168H1112V0H145V168Z"  />
<glyph unicode="&#xB2;" horiz-adv-x="662" d="M188 1239L207 1362Q303 1415 403 1415Q497 1415 556 1367T616 1243Q616 1158 537 1050T299 778H606L592 680H61Q489 1123 489 1227Q489 1311 383 1311Q297 1311 188 1239Z"  />
<glyph unicode="&#xB3;" horiz-adv-x="662" d="M219 1262L236 1380Q325 1415 418 1415Q524 1415 587 1363T651 1223Q651 1107 500 1053Q602 1008 602 891Q602 797 518 734T305 670Q203 670 94 713L109 813Q211 768 301 768Q378 768 422 803T467 897Q467 1008 313 1008L328 1100Q506 1118 506 1225Q506 1266 475 1291T393 1317Q308 1317 219 1262Z"  />
<glyph unicode="&#xB4;" horiz-adv-x="682" d="M463 1372H670L438 1073H324L463 1372Z"  />
<glyph unicode="&#xB5;" horiz-adv-x="1130" d="M276 920H451L332 354Q324 314 324 279Q324 196 367 149T487 102Q695 102 748 356L864 920H1038L848 0H690L698 66Q592 -29 473 -29Q353 -29 274 82L186 -354H14L276 920Z"  />
<glyph unicode="&#xB6;" horiz-adv-x="1110" d="M446 -408V586Q254 598 149 710T43 1002Q43 1199 165 1307T514 1415H1147V1249H1001V-408H836V1249H612V-408H446Z"  />
<glyph unicode="&#xB7;" horiz-adv-x="683" d="M676 586Q633 586 602 618T570 693Q570 737 601 769T677 801Q721 801 753 770T785 696Q785 651 753 619T676 586Z"  />
<glyph unicode="&#xB8;" horiz-adv-x="682" d="M369 14L350 -35Q444 -76 444 -174Q444 -249 382 -299T227 -350Q161 -350 88 -336L113 -242Q169 -256 199 -256Q295 -256 295 -178Q295 -135 240 -106L297 14H369Z"  />
<glyph unicode="&#xB9;" horiz-adv-x="662" d="M543 1415L408 680H276L410 1415H543Z"  />
<glyph unicode="&#xBA;" horiz-adv-x="618" d="M418 1415Q523 1415 585 1349T647 1169Q647 1020 565 924T356 827Q247 827 185 893T123 1077Q123 1221 208 1318T418 1415ZM354 922Q417 922 463 996T510 1176Q510 1321 418 1321Q349 1321 305 1247T260 1049Q260 995 287 959T354 922Z"  />
<glyph unicode="&#xBB;" horiz-adv-x="897" d="M348 0L702 481L530 920H670L850 461L506 0H348ZM-53 0L301 481L129 920H268L449 461L104 0H-53Z"  />
<glyph unicode="&#xBC;" horiz-adv-x="1729" d="M543 1415L408 680H276L410 1415H543ZM1360 1415L250 -55H108L1220 1415H1360ZM1361 738L1285 310H1404L1392 222H1269L1228 1H1099L1142 222H833V269L1277 738H1361ZM1011 310H1158L1208 521L1011 310Z"  />
<glyph unicode="&#xBD;" horiz-adv-x="1729" d="M543 1415L408 680H276L410 1415H543ZM1360 1415L250 -55H108L1220 1415H1360ZM1036 560L1055 683Q1151 736 1251 736Q1345 736 1404 688T1464 564Q1464 479 1385 371T1147 99H1454L1440 1H909Q1337 444 1337 548Q1337 632 1231 632Q1145 632 1036 560Z"  />
<glyph unicode="&#xBE;" horiz-adv-x="1729" d="M275 1262L292 1380Q381 1415 474 1415Q580 1415 643 1363T707 1223Q707 1107 556 1053Q658 1008 658 891Q658 797 574 734T361 670Q259 670 150 713L165 813Q267 768 357 768Q434 768 478 803T523 897Q523 1008 369 1008L384 1100Q562 1118 562 1225Q562 1266 531 1291T449 1317Q364 1317 275 1262ZM1496 1415L386 -55H244L1356 1415H1496ZM1497 738L1421 310H1540L1528 222H1405L1364 1H1235L1278 222H969V269L1413 738H1497ZM1147 310H1294L1344 521L1147 310Z"  />
<glyph unicode="&#xBF;" horiz-adv-x="725" d="M612 854Q612 805 577 770T494 735Q445 735 410 770T375 854Q375 903 410 938T494 973Q542 973 577 938T612 854ZM555 -190L526 -393Q405 -471 297 -471Q162 -471 80 -385T-2 -156Q-2 -89 28 -17T187 194T360 426T414 604H526Q526 487 485 365T330 107T196 -73T176 -152Q176 -221 217 -263T328 -305Q430 -305 555 -190Z"  />
<glyph unicode="&#xC0;" horiz-adv-x="1067" d="M721 1405L993 0H821L737 438H299L115 0H-72L545 1405H721ZM360 586H709L602 1159L360 586ZM641 1819L780 1520H665L434 1819H641Z"  />
<glyph unicode="&#xC1;" horiz-adv-x="1067" d="M721 1405L993 0H821L737 438H299L115 0H-72L545 1405H721ZM360 586H709L602 1159L360 586ZM692 1819H899L667 1520H553L692 1819Z"  />
<glyph unicode="&#xC2;" horiz-adv-x="1067" d="M721 1405L993 0H821L737 438H299L115 0H-72L545 1405H721ZM360 586H709L602 1159L360 586ZM820 1819L973 1516H889L719 1719L445 1516H349L617 1819H820Z"  />
<glyph unicode="&#xC3;" horiz-adv-x="1067" d="M721 1405L993 0H821L737 438H299L115 0H-72L545 1405H721ZM360 586H709L602 1159L360 586ZM901 1782H981Q981 1683 935 1616T813 1549Q785 1549 675 1588T530 1627Q469 1627 460 1551H379Q381 1662 425 1723T544 1784Q583 1784 690 1746T831 1707Q890 1707 901 1782Z"  />
<glyph unicode="&#xC4;" horiz-adv-x="1067" d="M721 1405L993 0H821L737 438H299L115 0H-72L545 1405H721ZM360 586H709L602 1159L360 586ZM768 1661Q768 1700 796 1728T862 1756Q900 1756 928 1728T956 1661Q956 1623 928 1595T862 1567Q824 1567 796 1595T768 1661ZM401 1661Q401 1700 429 1728T495 1756Q533 1756 561 1728T589 1661Q589 1623 561 1595T495 1567Q457 1567 429 1595T401 1661Z"  />
<glyph unicode="&#xC5;" horiz-adv-x="1067" d="M721 1405L993 0H821L737 438H299L115 0H-72L545 1405H721ZM360 586H709L602 1159L360 586ZM485 1670Q485 1749 541 1805T678 1862Q757 1862 813 1806T870 1670Q870 1590 814 1534T678 1477Q598 1477 542 1533T485 1670ZM790 1666Q790 1711 757 1744T678 1778Q632 1778 599 1745T565 1666Q565 1620 598 1587T678 1553Q723 1553 756 1586T790 1666Z"  />
<glyph unicode="&#xC6;" horiz-adv-x="1706" d="M1640 1397L1618 1231H1083L1022 799H1524L1501 633H999L934 166H1663L1640 0H727L815 633H504L156 0H-43L754 1397H1640ZM901 1243H838L584 780H836L901 1243Z"  />
<glyph unicode="&#xC7;" horiz-adv-x="1130" d="M1083 330L1053 104Q833 -21 616 -18L606 -45Q700 -87 700 -184Q700 -259 638 -309T483 -360Q417 -360 344 -346L369 -252Q425 -266 455 -266Q551 -266 551 -188Q551 -145 496 -117L547 -10Q339 25 220 182T100 563Q100 939 361 1177T1055 1415H1188L1151 1239H1049Q687 1239 493 1045T299 575Q299 385 399 272T666 158Q752 158 868 204T1083 330Z"  />
<glyph unicode="&#xC8;" horiz-adv-x="1044" d="M1020 1397L997 1231H438L377 793H870L848 627H352L285 166H1020L995 0H78L281 1397H1020ZM654 1819L793 1520H678L447 1819H654Z"  />
<glyph unicode="&#xC9;" horiz-adv-x="1044" d="M1020 1397L997 1231H438L377 793H870L848 627H352L285 166H1020L995 0H78L281 1397H1020ZM704 1819H911L679 1520H565L704 1819Z"  />
<glyph unicode="&#xCA;" horiz-adv-x="1044" d="M1020 1397L997 1231H438L377 793H870L848 627H352L285 166H1020L995 0H78L281 1397H1020ZM832 1819L985 1516H901L731 1719L457 1516H361L629 1819H832Z"  />
<glyph unicode="&#xCB;" horiz-adv-x="1044" d="M1020 1397L997 1231H438L377 793H870L848 627H352L285 166H1020L995 0H78L281 1397H1020ZM781 1661Q781 1700 809 1728T875 1756Q913 1756 941 1728T969 1661Q969 1623 941 1595T875 1567Q837 1567 809 1595T781 1661ZM414 1661Q414 1700 442 1728T508 1756Q546 1756 574 1728T602 1661Q602 1623 574 1595T508 1567Q470 1567 442 1595T414 1661Z"  />
<glyph unicode="&#xCC;" horiz-adv-x="492" d="M469 1397L272 0H80L276 1397H469ZM378 1819L517 1520H402L171 1819H378Z"  />
<glyph unicode="&#xCD;" horiz-adv-x="492" d="M469 1397L272 0H80L276 1397H469ZM429 1819H636L404 1520H290L429 1819Z"  />
<glyph unicode="&#xCE;" horiz-adv-x="492" d="M469 1397L272 0H80L276 1397H469ZM556 1819L709 1516H625L455 1719L181 1516H85L353 1819H556Z"  />
<glyph unicode="&#xCF;" horiz-adv-x="492" d="M469 1397L272 0H80L276 1397H469ZM505 1661Q505 1700 533 1728T599 1756Q637 1756 665 1728T693 1661Q693 1623 665 1595T599 1567Q561 1567 533 1595T505 1661ZM138 1661Q138 1700 166 1728T232 1756Q270 1756 298 1728T326 1661Q326 1623 298 1595T232 1567Q194 1567 166 1595T138 1661Z"  />
<glyph unicode="&#xD0;" horiz-adv-x="1343" d="M279 1397H444Q799 1397 1031 1226T1264 696Q1264 379 1076 190T543 0H80L168 616H6L31 782H190L279 1397ZM442 1231L379 782H698L676 616H356L293 166H461Q692 166 804 215T991 391T1065 702Q1065 1231 442 1231Z"  />
<glyph unicode="&#xD1;" horiz-adv-x="1409" d="M1389 1397L1192 0H1092L397 1020L254 0H80L276 1397H371L1069 369L1214 1397H1389ZM1096 1782H1176Q1176 1683 1130 1616T1008 1549Q980 1549 870 1588T725 1627Q664 1627 655 1551H574Q576 1662 620 1723T739 1784Q778 1784 885 1746T1026 1707Q1085 1707 1096 1782Z"  />
<glyph unicode="&#xD2;" horiz-adv-x="1343" d="M782 1415Q1003 1415 1139 1254T1276 829Q1276 465 1077 224T602 -18Q384 -18 244 147T104 571Q104 894 294 1154T782 1415ZM606 150Q800 150 943 358T1087 862Q1087 1042 1004 1144T780 1247Q564 1247 429 1032T293 545Q293 362 378 256T606 150ZM803 1819L942 1520H827L596 1819H803Z"  />
<glyph unicode="&#xD3;" horiz-adv-x="1343" d="M782 1415Q1003 1415 1139 1254T1276 829Q1276 465 1077 224T602 -18Q384 -18 244 147T104 571Q104 894 294 1154T782 1415ZM606 150Q800 150 943 358T1087 862Q1087 1042 1004 1144T780 1247Q564 1247 429 1032T293 545Q293 362 378 256T606 150ZM854 1819H1061L829 1520H715L854 1819Z"  />
<glyph unicode="&#xD4;" horiz-adv-x="1343" d="M782 1415Q1003 1415 1139 1254T1276 829Q1276 465 1077 224T602 -18Q384 -18 244 147T104 571Q104 894 294 1154T782 1415ZM606 150Q800 150 943 358T1087 862Q1087 1042 1004 1144T780 1247Q564 1247 429 1032T293 545Q293 362 378 256T606 150ZM982 1819L1135 1516H1051L881 1719L607 1516H511L779 1819H982Z"  />
<glyph unicode="&#xD5;" horiz-adv-x="1343" d="M782 1415Q1003 1415 1139 1254T1276 829Q1276 465 1077 224T602 -18Q384 -18 244 147T104 571Q104 894 294 1154T782 1415ZM606 150Q800 150 943 358T1087 862Q1087 1042 1004 1144T780 1247Q564 1247 429 1032T293 545Q293 362 378 256T606 150ZM1063 1782H1143Q1143 1683 1097 1616T975 1549Q947 1549 837 1588T692 1627Q631 1627 622 1551H541Q543 1662 587 1723T706 1784Q745 1784 852 1746T993 1707Q1052 1707 1063 1782Z"  />
<glyph unicode="&#xD6;" horiz-adv-x="1343" d="M782 1415Q1003 1415 1139 1254T1276 829Q1276 465 1077 224T602 -18Q384 -18 244 147T104 571Q104 894 294 1154T782 1415ZM606 150Q800 150 943 358T1087 862Q1087 1042 1004 1144T780 1247Q564 1247 429 1032T293 545Q293 362 378 256T606 150ZM930 1661Q930 1700 958 1728T1024 1756Q1062 1756 1090 1728T1118 1661Q1118 1623 1090 1595T1024 1567Q986 1567 958 1595T930 1661ZM563 1661Q563 1700 591 1728T657 1756Q695 1756 723 1728T751 1661Q751 1623 723 1595T657 1567Q619 1567 591 1595T563 1661Z"  />
<glyph unicode="&#xD7;" horiz-adv-x="1196" d="M193 410L508 725L193 1040L313 1161L629 846L942 1159L1063 1038L750 725L1063 412L942 291L629 604L313 289L193 410Z"  />
<glyph unicode="&#xD8;" horiz-adv-x="1343" d="M1122 1274L1255 1434L1333 1341L1194 1176Q1276 1042 1276 829Q1276 465 1077 224T602 -18Q421 -18 291 98L137 -84L59 0L213 184Q104 347 104 571Q104 894 294 1154T782 1415Q982 1415 1122 1274ZM334 330L1010 1139Q935 1247 780 1247Q564 1247 429 1032T293 545Q293 439 334 330ZM1067 1024L399 229Q473 150 606 150Q800 150 943 358T1087 862Q1087 951 1067 1024Z"  />
<glyph unicode="&#xD9;" horiz-adv-x="1300" d="M1311 1397L1190 535Q1152 263 1003 123T608 -18Q390 -18 260 100T129 415Q129 456 135 498L262 1397H446L317 483Q313 454 313 427Q313 298 398 224T618 150Q735 150 824 205T948 344T1005 594L1118 1397H1311ZM787 1819L926 1520H811L580 1819H787Z"  />
<glyph unicode="&#xDA;" horiz-adv-x="1300" d="M1311 1397L1190 535Q1152 263 1003 123T608 -18Q390 -18 260 100T129 415Q129 456 135 498L262 1397H446L317 483Q313 454 313 427Q313 298 398 224T618 150Q735 150 824 205T948 344T1005 594L1118 1397H1311ZM837 1819H1044L812 1520H698L837 1819Z"  />
<glyph unicode="&#xDB;" horiz-adv-x="1300" d="M1311 1397L1190 535Q1152 263 1003 123T608 -18Q390 -18 260 100T129 415Q129 456 135 498L262 1397H446L317 483Q313 454 313 427Q313 298 398 224T618 150Q735 150 824 205T948 344T1005 594L1118 1397H1311ZM965 1819L1118 1516H1034L864 1719L590 1516H494L762 1819H965Z"  />
<glyph unicode="&#xDC;" horiz-adv-x="1300" d="M1311 1397L1190 535Q1152 263 1003 123T608 -18Q390 -18 260 100T129 415Q129 456 135 498L262 1397H446L317 483Q313 454 313 427Q313 298 398 224T618 150Q735 150 824 205T948 344T1005 594L1118 1397H1311ZM914 1661Q914 1700 942 1728T1008 1756Q1046 1756 1074 1728T1102 1661Q1102 1623 1074 1595T1008 1567Q970 1567 942 1595T914 1661ZM547 1661Q547 1700 575 1728T641 1756Q679 1756 707 1728T735 1661Q735 1623 707 1595T641 1567Q603 1567 575 1595T547 1661Z"  />
<glyph unicode="&#xDD;" horiz-adv-x="1004" d="M1141 1397L651 696L553 0H369L467 696L139 1397H334L571 885L928 1397H1141ZM684 1819H891L659 1520H545L684 1819Z"  />
<glyph unicode="&#xDE;" horiz-adv-x="918" d="M252 1397H442L401 1102H451Q666 1102 784 1002T903 707Q903 545 786 420T457 295H289L248 0H55L252 1397ZM379 936L313 461H449Q575 461 646 534T717 713Q717 813 651 874T461 936H379Z"  />
<glyph unicode="&#xDF;" horiz-adv-x="1024" d="M84 0L213 920Q284 1415 625 1415Q773 1415 869 1322T965 1083Q965 981 903 899T737 791V786Q829 748 877 656T926 459Q926 259 807 115T526 -29Q459 -29 418 0L436 131Q469 123 506 123Q615 123 683 219T752 473Q752 719 522 745L539 864Q659 853 734 917T809 1081Q809 1172 759 1228T629 1284Q524 1284 470 1203T389 940L258 0H84Z"  />
<glyph unicode="&#xE0;" horiz-adv-x="961" d="M913 920L784 0H610L627 106L623 111Q502 -18 375 -18Q249 -18 161 88T72 346Q72 608 236 778T696 948Q816 948 913 920ZM647 266L723 797Q695 799 669 799Q464 799 357 669T250 377Q250 266 301 196T432 125Q495 125 570 187T647 266ZM592 1372L731 1073H616L385 1372H592Z"  />
<glyph unicode="&#xE1;" horiz-adv-x="961" d="M913 920L784 0H610L627 106L623 111Q502 -18 375 -18Q249 -18 161 88T72 346Q72 608 236 778T696 948Q816 948 913 920ZM647 266L723 797Q695 799 669 799Q464 799 357 669T250 377Q250 266 301 196T432 125Q495 125 570 187T647 266ZM602 1372H809L577 1073H463L602 1372Z"  />
<glyph unicode="&#xE2;" horiz-adv-x="961" d="M913 920L784 0H610L627 106L623 111Q502 -18 375 -18Q249 -18 161 88T72 346Q72 608 236 778T696 948Q816 948 913 920ZM647 266L723 797Q695 799 669 799Q464 799 357 669T250 377Q250 266 301 196T432 125Q495 125 570 187T647 266ZM771 1372L924 1069H840L670 1272L396 1069H300L568 1372H771Z"  />
<glyph unicode="&#xE3;" horiz-adv-x="961" d="M913 920L784 0H610L627 106L623 111Q502 -18 375 -18Q249 -18 161 88T72 346Q72 608 236 778T696 948Q816 948 913 920ZM647 266L723 797Q695 799 669 799Q464 799 357 669T250 377Q250 266 301 196T432 125Q495 125 570 187T647 266ZM811 1335H891Q891 1236 845 1169T723 1102Q695 1102 585 1141T440 1180Q379 1180 370 1104H289Q291 1215 335 1276T454 1337Q493 1337 600 1299T741 1260Q800 1260 811 1335Z"  />
<glyph unicode="&#xE4;" horiz-adv-x="961" d="M913 920L784 0H610L627 106L623 111Q502 -18 375 -18Q249 -18 161 88T72 346Q72 608 236 778T696 948Q816 948 913 920ZM647 266L723 797Q695 799 669 799Q464 799 357 669T250 377Q250 266 301 196T432 125Q495 125 570 187T647 266ZM719 1214Q719 1253 747 1281T813 1309Q851 1309 879 1281T907 1214Q907 1176 879 1148T813 1120Q775 1120 747 1148T719 1214ZM352 1214Q352 1253 380 1281T446 1309Q484 1309 512 1281T540 1214Q540 1176 512 1148T446 1120Q408 1120 380 1148T352 1214Z"  />
<glyph unicode="&#xE5;" horiz-adv-x="961" d="M913 920L784 0H610L627 106L623 111Q502 -18 375 -18Q249 -18 161 88T72 346Q72 608 236 778T696 948Q816 948 913 920ZM647 266L723 797Q695 799 669 799Q464 799 357 669T250 377Q250 266 301 196T432 125Q495 125 570 187T647 266ZM436 1223Q436 1302 492 1358T629 1415Q708 1415 764 1359T821 1223Q821 1143 765 1087T629 1030Q549 1030 493 1086T436 1223ZM741 1219Q741 1264 708 1297T629 1331Q583 1331 550 1298T516 1219Q516 1173 549 1140T629 1106Q674 1106 707 1139T741 1219Z"  />
<glyph unicode="&#xE6;" horiz-adv-x="1323" d="M1204 244L1180 66Q1031 -29 881 -29Q670 -29 569 145Q414 -29 260 -29Q153 -29 89 31T25 190Q25 442 535 535Q553 595 553 646Q553 716 519 756T426 797Q292 797 123 627L152 823Q304 948 459 948Q597 948 664 823Q783 948 948 948Q1081 948 1168 832T1256 544Q1256 492 1247 440H700Q688 387 688 340Q688 234 748 175T905 115Q1036 115 1204 244ZM717 561H1090Q1094 656 1049 730T918 805Q839 805 783 742T717 561ZM494 217L520 408Q369 378 286 322T203 199Q203 162 229 139T295 115Q386 115 494 217Z"  />
<glyph unicode="&#xE7;" horiz-adv-x="788" d="M731 205L711 37Q592 -29 442 -29L432 -55Q526 -97 526 -195Q526 -269 464 -320T309 -371Q243 -371 170 -356L195 -262Q251 -276 281 -276Q377 -276 377 -199Q377 -155 322 -127L373 -20Q219 4 134 115T49 395Q49 628 216 788T645 948Q711 948 803 932L780 778Q715 793 647 793Q466 793 347 677T227 406Q227 276 294 202T479 127Q603 127 731 205Z"  />
<glyph unicode="&#xE8;" horiz-adv-x="897" d="M795 240L770 74Q630 -29 463 -29Q289 -29 184 92T78 416Q78 641 204 794T514 948Q654 948 747 841T840 563Q840 521 834 477H260Q252 431 252 389Q252 262 321 189T496 115Q624 115 795 240ZM287 598H672Q672 694 629 749T506 805Q356 805 287 598ZM520 1372L659 1073H544L313 1372H520Z"  />
<glyph unicode="&#xE9;" horiz-adv-x="897" d="M795 240L770 74Q630 -29 463 -29Q289 -29 184 92T78 416Q78 641 204 794T514 948Q654 948 747 841T840 563Q840 521 834 477H260Q252 431 252 389Q252 262 321 189T496 115Q624 115 795 240ZM287 598H672Q672 694 629 749T506 805Q356 805 287 598ZM571 1372H778L546 1073H432L571 1372Z"  />
<glyph unicode="&#xEA;" horiz-adv-x="897" d="M795 240L770 74Q630 -29 463 -29Q289 -29 184 92T78 416Q78 641 204 794T514 948Q654 948 747 841T840 563Q840 521 834 477H260Q252 431 252 389Q252 262 321 189T496 115Q624 115 795 240ZM287 598H672Q672 694 629 749T506 805Q356 805 287 598ZM699 1372L852 1069H768L598 1272L324 1069H228L496 1372H699Z"  />
<glyph unicode="&#xEB;" horiz-adv-x="897" d="M795 240L770 74Q630 -29 463 -29Q289 -29 184 92T78 416Q78 641 204 794T514 948Q654 948 747 841T840 563Q840 521 834 477H260Q252 431 252 389Q252 262 321 189T496 115Q624 115 795 240ZM287 598H672Q672 694 629 749T506 805Q356 805 287 598ZM648 1214Q648 1253 676 1281T742 1309Q780 1309 808 1281T836 1214Q836 1176 808 1148T742 1120Q704 1120 676 1148T648 1214ZM281 1214Q281 1253 309 1281T375 1309Q413 1309 441 1281T469 1214Q469 1176 441 1148T375 1120Q337 1120 309 1148T281 1214Z"  />
<glyph unicode="&#xEC;" horiz-adv-x="385" d="M350 920L221 0H47L176 920H350ZM265 1372L404 1073H289L58 1372H265Z"  />
<glyph unicode="&#xED;" horiz-adv-x="385" d="M350 920L221 0H47L176 920H350ZM316 1372H523L291 1073H177L316 1372Z"  />
<glyph unicode="&#xEE;" horiz-adv-x="385" d="M350 920L221 0H47L176 920H350ZM443 1372L596 1069H512L342 1272L68 1069H-28L240 1372H443Z"  />
<glyph unicode="&#xEF;" horiz-adv-x="385" d="M350 920L221 0H47L176 920H350ZM393 1214Q393 1253 421 1281T487 1309Q525 1309 553 1281T581 1214Q581 1176 553 1148T487 1120Q449 1120 421 1148T393 1214ZM26 1214Q26 1253 54 1281T120 1309Q158 1309 186 1281T214 1214Q214 1176 186 1148T120 1120Q82 1120 54 1148T26 1214Z"  />
<glyph unicode="&#xF0;" horiz-adv-x="918" d="M895 1335L713 1239Q794 1118 838 962T883 666Q883 369 748 170T408 -29Q253 -29 164 82T74 385Q74 621 201 784T510 948Q614 948 680 887L684 891Q658 1024 565 1161L379 1061L328 1143L504 1235Q469 1276 432 1300L539 1415Q603 1377 655 1315L846 1415L895 1335ZM412 109Q524 109 613 250T702 551Q702 811 512 811Q404 811 327 676T250 358Q250 258 298 184T412 109Z"  />
<glyph unicode="&#xF1;" horiz-adv-x="961" d="M365 920L342 758L346 754Q493 934 651 934Q758 934 817 856T876 653Q876 618 870 580L782 0H610L694 586Q699 617 699 643Q699 715 669 753T594 791Q568 791 536 778T466 738T375 656T317 586L233 0H61L190 920H365ZM811 1335H891Q891 1236 845 1169T723 1102Q695 1102 585 1141T440 1180Q379 1180 370 1104H289Q291 1215 335 1276T454 1337Q493 1337 600 1299T741 1260Q800 1260 811 1335Z"  />
<glyph unicode="&#xF2;" horiz-adv-x="918" d="M514 948Q669 948 762 839T856 547Q856 295 730 133T420 -29Q258 -29 166 80T74 383Q74 624 201 786T514 948ZM514 811Q407 811 330 679T252 365Q252 257 298 189T414 121Q523 121 600 245T678 557Q678 673 633 742T514 811ZM531 1372L670 1073H555L324 1372H531Z"  />
<glyph unicode="&#xF3;" horiz-adv-x="918" d="M514 948Q669 948 762 839T856 547Q856 295 730 133T420 -29Q258 -29 166 80T74 383Q74 624 201 786T514 948ZM514 811Q407 811 330 679T252 365Q252 257 298 189T414 121Q523 121 600 245T678 557Q678 673 633 742T514 811ZM581 1372H788L556 1073H442L581 1372Z"  />
<glyph unicode="&#xF4;" horiz-adv-x="918" d="M514 948Q669 948 762 839T856 547Q856 295 730 133T420 -29Q258 -29 166 80T74 383Q74 624 201 786T514 948ZM514 811Q407 811 330 679T252 365Q252 257 298 189T414 121Q523 121 600 245T678 557Q678 673 633 742T514 811ZM709 1372L862 1069H778L608 1272L334 1069H238L506 1372H709Z"  />
<glyph unicode="&#xF5;" horiz-adv-x="918" d="M514 948Q669 948 762 839T856 547Q856 295 730 133T420 -29Q258 -29 166 80T74 383Q74 624 201 786T514 948ZM514 811Q407 811 330 679T252 365Q252 257 298 189T414 121Q523 121 600 245T678 557Q678 673 633 742T514 811ZM790 1335H870Q870 1236 824 1169T702 1102Q674 1102 564 1141T419 1180Q358 1180 349 1104H268Q270 1215 314 1276T433 1337Q472 1337 579 1299T720 1260Q779 1260 790 1335Z"  />
<glyph unicode="&#xF6;" horiz-adv-x="918" d="M514 948Q669 948 762 839T856 547Q856 295 730 133T420 -29Q258 -29 166 80T74 383Q74 624 201 786T514 948ZM514 811Q407 811 330 679T252 365Q252 257 298 189T414 121Q523 121 600 245T678 557Q678 673 633 742T514 811ZM658 1214Q658 1253 686 1281T752 1309Q790 1309 818 1281T846 1214Q846 1176 818 1148T752 1120Q714 1120 686 1148T658 1214ZM291 1214Q291 1253 319 1281T385 1309Q423 1309 451 1281T479 1214Q479 1176 451 1148T385 1120Q347 1120 319 1148T291 1214Z"  />
<glyph unicode="&#xF7;" horiz-adv-x="1196" d="M520 1024Q520 1068 552 1100T629 1133Q673 1133 705 1101T737 1024Q737 980 705 948T629 915Q584 915 552 947T520 1024ZM145 807H1112V639H145V807ZM520 422Q520 466 552 498T629 530Q673 530 705 498T737 422Q737 378 705 346T629 313Q584 313 552 345T520 422Z"  />
<glyph unicode="&#xF8;" horiz-adv-x="918" d="M881 879L801 784Q856 683 856 547Q856 295 730 133T420 -29Q272 -29 182 63L98 -33L37 35L127 139Q74 240 74 383Q74 624 201 786T514 948Q656 948 745 856L821 944L881 879ZM260 293L637 731Q592 811 514 811Q407 811 330 679T252 365Q252 323 260 293ZM672 633L295 195Q341 121 414 121Q523 121 600 245T678 557Q678 599 672 633Z"  />
<glyph unicode="&#xF9;" horiz-adv-x="961" d="M898 920L767 0H595L611 156Q452 -14 308 -14Q215 -14 151 52T86 242Q86 277 91 313L177 920H351L265 313Q261 283 261 257Q261 119 363 119Q470 119 640 322L724 920H898ZM554 1372L693 1073H578L347 1372H554Z"  />
<glyph unicode="&#xFA;" horiz-adv-x="961" d="M898 920L767 0H595L611 156Q452 -14 308 -14Q215 -14 151 52T86 242Q86 277 91 313L177 920H351L265 313Q261 283 261 257Q261 119 363 119Q470 119 640 322L724 920H898ZM605 1372H812L580 1073H466L605 1372Z"  />
<glyph unicode="&#xFB;" horiz-adv-x="961" d="M898 920L767 0H595L611 156Q452 -14 308 -14Q215 -14 151 52T86 242Q86 277 91 313L177 920H351L265 313Q261 283 261 257Q261 119 363 119Q470 119 640 322L724 920H898ZM733 1372L886 1069H802L632 1272L358 1069H262L530 1372H733Z"  />
<glyph unicode="&#xFC;" horiz-adv-x="961" d="M898 920L767 0H595L611 156Q452 -14 308 -14Q215 -14 151 52T86 242Q86 277 91 313L177 920H351L265 313Q261 283 261 257Q261 119 363 119Q470 119 640 322L724 920H898ZM681 1214Q681 1253 709 1281T775 1309Q813 1309 841 1281T869 1214Q869 1176 841 1148T775 1120Q737 1120 709 1148T681 1214ZM314 1214Q314 1253 342 1281T408 1309Q446 1309 474 1281T502 1214Q502 1176 474 1148T408 1120Q370 1120 342 1148T314 1214Z"  />
<glyph unicode="&#xFD;" horiz-adv-x="768" d="M819 920L160 -471H-25L225 55L47 920H221L348 287L637 920H819ZM506 1372H713L481 1073H367L506 1372Z"  />
<glyph unicode="&#xFE;" horiz-adv-x="1004" d="M27 -471L289 1397H463L395 920Q465 948 551 948Q713 948 822 826T932 520Q932 301 784 136T377 -29H262L201 -471H27ZM377 791L283 119H367Q544 119 649 238T754 520Q754 660 680 738T492 817Q431 817 377 791Z"  />
<glyph unicode="&#xFF;" horiz-adv-x="768" d="M819 920L160 -471H-25L225 55L47 920H221L348 287L637 920H819ZM582 1214Q582 1253 610 1281T676 1309Q714 1309 742 1281T770 1214Q770 1176 742 1148T676 1120Q638 1120 610 1148T582 1214ZM215 1214Q215 1253 243 1281T309 1309Q347 1309 375 1281T403 1214Q403 1176 375 1148T309 1120Q271 1120 243 1148T215 1214Z"  />
<glyph unicode="&#x100;" horiz-adv-x="1067" d="M721 1405L993 0H821L737 438H299L115 0H-72L545 1405H721ZM360 586H709L602 1159L360 586ZM972 1626L954 1495H294L313 1626H972Z"  />
<glyph unicode="&#x101;" horiz-adv-x="961" d="M913 920L784 0H610L627 106L623 111Q502 -18 375 -18Q249 -18 161 88T72 346Q72 608 236 778T696 948Q816 948 913 920ZM647 266L723 797Q695 799 669 799Q464 799 357 669T250 377Q250 266 301 196T432 125Q495 125 570 187T647 266ZM950 1301L932 1170H272L291 1301H950Z"  />
<glyph unicode="&#x102;" horiz-adv-x="1067" d="M721 1405L993 0H821L737 438H299L115 0H-72L545 1405H721ZM360 586H709L602 1159L360 586ZM852 1786H952Q873 1523 663 1523Q558 1523 493 1598T434 1786H530Q533 1725 572 1690T672 1655Q780 1655 852 1786Z"  />
<glyph unicode="&#x103;" horiz-adv-x="961" d="M913 920L784 0H610L627 106L623 111Q502 -18 375 -18Q249 -18 161 88T72 346Q72 608 236 778T696 948Q816 948 913 920ZM647 266L723 797Q695 799 669 799Q464 799 357 669T250 377Q250 266 301 196T432 125Q495 125 570 187T647 266ZM808 1350H908Q829 1087 619 1087Q514 1087 449 1162T390 1350H486Q489 1289 528 1254T628 1219Q736 1219 808 1350Z"  />
<glyph unicode="&#x104;" horiz-adv-x="1067" d="M995 0Q944 -90 944 -137Q944 -180 979 -210T1065 -240Q1094 -240 1143 -227L1122 -367Q1057 -383 995 -383Q901 -383 836 -328T770 -193Q770 -113 836 0H821L737 438H299L115 0H-72L547 1405H723L995 0ZM709 586L600 1159L360 586H709Z"  />
<glyph unicode="&#x105;" horiz-adv-x="961" d="M762 0H748Q696 -94 696 -139Q696 -184 733 -212T817 -240Q854 -240 895 -227L877 -367Q799 -383 752 -383Q651 -383 587 -326T522 -195Q522 -109 588 0L604 113Q479 -12 352 -12Q225 -12 138 92T51 340Q51 615 220 781T672 948Q801 948 893 920L762 0ZM627 270L702 797Q603 797 580 794Q509 784 451 756T343 675T263 543T233 369Q233 262 284 194T412 125Q440 125 468 134T523 161T587 219T627 270Z"  />
<glyph unicode="&#x106;" horiz-adv-x="1130" d="M1188 1415L1151 1239H1049Q687 1239 493 1045T299 575Q299 385 399 272T666 158Q752 158 868 204T1083 330L1053 104Q836 -18 639 -18Q402 -18 251 144T100 563Q100 939 361 1177T1055 1415H1188ZM903 1794H1110L878 1495H764L903 1794Z"  />
<glyph unicode="&#x107;" horiz-adv-x="788" d="M731 205L711 37Q591 -29 455 -29Q270 -29 160 86T49 395Q49 628 216 788T645 948Q711 948 803 932L780 778Q715 793 647 793Q466 793 347 677T227 406Q227 276 294 202T479 127Q603 127 731 205ZM611 1372H818L586 1073H472L611 1372Z"  />
<glyph unicode="&#x108;" horiz-adv-x="1130" d="M1188 1415L1151 1239H1049Q687 1239 493 1045T299 575Q299 385 399 272T666 158Q752 158 868 204T1083 330L1053 104Q836 -18 639 -18Q402 -18 251 144T100 563Q100 939 361 1177T1055 1415H1188ZM1050 1795L1203 1492H1119L949 1695L675 1492H579L847 1795H1050Z"  />
<glyph unicode="&#x109;" horiz-adv-x="788" d="M731 205L711 37Q591 -29 455 -29Q270 -29 160 86T49 395Q49 628 216 788T645 948Q711 948 803 932L780 778Q715 793 647 793Q466 793 347 677T227 406Q227 276 294 202T479 127Q603 127 731 205ZM724 1372L877 1069H793L623 1272L349 1069H253L521 1372H724Z"  />
<glyph unicode="&#x10A;" horiz-adv-x="1130" d="M1188 1415L1151 1239H1049Q687 1239 493 1045T299 575Q299 385 399 272T666 158Q752 158 868 204T1083 330L1053 104Q836 -18 639 -18Q402 -18 251 144T100 563Q100 939 361 1177T1055 1415H1188ZM825 1587Q825 1636 860 1671T944 1706Q992 1706 1027 1671T1062 1587Q1062 1538 1027 1503T944 1468Q895 1468 860 1503T825 1587Z"  />
<glyph unicode="&#x10B;" horiz-adv-x="788" d="M731 205L711 37Q591 -29 455 -29Q270 -29 160 86T49 395Q49 628 216 788T645 948Q711 948 803 932L780 778Q715 793 647 793Q466 793 347 677T227 406Q227 276 294 202T479 127Q603 127 731 205ZM501 1213Q501 1262 536 1297T620 1332Q668 1332 703 1297T738 1213Q738 1164 703 1129T620 1094Q571 1094 536 1129T501 1213Z"  />
<glyph unicode="&#x10C;" horiz-adv-x="1130" d="M1188 1415L1151 1239H1049Q687 1239 493 1045T299 575Q299 385 399 272T666 158Q752 158 868 204T1083 330L1053 104Q836 -18 639 -18Q402 -18 251 144T100 563Q100 939 361 1177T1055 1415H1188ZM856 1493L703 1796H787L957 1593L1231 1796H1327L1059 1493H856Z"  />
<glyph unicode="&#x10D;" horiz-adv-x="788" d="M731 205L711 37Q591 -29 455 -29Q270 -29 160 86T49 395Q49 628 216 788T645 948Q711 948 803 932L780 778Q715 793 647 793Q466 793 347 677T227 406Q227 276 294 202T479 127Q603 127 731 205ZM501 1069L348 1372H432L602 1169L876 1372H972L704 1069H501Z"  />
<glyph unicode="&#x10E;" horiz-adv-x="1343" d="M80 0L279 1397H444Q832 1397 1048 1211T1264 696Q1264 380 1074 190T535 0H80ZM442 1229L293 166H461Q700 166 815 223T997 405T1065 702Q1065 950 897 1089T506 1229H442ZM530 1493L377 1796H461L631 1593L905 1796H1001L733 1493H530Z"  />
<glyph unicode="&#x10F;" horiz-adv-x="1195" d="M979 1397L782 0Q681 -29 547 -29Q314 -29 189 82T63 397Q63 597 226 772T668 948H741L805 1397H979ZM627 119L721 803H676Q481 803 362 685T242 401Q242 264 321 190T547 115Q600 115 627 119ZM1010 1009Q1145 1053 1145 1185Q1064 1219 1064 1293Q1064 1346 1101 1380T1189 1414Q1249 1414 1286 1368T1323 1252Q1323 1143 1240 1049T997 918L1010 1009Z"  />
<glyph unicode="&#x110;" horiz-adv-x="1343" d="M279 1397H444Q799 1397 1031 1226T1264 696Q1264 379 1076 190T543 0H80L168 616H6L31 782H190L279 1397ZM442 1231L379 782H698L676 616H356L293 166H461Q692 166 804 215T991 391T1065 702Q1065 1231 442 1231Z"  />
<glyph unicode="&#x111;" horiz-adv-x="960" d="M955 1208H1129L1115 1102H940L781 0Q678 -28 548 -28Q311 -28 188 85T64 386Q64 603 230 775T670 947L742 946L764 1102H551L566 1208H781L807 1397H982L955 1208ZM722 802Q495 805 371 691T246 393Q246 265 323 189T546 112Q587 112 625 119L722 802Z"  />
<glyph unicode="&#x112;" horiz-adv-x="1044" d="M1020 1397L997 1231H438L377 793H870L848 627H352L285 166H1020L995 0H78L281 1397H1020ZM995 1626L977 1495H317L336 1626H995Z"  />
<glyph unicode="&#x113;" horiz-adv-x="897" d="M795 240L770 74Q630 -29 463 -29Q289 -29 184 92T78 416Q78 641 204 794T514 948Q654 948 747 841T840 563Q840 521 834 477H260Q252 431 252 389Q252 262 321 189T496 115Q624 115 795 240ZM287 598H672Q672 694 629 749T506 805Q356 805 287 598ZM892 1301L874 1170H214L233 1301H892Z"  />
<glyph unicode="&#x114;" horiz-adv-x="1044" d="M1020 1397L997 1231H438L377 793H870L848 627H352L285 166H1020L995 0H78L281 1397H1020ZM868 1786H968Q889 1523 679 1523Q574 1523 509 1598T450 1786H546Q549 1725 588 1690T688 1655Q796 1655 868 1786Z"  />
<glyph unicode="&#x115;" horiz-adv-x="897" d="M795 240L770 74Q630 -29 463 -29Q289 -29 184 92T78 416Q78 641 204 794T514 948Q654 948 747 841T840 563Q840 521 834 477H260Q252 431 252 389Q252 262 321 189T496 115Q624 115 795 240ZM287 598H672Q672 694 629 749T506 805Q356 805 287 598ZM751 1350H851Q772 1087 562 1087Q457 1087 392 1162T333 1350H429Q432 1289 471 1254T571 1219Q679 1219 751 1350Z"  />
<glyph unicode="&#x116;" horiz-adv-x="1044" d="M1020 1397L997 1231H438L377 793H870L848 627H352L285 166H1020L995 0H78L281 1397H1020ZM599 1587Q599 1636 634 1671T718 1706Q766 1706 801 1671T836 1587Q836 1538 801 1503T718 1468Q669 1468 634 1503T599 1587Z"  />
<glyph unicode="&#x117;" horiz-adv-x="897" d="M795 240L770 74Q630 -29 463 -29Q289 -29 184 92T78 416Q78 641 204 794T514 948Q654 948 747 841T840 563Q840 521 834 477H260Q252 431 252 389Q252 262 321 189T496 115Q624 115 795 240ZM287 598H672Q672 694 629 749T506 805Q356 805 287 598ZM428 1213Q428 1262 463 1297T547 1332Q595 1332 630 1297T665 1213Q665 1164 630 1129T547 1094Q498 1094 463 1129T428 1213Z"  />
<glyph unicode="&#x118;" horiz-adv-x="1044" d="M823 0Q772 -90 772 -137Q772 -180 807 -210T893 -240Q922 -240 971 -227L950 -367Q885 -383 823 -383Q729 -383 664 -328T598 -193Q598 -113 666 0H78L283 1397H1022L995 1231H440L377 797H872L848 627H354L283 166H1022L995 0H823Z"  />
<glyph unicode="&#x119;" horiz-adv-x="896" d="M575 -15Q532 -80 532 -143Q532 -182 568 -210T653 -239Q684 -239 731 -227L712 -367Q647 -383 586 -383Q484 -383 421 -325T358 -194Q358 -116 411 -25Q262 -7 170 111T77 408Q77 635 201 791T508 948Q653 948 747 842T841 567Q841 522 834 477H258Q254 421 254 386Q254 267 320 191T480 115Q614 115 796 256L770 73Q684 10 575 -15ZM286 599H672Q672 702 625 755T508 808Q354 808 286 599Z"  />
<glyph unicode="&#x11A;" horiz-adv-x="1044" d="M1020 1397L997 1231H438L377 793H870L848 627H352L285 166H1020L995 0H78L281 1397H1020ZM580 1493L427 1796H511L681 1593L955 1796H1051L783 1493H580Z"  />
<glyph unicode="&#x11B;" horiz-adv-x="897" d="M795 240L770 74Q630 -29 463 -29Q289 -29 184 92T78 416Q78 641 204 794T514 948Q654 948 747 841T840 563Q840 521 834 477H260Q252 431 252 389Q252 262 321 189T496 115Q624 115 795 240ZM287 598H672Q672 694 629 749T506 805Q356 805 287 598ZM431 1069L278 1372H362L532 1169L806 1372H902L634 1069H431Z"  />
<glyph unicode="&#x11C;" horiz-adv-x="1237" d="M1182 606L1110 104Q883 -18 659 -18Q390 -18 231 158T72 596Q72 928 321 1171T1030 1415Q1120 1415 1272 1397L1249 1229Q1084 1247 1001 1247Q658 1247 464 1054T270 602Q270 402 383 276T674 150Q807 150 942 217L975 459H776L797 606H1182ZM1064 1795L1217 1492H1133L963 1695L689 1492H593L861 1795H1064Z"  />
<glyph unicode="&#x11D;" horiz-adv-x="874" d="M911 920L893 784H715Q776 698 776 602Q776 492 727 408T606 290T421 235T278 194T248 145Q248 124 274 107T461 50T687 -54T752 -209Q752 -321 646 -396T377 -471Q202 -471 90 -403T-23 -233Q-23 -100 242 -43Q82 16 82 119Q82 172 131 218T264 289Q98 368 98 553Q98 708 198 814T440 920H911ZM430 379Q509 379 559 443T610 594Q610 675 564 726T446 778Q376 778 320 713T264 565Q264 484 311 432T430 379ZM391 -340Q480 -340 533 -308T586 -225Q586 -175 499 -135T381 -94Q342 -94 243 -135T143 -229Q143 -280 209 -310T391 -340ZM693 1372L846 1069H762L592 1272L318 1069H222L490 1372H693Z"  />
<glyph unicode="&#x11E;" horiz-adv-x="1237" d="M1182 606L1110 104Q883 -18 659 -18Q390 -18 231 158T72 596Q72 928 321 1171T1030 1415Q1120 1415 1272 1397L1249 1229Q1084 1247 1001 1247Q658 1247 464 1054T270 602Q270 402 383 276T674 150Q807 150 942 217L975 459H776L797 606H1182ZM1117 1786H1217Q1138 1523 928 1523Q823 1523 758 1598T699 1786H795Q798 1725 837 1690T937 1655Q1045 1655 1117 1786Z"  />
<glyph unicode="&#x11F;" horiz-adv-x="874" d="M911 920L893 784H715Q776 698 776 602Q776 492 727 408T606 290T421 235T278 194T248 145Q248 124 274 107T461 50T687 -54T752 -209Q752 -321 646 -396T377 -471Q202 -471 90 -403T-23 -233Q-23 -100 242 -43Q82 16 82 119Q82 172 131 218T264 289Q98 368 98 553Q98 708 198 814T440 920H911ZM430 379Q509 379 559 443T610 594Q610 675 564 726T446 778Q376 778 320 713T264 565Q264 484 311 432T430 379ZM391 -340Q480 -340 533 -308T586 -225Q586 -175 499 -135T381 -94Q342 -94 243 -135T143 -229Q143 -280 209 -310T391 -340ZM737 1350H837Q758 1087 548 1087Q443 1087 378 1162T319 1350H415Q418 1289 457 1254T557 1219Q665 1219 737 1350Z"  />
<glyph unicode="&#x120;" horiz-adv-x="1237" d="M1182 606L1110 104Q883 -18 659 -18Q390 -18 231 158T72 596Q72 928 321 1171T1030 1415Q1120 1415 1272 1397L1249 1229Q1084 1247 1001 1247Q658 1247 464 1054T270 602Q270 402 383 276T674 150Q807 150 942 217L975 459H776L797 606H1182ZM861 1587Q861 1636 896 1671T980 1706Q1028 1706 1063 1671T1098 1587Q1098 1538 1063 1503T980 1468Q931 1468 896 1503T861 1587Z"  />
<glyph unicode="&#x121;" horiz-adv-x="874" d="M911 920L893 784H715Q776 698 776 602Q776 492 727 408T606 290T421 235T278 194T248 145Q248 124 274 107T461 50T687 -54T752 -209Q752 -321 646 -396T377 -471Q202 -471 90 -403T-23 -233Q-23 -100 242 -43Q82 16 82 119Q82 172 131 218T264 289Q98 368 98 553Q98 708 198 814T440 920H911ZM430 379Q509 379 559 443T610 594Q610 675 564 726T446 778Q376 778 320 713T264 565Q264 484 311 432T430 379ZM391 -340Q480 -340 533 -308T586 -225Q586 -175 499 -135T381 -94Q342 -94 243 -135T143 -229Q143 -280 209 -310T391 -340ZM435 1213Q435 1262 470 1297T554 1332Q602 1332 637 1297T672 1213Q672 1164 637 1129T554 1094Q505 1094 470 1129T435 1213Z"  />
<glyph unicode="&#x122;" horiz-adv-x="1237" d="M1182 606L1110 104Q883 -18 659 -18Q390 -18 231 158T72 596Q72 928 321 1171T1030 1415Q1120 1415 1272 1397L1249 1229Q1084 1247 1001 1247Q658 1247 464 1054T270 602Q270 402 383 276T674 150Q807 150 942 217L975 459H776L797 606H1182ZM428 -483Q563 -439 563 -307Q482 -273 482 -199Q482 -146 519 -112T607 -78Q667 -78 704 -124T741 -240Q741 -349 658 -443T415 -574L428 -483Z"  />
<glyph unicode="&#x123;" horiz-adv-x="875" d="M911 920L893 784H715Q776 698 776 602Q776 492 727 408T606 290T421 235T278 194T248 145Q248 124 274 107T461 50T687 -54T752 -209Q752 -321 646 -396T377 -471Q202 -471 90 -403T-23 -233Q-23 -100 242 -43Q82 16 82 119Q82 172 131 218T264 289Q98 368 98 553Q98 708 198 814T440 920H911ZM430 379Q509 379 559 443T610 594Q610 675 564 726T446 778Q376 778 320 713T264 565Q264 484 311 432T430 379ZM391 -340Q480 -340 533 -308T586 -225Q586 -175 499 -135T381 -94Q342 -94 243 -135T143 -229Q143 -280 209 -310T391 -340ZM678 1497Q543 1453 543 1321Q624 1287 624 1213Q624 1160 587 1126T499 1092Q439 1092 402 1138T365 1254Q365 1363 448 1457T691 1588L678 1497Z"  />
<glyph unicode="&#x124;" horiz-adv-x="1430" d="M1407 1397L1210 0H1018L1106 618H350L264 0H72L268 1397H459L375 793H1130L1214 1397H1407ZM989 1795L1142 1492H1058L888 1695L614 1492H518L786 1795H989Z"  />
<glyph unicode="&#x125;" horiz-adv-x="961" d="M414 1397L326 772L330 768Q485 948 649 948Q750 948 806 880T863 695Q863 662 858 627L770 0H596L684 637Q687 661 687 682Q687 817 580 817Q502 817 403 717T301 598L217 0H43L240 1397H414ZM736 1839L889 1536H805L635 1739L361 1536H265L533 1839H736Z"  />
<glyph unicode="&#x126;" horiz-adv-x="1429" d="M1368 1123H1559L1541 989H1349L1213 0H1020L1109 618H351L267 0H72L210 989H32L46 1123H229L267 1397H462L423 1123H1177L1213 1397H1406L1368 1123ZM403 989L375 790H1132L1159 989H403Z"  />
<glyph unicode="&#x127;" horiz-adv-x="960" d="M388 1200H672L654 1094H373L327 768Q485 947 656 947Q741 947 802 884T864 703Q864 654 855 585L772 0H596L681 597Q688 645 688 683Q688 752 654 782T582 812Q473 812 304 597L216 0H42L198 1094H8L26 1200H213L241 1397H415L388 1200Z"  />
<glyph unicode="&#x128;" horiz-adv-x="492" d="M469 1397L272 0H80L276 1397H469ZM570 1747H650Q650 1648 604 1581T482 1514Q454 1514 344 1553T199 1592Q138 1592 129 1516H48Q50 1627 94 1688T213 1749Q252 1749 359 1711T500 1672Q559 1672 570 1747Z"  />
<glyph unicode="&#x129;" horiz-adv-x="385" d="M350 920L221 0H47L176 920H350ZM531 1335H611Q611 1236 565 1169T443 1102Q415 1102 305 1141T160 1180Q99 1180 90 1104H9Q11 1215 55 1276T174 1337Q213 1337 320 1299T461 1260Q520 1260 531 1335Z"  />
<glyph unicode="&#x12A;" horiz-adv-x="492" d="M469 1397L272 0H80L276 1397H469ZM759 1626L741 1495H81L100 1626H759Z"  />
<glyph unicode="&#x12B;" horiz-adv-x="385" d="M350 920L221 0H47L176 920H350ZM676 1301L658 1170H-2L17 1301H676Z"  />
<glyph unicode="&#x12E;" horiz-adv-x="492" d="M238 0Q186 -90 186 -137Q186 -180 221 -210T307 -240Q336 -240 385 -227L365 -367Q299 -383 238 -383Q143 -383 78 -328T12 -193Q12 -113 80 0L274 1397H467L274 0H238Z"  />
<glyph unicode="&#x12F;" horiz-adv-x="384" d="M302 1115Q261 1115 232 1144T202 1212Q202 1251 231 1279T301 1308Q343 1308 372 1280T402 1212Q402 1173 373 1144T302 1115ZM205 0Q153 -89 153 -140Q153 -183 190 -211T274 -239Q305 -239 352 -227L333 -367Q267 -383 207 -383Q104 -383 42 -325T-21 -195Q-21 -113 45 0L176 920H349L219 0H205Z"  />
<glyph unicode="&#x130;" horiz-adv-x="492" d="M469 1397L272 0H80L276 1397H469ZM268 1587Q268 1636 303 1671T387 1706Q435 1706 470 1671T505 1587Q505 1538 470 1503T387 1468Q338 1468 303 1503T268 1587Z"  />
<glyph unicode="&#x131;" horiz-adv-x="385" d="M350 920L221 0H47L176 920H350Z"  />
<glyph unicode="&#x132;" horiz-adv-x="981" d="M468 1397L274 0H80L274 1397H468ZM969 1397L766 -34Q744 -187 708 -276T591 -419T392 -472Q326 -472 263 -460L213 -280Q289 -298 358 -298Q447 -298 500 -257T575 -57L782 1397H969Z"  />
<glyph unicode="&#x133;" horiz-adv-x="875" d="M396 1209Q396 1167 367 1138T296 1108Q254 1108 225 1137T195 1209Q195 1250 224 1279T296 1309Q337 1309 366 1280T396 1209ZM855 1207Q855 1165 826 1136T754 1106Q713 1106 683 1135T653 1207Q653 1248 683 1278T754 1308Q796 1308 825 1278T855 1207ZM344 920L214 0H40L171 920H344ZM804 920L690 0Q667 -183 640 -269T539 -413T355 -472Q262 -472 172 -428L220 -285Q283 -304 320 -304Q395 -304 432 -274T482 -189T512 0L634 920H804Z"  />
<glyph unicode="&#x134;" horiz-adv-x="492" d="M475 1397L264 -102Q212 -471 -96 -471Q-162 -471 -229 -459L-272 -287Q-197 -303 -137 -303Q-33 -303 16 -252T82 -90L291 1397H475ZM489 1795L642 1492H558L388 1695L114 1492H18L286 1795H489Z"  />
<glyph unicode="&#x135;" horiz-adv-x="384" d="M418 1373L572 1069H488L318 1271L45 1069H-52L215 1373H418ZM362 920L229 -114Q213 -243 184 -310T84 -425T-88 -473Q-146 -473 -200 -453L-178 -300Q-137 -310 -102 -310Q-24 -310 8 -263T56 -100L187 920H362Z"  />
<glyph unicode="&#x136;" horiz-adv-x="1153" d="M1174 1397L530 752L1155 0H936L360 731L258 0H70L266 1397H455L362 799L367 795L961 1397H1174ZM389 -483Q524 -439 524 -307Q443 -273 443 -199Q443 -146 480 -112T568 -78Q628 -78 665 -124T702 -240Q702 -349 619 -443T376 -574L389 -483Z"  />
<glyph unicode="&#x137;" horiz-adv-x="938" d="M418 1397L292 516L682 920H903L481 485L932 0H711L287 467L221 0H49L244 1397H418ZM271 -483Q406 -439 406 -307Q325 -273 325 -199Q325 -146 362 -112T450 -78Q510 -78 547 -124T584 -240Q584 -349 501 -443T258 -574L271 -483Z"  />
<glyph unicode="&#x139;" horiz-adv-x="854" d="M453 1397L270 156H844L821 0H72L268 1397H453ZM671 1794H878L646 1495H532L671 1794Z"  />
<glyph unicode="&#x13A;" horiz-adv-x="385" d="M418 1397L221 0H47L244 1397H418ZM353 1797H560L328 1498H214L353 1797Z"  />
<glyph unicode="&#x13B;" horiz-adv-x="854" d="M453 1397L270 156H844L821 0H72L268 1397H453ZM279 -483Q414 -439 414 -307Q333 -273 333 -199Q333 -146 370 -112T458 -78Q518 -78 555 -124T592 -240Q592 -349 509 -443T266 -574L279 -483Z"  />
<glyph unicode="&#x13C;" horiz-adv-x="385" d="M418 1397L221 0H47L244 1397H418ZM-72 -483Q63 -439 63 -307Q-18 -273 -18 -199Q-18 -146 19 -112T107 -78Q167 -78 204 -124T241 -240Q241 -349 158 -443T-85 -574L-72 -483Z"  />
<glyph unicode="&#x13D;" horiz-adv-x="854" d="M453 1397L270 156H844L821 0H72L268 1397H453ZM593 1493L440 1796H524L694 1593L968 1796H1064L796 1493H593Z"  />
<glyph unicode="&#x13E;" horiz-adv-x="619" d="M418 1397L221 0H47L244 1397H418ZM442 1009Q577 1053 577 1185Q496 1219 496 1293Q496 1346 533 1380T621 1414Q681 1414 718 1368T755 1252Q755 1143 672 1049T429 918L442 1009Z"  />
<glyph unicode="&#x13F;" horiz-adv-x="854" d="M453 1397L270 156H844L821 0H72L268 1397H453ZM624 576Q581 576 550 608T518 683Q518 727 549 759T625 791Q669 791 701 760T733 686Q733 641 701 609T624 576Z"  />
<glyph unicode="&#x140;" horiz-adv-x="597" d="M422 1397L225 0H51L248 1397H422ZM532 586Q489 586 458 618T426 693Q426 737 457 769T533 801Q577 801 609 770T641 696Q641 651 609 619T532 586Z"  />
<glyph unicode="&#x141;" horiz-adv-x="854" d="M627 920L350 690L270 156H844L821 0H72L147 543L0 420L27 602L174 727L268 1397H453L377 874L653 1106L627 920Z"  />
<glyph unicode="&#x142;" horiz-adv-x="385" d="M471 795L317 680L221 0H47L125 551L-25 440L-10 565L143 678L244 1397H418L336 807L489 922L471 795Z"  />
<glyph unicode="&#x143;" horiz-adv-x="1409" d="M1389 1397L1192 0H1092L397 1020L254 0H80L276 1397H371L1069 369L1214 1397H1389ZM950 1794H1157L925 1495H811L950 1794Z"  />
<glyph unicode="&#x144;" horiz-adv-x="961" d="M365 920L342 758L346 754Q493 934 651 934Q758 934 817 856T876 653Q876 618 870 580L782 0H610L694 586Q699 617 699 643Q699 715 669 753T594 791Q568 791 536 778T466 738T375 656T317 586L233 0H61L190 920H365ZM575 1372H782L550 1073H436L575 1372Z"  />
<glyph unicode="&#x145;" horiz-adv-x="1409" d="M1389 1397L1192 0H1092L397 1020L254 0H80L276 1397H371L1069 369L1214 1397H1389ZM485 -483Q620 -439 620 -307Q539 -273 539 -199Q539 -146 576 -112T664 -78Q724 -78 761 -124T798 -240Q798 -349 715 -443T472 -574L485 -483Z"  />
<glyph unicode="&#x146;" horiz-adv-x="961" d="M365 920L342 758L346 754Q493 934 651 934Q758 934 817 856T876 653Q876 618 870 580L782 0H610L694 586Q699 617 699 643Q699 715 669 753T594 791Q568 791 536 778T466 738T375 656T317 586L233 0H61L190 920H365ZM218 -483Q353 -439 353 -307Q272 -273 272 -199Q272 -146 309 -112T397 -78Q457 -78 494 -124T531 -240Q531 -349 448 -443T205 -574L218 -483Z"  />
<glyph unicode="&#x147;" horiz-adv-x="1409" d="M1389 1397L1192 0H1092L397 1020L254 0H80L276 1397H371L1069 369L1214 1397H1389ZM765 1493L612 1796H696L866 1593L1140 1796H1236L968 1493H765Z"  />
<glyph unicode="&#x148;" horiz-adv-x="961" d="M365 920L342 758L346 754Q493 934 651 934Q758 934 817 856T876 653Q876 618 870 580L782 0H610L694 586Q699 617 699 643Q699 715 669 753T594 791Q568 791 536 778T466 738T375 656T317 586L233 0H61L190 920H365ZM480 1069L327 1372H411L581 1169L855 1372H951L683 1069H480Z"  />
<glyph unicode="&#x149;" horiz-adv-x="1301" d="M696 920L673 758L677 754Q824 934 982 934Q1089 934 1148 856T1207 653Q1207 618 1201 580L1113 0H941L1025 586Q1030 617 1030 643Q1030 715 1000 753T925 791Q899 791 867 778T797 738T706 656T648 586L564 0H392L521 920H696ZM121 923L133 1013Q268 1057 268 1189Q188 1224 188 1293Q188 1347 224 1380T317 1414Q372 1414 409 1368T447 1252Q447 1139 360 1048T121 923Z"  />
<glyph unicode="&#x14C;" horiz-adv-x="1343" d="M782 1415Q1003 1415 1139 1254T1276 829Q1276 465 1077 224T602 -18Q384 -18 244 147T104 571Q104 894 294 1154T782 1415ZM606 150Q800 150 943 358T1087 862Q1087 1042 1004 1144T780 1247Q564 1247 429 1032T293 545Q293 362 378 256T606 150ZM1136 1626L1118 1495H458L477 1626H1136Z"  />
<glyph unicode="&#x14D;" horiz-adv-x="918" d="M514 948Q669 948 762 839T856 547Q856 295 730 133T420 -29Q258 -29 166 80T74 383Q74 624 201 786T514 948ZM514 811Q407 811 330 679T252 365Q252 257 298 189T414 121Q523 121 600 245T678 557Q678 673 633 742T514 811ZM899 1301L881 1170H221L240 1301H899Z"  />
<glyph unicode="&#x14E;" horiz-adv-x="1343" d="M782 1415Q1003 1415 1139 1254T1276 829Q1276 465 1077 224T602 -18Q384 -18 244 147T104 571Q104 894 294 1154T782 1415ZM606 150Q800 150 943 358T1087 862Q1087 1042 1004 1144T780 1247Q564 1247 429 1032T293 545Q293 362 378 256T606 150ZM1027 1786H1127Q1048 1523 838 1523Q733 1523 668 1598T609 1786H705Q708 1725 747 1690T847 1655Q955 1655 1027 1786Z"  />
<glyph unicode="&#x14F;" horiz-adv-x="918" d="M514 948Q669 948 762 839T856 547Q856 295 730 133T420 -29Q258 -29 166 80T74 383Q74 624 201 786T514 948ZM514 811Q407 811 330 679T252 365Q252 257 298 189T414 121Q523 121 600 245T678 557Q678 673 633 742T514 811ZM743 1350H843Q764 1087 554 1087Q449 1087 384 1162T325 1350H421Q424 1289 463 1254T563 1219Q671 1219 743 1350Z"  />
<glyph unicode="&#x150;" horiz-adv-x="1343" d="M782 1415Q1003 1415 1139 1254T1276 829Q1276 465 1077 224T602 -18Q384 -18 244 147T104 571Q104 894 294 1154T782 1415ZM606 150Q800 150 943 358T1087 862Q1087 1042 1004 1144T780 1247Q564 1247 429 1032T293 545Q293 362 378 256T606 150ZM1054 1795H1261L1029 1496H915L1054 1795ZM728 1795H935L704 1496H589L728 1795Z"  />
<glyph unicode="&#x151;" horiz-adv-x="918" d="M514 948Q669 948 762 839T856 547Q856 295 730 133T420 -29Q258 -29 166 80T74 383Q74 624 201 786T514 948ZM514 811Q407 811 330 679T252 365Q252 257 298 189T414 121Q523 121 600 245T678 557Q678 673 633 742T514 811ZM761 1374H968L736 1075H622L761 1374ZM435 1374H642L411 1075H296L435 1374Z"  />
<glyph unicode="&#x152;" horiz-adv-x="1985" d="M1909 1397L1884 1231H1321L1262 795H1790L1765 629H1237L1174 166H1925L1903 0H977L733 -8Q426 -8 265 162T104 621Q104 788 197 979T463 1283T872 1397H1909ZM1139 1231H1024L844 1233Q597 1233 450 1062T303 602Q303 392 404 279T688 166H989L1139 1231Z"  />
<glyph unicode="&#x153;" horiz-adv-x="1473" d="M1386 481H819Q809 429 809 381Q809 257 874 186T1059 115Q1209 115 1348 252L1319 59Q1188 -29 1047 -29Q826 -29 700 162Q561 -29 401 -29Q239 -29 147 80T55 383Q55 624 182 786T496 948Q675 948 768 784Q898 948 1067 948Q1222 948 1305 845T1389 547Q1389 515 1386 481ZM407 120Q505 120 572 251T639 582Q639 689 594 750T496 811Q387 811 310 679T233 365Q233 261 277 191T407 120ZM836 602H1221Q1215 811 1051 811Q887 811 836 602Z"  />
<glyph unicode="&#x154;" horiz-adv-x="1087" d="M270 1397H522Q799 1397 898 1287T997 1018Q997 895 922 804T711 676Q773 636 827 522L1077 0H877L717 332Q641 489 588 552T426 616H352L266 0H74L270 1397ZM438 1231L377 782H475Q634 782 716 848T799 1028Q799 1231 547 1231H438ZM690 1794H897L665 1495H551L690 1794Z"  />
<glyph unicode="&#x155;" horiz-adv-x="641" d="M379 920L352 745L356 741Q438 858 486 896T600 934Q641 934 676 920V723Q621 754 569 754Q518 754 478 729T381 620T322 518L250 0H76L205 920H379ZM495 1372H702L470 1073H356L495 1372Z"  />
<glyph unicode="&#x156;" horiz-adv-x="1087" d="M270 1397H522Q799 1397 898 1287T997 1018Q997 895 922 804T711 676Q773 636 827 522L1077 0H877L717 332Q641 489 588 552T426 616H352L266 0H74L270 1397ZM438 1231L377 782H475Q634 782 716 848T799 1028Q799 1231 547 1231H438ZM356 -483Q491 -439 491 -307Q410 -273 410 -199Q410 -146 447 -112T535 -78Q595 -78 632 -124T669 -240Q669 -349 586 -443T343 -574L356 -483Z"  />
<glyph unicode="&#x157;" horiz-adv-x="641" d="M379 920L352 745L356 741Q438 858 486 896T600 934Q641 934 676 920V723Q621 754 569 754Q518 754 478 729T381 620T322 518L250 0H76L205 920H379ZM-48 -483Q87 -439 87 -307Q6 -273 6 -199Q6 -146 43 -112T131 -78Q191 -78 228 -124T265 -240Q265 -349 182 -443T-61 -574L-48 -483Z"  />
<glyph unicode="&#x158;" horiz-adv-x="1087" d="M270 1397H522Q799 1397 898 1287T997 1018Q997 895 922 804T711 676Q773 636 827 522L1077 0H877L717 332Q641 489 588 552T426 616H352L266 0H74L270 1397ZM438 1231L377 782H475Q634 782 716 848T799 1028Q799 1231 547 1231H438ZM544 1493L391 1796H475L645 1593L919 1796H1015L747 1493H544Z"  />
<glyph unicode="&#x159;" horiz-adv-x="641" d="M379 920L352 745L356 741Q438 858 486 896T600 934Q641 934 676 920V723Q621 754 569 754Q518 754 478 729T381 620T322 518L250 0H76L205 920H379ZM347 1069L194 1372H278L448 1169L722 1372H818L550 1069H347Z"  />
<glyph unicode="&#x15A;" horiz-adv-x="938" d="M899 1360L872 1169Q760 1243 627 1243Q515 1243 448 1185T381 1032Q381 985 413 933T600 757T804 538T854 350Q854 200 741 91T440 -18Q273 -18 102 82L131 287Q322 154 459 154Q533 154 599 202T666 334Q666 387 633 444T444 628T241 848T193 1034Q193 1196 327 1305T643 1415Q770 1415 899 1360ZM717 1794H924L692 1495H578L717 1794Z"  />
<glyph unicode="&#x15B;" horiz-adv-x="725" d="M662 852V670Q503 791 385 791Q332 791 296 763T260 694Q260 668 282 639T424 529T585 382T627 246Q627 125 547 48T342 -29Q189 -29 23 92L53 260Q225 123 336 123Q388 123 421 152T455 225Q455 258 431 292T288 409T132 555T94 684Q94 803 173 875T383 948Q521 948 662 852ZM463 1372H670L438 1073H324L463 1372Z"  />
<glyph unicode="&#x15C;" horiz-adv-x="938" d="M899 1360L872 1169Q760 1243 627 1243Q515 1243 448 1185T381 1032Q381 985 413 933T600 757T804 538T854 350Q854 200 741 91T440 -18Q273 -18 102 82L131 287Q322 154 459 154Q533 154 599 202T666 334Q666 387 633 444T444 628T241 848T193 1034Q193 1196 327 1305T643 1415Q770 1415 899 1360ZM790 1795L943 1492H859L689 1695L415 1492H319L587 1795H790Z"  />
<glyph unicode="&#x15D;" horiz-adv-x="725" d="M662 852V670Q503 791 385 791Q332 791 296 763T260 694Q260 668 282 639T424 529T585 382T627 246Q627 125 547 48T342 -29Q189 -29 23 92L53 260Q225 123 336 123Q388 123 421 152T455 225Q455 258 431 292T288 409T132 555T94 684Q94 803 173 875T383 948Q521 948 662 852ZM591 1372L744 1069H660L490 1272L216 1069H120L388 1372H591Z"  />
<glyph unicode="&#x15E;" horiz-adv-x="938" d="M899 1360L872 1169Q760 1243 627 1243Q515 1243 448 1185T381 1032Q381 985 413 933T600 757T804 538T854 350Q854 200 741 91T440 -18Q273 -18 102 82L131 287Q322 154 459 154Q533 154 599 202T666 334Q666 387 633 444T444 628T241 848T193 1034Q193 1196 327 1305T643 1415Q770 1415 899 1360ZM462 -5L443 -54Q537 -95 537 -193Q537 -268 475 -318T320 -369Q254 -369 181 -355L206 -261Q262 -275 292 -275Q388 -275 388 -197Q388 -154 333 -125L390 -5H462Z"  />
<glyph unicode="&#x15F;" horiz-adv-x="725" d="M662 852V670Q503 791 385 791Q332 791 296 763T260 694Q260 668 282 639T424 529T585 382T627 246Q627 125 547 48T342 -29Q189 -29 23 92L53 260Q225 123 336 123Q388 123 421 152T455 225Q455 258 431 292T288 409T132 555T94 684Q94 803 173 875T383 948Q521 948 662 852ZM337 -5L318 -54Q412 -95 412 -193Q412 -268 350 -318T195 -369Q129 -369 56 -355L81 -261Q137 -275 167 -275Q263 -275 263 -197Q263 -154 208 -125L265 -5H337Z"  />
<glyph unicode="&#x160;" horiz-adv-x="938" d="M899 1360L872 1169Q760 1243 627 1243Q515 1243 448 1185T381 1032Q381 985 413 933T600 757T804 538T854 350Q854 200 741 91T440 -18Q273 -18 102 82L131 287Q322 154 459 154Q533 154 599 202T666 334Q666 387 633 444T444 628T241 848T193 1034Q193 1196 327 1305T643 1415Q770 1415 899 1360ZM502 1516L349 1819H433L603 1616L877 1819H973L705 1516H502Z"  />
<glyph unicode="&#x161;" horiz-adv-x="725" d="M662 852V670Q503 791 385 791Q332 791 296 763T260 694Q260 668 282 639T424 529T585 382T627 246Q627 125 547 48T342 -29Q189 -29 23 92L53 260Q225 123 336 123Q388 123 421 152T455 225Q455 258 431 292T288 409T132 555T94 684Q94 803 173 875T383 948Q521 948 662 852ZM313 1069L160 1372H244L414 1169L688 1372H784L516 1069H313Z"  />
<glyph unicode="&#x162;" horiz-adv-x="1044" d="M1141 1397L1116 1223H723L551 0H358L530 1223H137L162 1397H1141ZM247 -483Q382 -439 382 -307Q301 -273 301 -199Q301 -146 338 -112T426 -78Q486 -78 523 -124T560 -240Q560 -349 477 -443T234 -574L247 -483Z"  />
<glyph unicode="&#x163;" horiz-adv-x="575" d="M584 920L565 784H381L293 281Q286 243 286 217Q286 127 383 127Q455 127 551 182L541 12Q445 -29 350 -29Q237 -29 172 28T106 180Q106 203 111 227L207 784H45L66 920H233L268 1108H440L408 920H584ZM118 -483Q253 -439 253 -307Q172 -273 172 -199Q172 -146 209 -112T297 -78Q357 -78 394 -124T431 -240Q431 -349 348 -443T105 -574L118 -483Z"  />
<glyph unicode="&#x164;" horiz-adv-x="1044" d="M1141 1397L1116 1223H723L551 0H358L530 1223H137L162 1397H1141ZM593 1493L440 1796H524L694 1593L968 1796H1064L796 1493H593Z"  />
<glyph unicode="&#x165;" horiz-adv-x="853" d="M584 920L565 784H381L293 281Q286 243 286 217Q286 127 383 127Q455 127 551 182L541 12Q445 -29 350 -29Q237 -29 172 28T106 180Q106 203 111 227L207 784H45L66 920H233L268 1108H440L408 920H584ZM670 1005Q805 1049 805 1181Q724 1215 724 1289Q724 1342 761 1376T849 1410Q909 1410 946 1364T983 1248Q983 1139 900 1045T657 914L670 1005Z"  />
<glyph unicode="&#x166;" horiz-adv-x="1045" d="M653 730H1032L1007 596H634L549 0H359L443 596H93L113 730H463L532 1221H137L164 1397H1135L1108 1221H723L653 730Z"  />
<glyph unicode="&#x167;" horiz-adv-x="576" d="M345 578H544L526 451H323L301 325Q286 241 286 200Q286 127 387 127Q467 127 551 187L540 13Q445 -28 350 -28Q232 -28 170 31T107 175Q107 211 125 313L150 451H-7L11 578H172L207 785H44L66 920H233L267 1108H440L408 920H585L563 785H382L345 578Z"  />
<glyph unicode="&#x168;" horiz-adv-x="1300" d="M1311 1397L1190 535Q1152 263 1003 123T608 -18Q390 -18 260 100T129 415Q129 456 135 498L262 1397H446L317 483Q313 454 313 427Q313 298 398 224T618 150Q735 150 824 205T948 344T1005 594L1118 1397H1311ZM1026 1747H1106Q1106 1648 1060 1581T938 1514Q910 1514 800 1553T655 1592Q594 1592 585 1516H504Q506 1627 550 1688T669 1749Q708 1749 815 1711T956 1672Q1015 1672 1026 1747Z"  />
<glyph unicode="&#x169;" horiz-adv-x="961" d="M898 920L767 0H595L611 156Q452 -14 308 -14Q215 -14 151 52T86 242Q86 277 91 313L177 920H351L265 313Q261 283 261 257Q261 119 363 119Q470 119 640 322L724 920H898ZM817 1335H897Q897 1236 851 1169T729 1102Q701 1102 591 1141T446 1180Q385 1180 376 1104H295Q297 1215 341 1276T460 1337Q499 1337 606 1299T747 1260Q806 1260 817 1335Z"  />
<glyph unicode="&#x16A;" horiz-adv-x="1300" d="M1311 1397L1190 535Q1152 263 1003 123T608 -18Q390 -18 260 100T129 415Q129 456 135 498L262 1397H446L317 483Q313 454 313 427Q313 298 398 224T618 150Q735 150 824 205T948 344T1005 594L1118 1397H1311ZM1164 1626L1146 1495H486L505 1626H1164Z"  />
<glyph unicode="&#x16B;" horiz-adv-x="961" d="M898 920L767 0H595L611 156Q452 -14 308 -14Q215 -14 151 52T86 242Q86 277 91 313L177 920H351L265 313Q261 283 261 257Q261 119 363 119Q470 119 640 322L724 920H898ZM920 1301L902 1170H242L261 1301H920Z"  />
<glyph unicode="&#x16C;" horiz-adv-x="1300" d="M1311 1397L1190 535Q1152 263 1003 123T608 -18Q390 -18 260 100T129 415Q129 456 135 498L262 1397H446L317 483Q313 454 313 427Q313 298 398 224T618 150Q735 150 824 205T948 344T1005 594L1118 1397H1311ZM1016 1786H1116Q1037 1523 827 1523Q722 1523 657 1598T598 1786H694Q697 1725 736 1690T836 1655Q944 1655 1016 1786Z"  />
<glyph unicode="&#x16D;" horiz-adv-x="961" d="M898 920L767 0H595L611 156Q452 -14 308 -14Q215 -14 151 52T86 242Q86 277 91 313L177 920H351L265 313Q261 283 261 257Q261 119 363 119Q470 119 640 322L724 920H898ZM758 1350H858Q779 1087 569 1087Q464 1087 399 1162T340 1350H436Q439 1289 478 1254T578 1219Q686 1219 758 1350Z"  />
<glyph unicode="&#x16E;" horiz-adv-x="1300" d="M1311 1397L1190 535Q1152 263 1003 123T608 -18Q390 -18 260 100T129 415Q129 456 135 498L262 1397H446L317 483Q313 454 313 427Q313 298 398 224T618 150Q735 150 824 205T948 344T1005 594L1118 1397H1311ZM636 1696Q636 1775 692 1831T829 1888Q908 1888 964 1832T1021 1696Q1021 1616 965 1560T829 1503Q749 1503 693 1559T636 1696ZM941 1692Q941 1737 908 1770T829 1804Q783 1804 750 1771T716 1692Q716 1646 749 1613T829 1579Q874 1579 907 1612T941 1692Z"  />
<glyph unicode="&#x16F;" horiz-adv-x="961" d="M898 920L767 0H595L611 156Q452 -14 308 -14Q215 -14 151 52T86 242Q86 277 91 313L177 920H351L265 313Q261 283 261 257Q261 119 363 119Q470 119 640 322L724 920H898ZM392 1224Q392 1303 448 1359T585 1416Q664 1416 720 1360T777 1224Q777 1144 721 1088T585 1031Q505 1031 449 1087T392 1224ZM697 1220Q697 1265 664 1298T585 1332Q539 1332 506 1299T472 1220Q472 1174 505 1141T585 1107Q630 1107 663 1140T697 1220Z"  />
<glyph unicode="&#x170;" horiz-adv-x="1300" d="M1311 1397L1190 535Q1152 263 1003 123T608 -18Q390 -18 260 100T129 415Q129 456 135 498L262 1397H446L317 483Q313 454 313 427Q313 298 398 224T618 150Q735 150 824 205T948 344T1005 594L1118 1397H1311ZM1081 1795H1288L1056 1496H942L1081 1795ZM755 1795H962L731 1496H616L755 1795Z"  />
<glyph unicode="&#x171;" horiz-adv-x="961" d="M898 920L767 0H595L611 156Q452 -14 308 -14Q215 -14 151 52T86 242Q86 277 91 313L177 920H351L265 313Q261 283 261 257Q261 119 363 119Q470 119 640 322L724 920H898ZM783 1374H990L758 1075H644L783 1374ZM457 1374H664L433 1075H318L457 1374Z"  />
<glyph unicode="&#x172;" horiz-adv-x="1300" d="M1305 1397L1184 535Q1113 27 672 -14Q629 -88 629 -137Q629 -180 663 -210T750 -240Q778 -240 827 -227L807 -367Q741 -383 680 -383Q586 -383 521 -327T455 -193Q455 -106 516 -14Q340 10 232 123T123 414Q123 455 129 498L256 1397H440L311 483Q307 454 307 426Q307 297 392 224T612 150Q729 150 817 203T942 353T999 594L1112 1397H1305Z"  />
<glyph unicode="&#x173;" horiz-adv-x="960" d="M748 0Q696 -89 696 -140Q696 -183 733 -211T817 -239Q848 -239 895 -227L876 -367Q811 -383 750 -383Q647 -383 585 -325T522 -195Q522 -113 588 0L611 157Q446 -9 302 -9Q203 -9 142 57T80 232Q80 276 99 401L172 920H345L268 359Q257 281 257 245Q257 185 287 154T357 123Q472 123 634 322L719 920H892L762 0H748Z"  />
<glyph unicode="&#x174;" horiz-adv-x="1898" d="M2019 1397L1343 -12H1272L1001 979L526 -12H453L123 1397H299L530 408L1001 1397H1073L1346 391L1825 1397H2019ZM1182 1795L1335 1492H1251L1081 1695L807 1492H711L979 1795H1182Z"  />
<glyph unicode="&#x175;" horiz-adv-x="1260" d="M1325 920L852 -18H770L647 584L336 -18H256L66 920H236L350 301L649 920H735L850 301L1155 920H1325ZM835 1372L988 1069H904L734 1272L460 1069H364L632 1372H835Z"  />
<glyph unicode="&#x176;" horiz-adv-x="1004" d="M1141 1397L651 696L553 0H369L467 696L139 1397H334L571 885L928 1397H1141ZM777 1795L930 1492H846L676 1695L402 1492H306L574 1795H777Z"  />
<glyph unicode="&#x177;" horiz-adv-x="768" d="M819 920L160 -471H-25L225 55L47 920H221L348 287L637 920H819ZM610 1372L763 1069H679L509 1272L235 1069H139L407 1372H610Z"  />
<glyph unicode="&#x178;" horiz-adv-x="1004" d="M1141 1397L651 696L553 0H369L467 696L139 1397H334L571 885L928 1397H1141ZM760 1661Q760 1700 788 1728T854 1756Q892 1756 920 1728T948 1661Q948 1623 920 1595T854 1567Q816 1567 788 1595T760 1661ZM393 1661Q393 1700 421 1728T487 1756Q525 1756 553 1728T581 1661Q581 1623 553 1595T487 1567Q449 1567 421 1595T393 1661Z"  />
<glyph unicode="&#x179;" horiz-adv-x="1194" d="M1325 1397L307 174H1135L1110 0H-66L948 1223H154L178 1397H1325ZM825 1794H1032L800 1495H686L825 1794Z"  />
<glyph unicode="&#x17A;" horiz-adv-x="938" d="M915 920L305 154H840L807 0H-27L573 766H109L129 920H915ZM565 1372H772L540 1073H426L565 1372Z"  />
<glyph unicode="&#x17B;" horiz-adv-x="1194" d="M1325 1397L307 174H1135L1110 0H-66L948 1223H154L178 1397H1325ZM680 1587Q680 1636 715 1671T799 1706Q847 1706 882 1671T917 1587Q917 1538 882 1503T799 1468Q750 1468 715 1503T680 1587Z"  />
<glyph unicode="&#x17C;" horiz-adv-x="938" d="M915 920L305 154H840L807 0H-27L573 766H109L129 920H915ZM461 1213Q461 1262 496 1297T580 1332Q628 1332 663 1297T698 1213Q698 1164 663 1129T580 1094Q531 1094 496 1129T461 1213Z"  />
<glyph unicode="&#x17D;" horiz-adv-x="1194" d="M1325 1397L307 174H1135L1110 0H-66L948 1223H154L178 1397H1325ZM629 1516L476 1819H560L730 1616L1004 1819H1100L832 1516H629Z"  />
<glyph unicode="&#x17E;" horiz-adv-x="938" d="M915 920L305 154H840L807 0H-27L573 766H109L129 920H915ZM442 1069L289 1372H373L543 1169L817 1372H913L645 1069H442Z"  />
<glyph unicode="&#x192;" horiz-adv-x="1130" d="M47 -406L82 -250Q180 -272 236 -272Q334 -272 354 -152L539 922H338L360 1061H563L592 1235Q635 1493 879 1493Q955 1493 1085 1454L1051 1300Q952 1325 891 1325Q835 1325 809 1293T766 1165L748 1061H950L926 922H721L530 -170Q506 -312 447 -371T264 -430Q169 -430 47 -406Z"  />
<glyph unicode="&#x218;" horiz-adv-x="938" d="M899 1360L872 1169Q760 1243 627 1243Q515 1243 448 1185T381 1032Q381 985 413 933T600 757T804 538T854 350Q854 200 741 91T440 -18Q273 -18 102 82L131 287Q322 154 459 154Q533 154 599 202T666 334Q666 387 633 444T444 628T241 848T193 1034Q193 1196 327 1305T643 1415Q770 1415 899 1360ZM263 -483Q398 -439 398 -307Q317 -273 317 -199Q317 -146 354 -112T442 -78Q502 -78 539 -124T576 -240Q576 -349 493 -443T250 -574L263 -483Z"  />
<glyph unicode="&#x219;" horiz-adv-x="725" d="M662 852V670Q503 791 385 791Q332 791 296 763T260 694Q260 668 282 639T424 529T585 382T627 246Q627 125 547 48T342 -29Q189 -29 23 92L53 260Q225 123 336 123Q388 123 421 152T455 225Q455 258 431 292T288 409T132 555T94 684Q94 803 173 875T383 948Q521 948 662 852ZM123 -483Q258 -439 258 -307Q177 -273 177 -199Q177 -146 214 -112T302 -78Q362 -78 399 -124T436 -240Q436 -349 353 -443T110 -574L123 -483Z"  />
<glyph unicode="&#x21A;" horiz-adv-x="1044" d="M1141 1397L1116 1223H723L551 0H358L530 1223H137L162 1397H1141ZM250 -483Q385 -439 385 -307Q304 -273 304 -199Q304 -146 341 -112T429 -78Q489 -78 526 -124T563 -240Q563 -349 480 -443T237 -574L250 -483Z"  />
<glyph unicode="&#x21B;" horiz-adv-x="575" d="M584 920L565 784H381L293 281Q286 243 286 217Q286 127 383 127Q455 127 551 182L541 12Q445 -29 350 -29Q237 -29 172 28T106 180Q106 203 111 227L207 784H45L66 920H233L268 1108H440L408 920H584ZM96 -483Q231 -439 231 -307Q150 -273 150 -199Q150 -146 187 -112T275 -78Q335 -78 372 -124T409 -240Q409 -349 326 -443T83 -574L96 -483Z"  />
<glyph unicode="&#x2C6;" horiz-adv-x="682" d="M590 1372L743 1069H659L489 1272L215 1069H119L387 1372H590Z"  />
<glyph unicode="&#x2C7;" horiz-adv-x="682" d="M313 1069L160 1372H244L414 1169L688 1372H784L516 1069H313Z"  />
<glyph unicode="&#x2C9;" horiz-adv-x="682" d="M774 1300L756 1169H96L115 1300H774Z"  />
<glyph unicode="&#x2D8;" horiz-adv-x="682" d="M637 1350H737Q658 1087 448 1087Q343 1087 278 1162T219 1350H315Q318 1289 357 1254T457 1219Q565 1219 637 1350Z"  />
<glyph unicode="&#x2D9;" horiz-adv-x="682" d="M356 1239Q356 1288 391 1323T475 1358Q523 1358 558 1323T593 1239Q593 1190 558 1155T475 1120Q426 1120 391 1155T356 1239Z"  />
<glyph unicode="&#x2DA;" horiz-adv-x="682" d="M256 1223Q256 1302 312 1358T449 1415Q528 1415 584 1359T641 1223Q641 1143 585 1087T449 1030Q369 1030 313 1086T256 1223ZM561 1219Q561 1264 528 1297T449 1331Q403 1331 370 1298T336 1219Q336 1173 369 1140T449 1106Q494 1106 527 1139T561 1219Z"  />
<glyph unicode="&#x2DB;" horiz-adv-x="682" d="M451 -227L430 -367Q369 -383 303 -383Q209 -383 144 -327T78 -193Q78 -107 154 14H311Q252 -89 252 -137Q252 -180 287 -210T373 -240Q404 -240 451 -227Z"  />
<glyph unicode="&#x2DC;" horiz-adv-x="682" d="M672 1335H752Q752 1236 706 1169T584 1102Q556 1102 446 1141T301 1180Q240 1180 231 1104H150Q152 1215 196 1276T315 1337Q354 1337 461 1299T602 1260Q661 1260 672 1335Z"  />
<glyph unicode="&#x2DD;" horiz-adv-x="682" d="M639 1372H846L614 1073H500L639 1372ZM313 1372H520L289 1073H174L313 1372Z"  />
<glyph unicode="&#x37E;" horiz-adv-x="406" d="M147 829Q147 878 182 913T266 948Q315 948 350 913T385 829Q385 781 350 746T266 711Q217 711 182 746T147 829ZM-20 -295L-8 -205Q127 -161 127 -29Q47 7 47 76Q47 129 83 163T176 197Q231 197 268 151T305 35Q305 -78 218 -169T-20 -295Z"  />
<glyph unicode="&#x394;" horiz-adv-x="1067" d="M717 1405L997 0H-72L541 1405H717ZM780 176L598 1112L199 176H780Z"  />
<glyph unicode="&#x3A9;" horiz-adv-x="1380" d="M45 178H356Q104 369 104 678Q104 997 344 1237Q522 1415 776 1415Q1029 1415 1181 1226Q1313 1062 1313 848Q1313 599 1192 424Q1100 291 915 178H1221L1192 0H721L750 180Q953 345 1037 488Q1122 635 1122 825Q1122 981 1061 1090Q974 1245 782 1245Q561 1245 416 1054Q288 884 289 680Q289 524 357 394Q406 300 516 180L487 0H16L45 178Z"  />
<glyph unicode="&#x3BC;" horiz-adv-x="1026" d="M457 -27Q312 -27 248 123L164 -469H-10L188 920H365L285 379Q283 365 283 315Q283 233 331 182T467 131Q626 131 657 348L741 920H915L831 336Q821 265 821 236Q821 137 899 137Q941 137 999 160L979 10Q887 -27 825 -27Q715 -27 668 68Q553 -27 457 -27Z"  />
<glyph unicode="&#x3C0;" horiz-adv-x="1130" d="M169 0L276 766Q273 766 254 766T231 766Q160 766 53 713L78 874Q192 922 285 922H1116L1094 766H941L832 0H658L767 766H450L341 0H169Z"  />
<glyph unicode="&#x2013;" horiz-adv-x="1024" d="M1042 584V453H-18V584H1042Z"  />
<glyph unicode="&#x2014;" horiz-adv-x="2048" d="M2066 584V453H-18V584H2066Z"  />
<glyph unicode="&#x2018;" horiz-adv-x="406" d="M483 1413L471 1323Q336 1279 336 1147Q416 1112 416 1042Q416 989 380 956T287 922Q232 922 195 968T158 1083Q158 1197 245 1287T483 1413Z"  />
<glyph unicode="&#x2019;" horiz-adv-x="406" d="M123 924L135 1014Q270 1058 270 1190Q190 1225 190 1294Q190 1348 226 1381T319 1415Q374 1415 411 1369T449 1253Q449 1140 362 1049T123 924Z"  />
<glyph unicode="&#x201A;" horiz-adv-x="406" d="M-49 -295L-37 -205Q98 -161 98 -29Q18 7 18 76Q18 129 54 163T147 197Q202 197 239 151T276 35Q276 -78 189 -169T-49 -295Z"  />
<glyph unicode="&#x201C;" horiz-adv-x="831" d="M899 1413L887 1323Q752 1279 752 1147Q831 1112 831 1042Q831 989 795 956T702 922Q648 922 611 968T573 1083Q573 1197 660 1287T899 1413ZM459 1413L446 1323Q311 1279 311 1147Q391 1112 391 1042Q391 989 355 956T262 922Q207 922 170 968T133 1083Q133 1197 220 1287T459 1413Z"  />
<glyph unicode="&#x201D;" horiz-adv-x="831" d="M567 924L580 1014Q715 1058 715 1190Q635 1225 635 1294Q635 1348 671 1381T764 1415Q819 1415 856 1369T893 1253Q893 1140 806 1049T567 924ZM127 924L139 1014Q274 1058 274 1190Q195 1225 195 1294Q195 1348 231 1381T324 1415Q378 1415 415 1369T453 1253Q453 1140 366 1049T127 924Z"  />
<glyph unicode="&#x201E;" horiz-adv-x="831" d="M391 -295L403 -205Q539 -161 539 -29Q459 7 459 76Q459 129 495 163T588 197Q643 197 680 151T717 35Q717 -78 630 -169T391 -295ZM-49 -295L-37 -205Q98 -161 98 -29Q18 7 18 76Q18 129 54 163T147 197Q202 197 239 151T276 35Q276 -78 189 -169T-49 -295Z"  />
<glyph unicode="&#x2020;" horiz-adv-x="981" d="M502 829Q492 961 492 1094Q492 1415 621 1415Q694 1415 694 1280Q694 1125 559 829Q726 889 846 889Q899 889 932 865T965 803Q965 770 928 746T838 721Q741 721 559 780Q557 555 532 201T470 -312T354 -471Q268 -471 268 -328Q268 -68 502 780Q327 721 225 721Q170 721 136 745T102 807Q102 841 140 864T238 887Q324 887 502 829Z"  />
<glyph unicode="&#x2021;" horiz-adv-x="938" d="M547 829Q538 721 538 645L541 524Q541 446 500 325T438 111Q610 170 702 170Q817 170 817 84Q817 0 686 0Q600 0 438 63Q446 -45 446 -188Q446 -471 330 -471Q244 -471 244 -360Q244 -235 385 63Q232 0 139 0Q-10 0 -10 80Q-10 119 29 144T131 170Q225 170 385 113Q391 188 391 264L387 444Q387 496 429 610T494 829Q342 778 240 778Q111 778 111 856Q111 897 146 922T240 948Q335 948 494 881Q485 975 485 1143Q485 1415 604 1415Q686 1415 686 1305Q686 1176 547 885L551 881Q682 948 813 948Q938 948 938 864Q938 778 801 778Q691 778 547 829Z"  />
<glyph unicode="&#x2022;" horiz-adv-x="725" d="M393 952Q497 952 572 877T647 698Q647 594 572 519T393 444Q289 444 214 519T139 698Q139 802 214 877T393 952Z"  />
<glyph unicode="&#x2026;" horiz-adv-x="2048" d="M1524 104Q1524 155 1559 191T1647 227Q1697 227 1732 191T1767 104Q1767 54 1732 18T1647 -18Q1595 -18 1560 17T1524 104ZM840 104Q840 155 876 191T963 227Q1013 227 1049 191T1085 104Q1085 54 1049 18T963 -18Q912 -18 876 18T840 104ZM158 102Q158 153 193 188T279 223Q329 223 365 188T401 102Q401 52 365 17T279 -18Q228 -18 193 17T158 102Z"  />
<glyph unicode="&#x2030;" horiz-adv-x="2068" d="M369 1415Q497 1415 588 1325T680 1104Q680 979 587 886T369 793Q240 793 149 885T57 1104Q57 1235 147 1325T369 1415ZM369 942Q436 942 483 990T530 1104Q530 1172 483 1219T369 1266Q300 1266 254 1220T207 1104Q207 1041 256 992T369 942ZM1231 1415L313 -18H158L1077 1415H1231ZM1749 606Q1877 606 1968 516T2060 295Q2060 170 1967 77T1749 -16Q1620 -16 1529 76T1438 295Q1438 426 1527 516T1749 606ZM1749 133Q1816 133 1863 181T1911 295Q1911 363 1864 410T1749 457Q1681 457 1634 411T1587 295Q1587 232 1636 183T1749 133ZM1020 606Q1148 606 1239 516T1331 295Q1331 170 1238 77T1020 -16Q891 -16 800 76T709 295Q709 426 798 516T1020 606ZM1020 133Q1087 133 1134 181T1182 295Q1182 363 1135 410T1020 457Q952 457 905 411T858 295Q858 232 907 183T1020 133Z"  />
<glyph unicode="&#x2039;" horiz-adv-x="469" d="M502 920L147 438L319 0H180L0 459L344 920H502Z"  />
<glyph unicode="&#x203A;" horiz-adv-x="469" d="M-74 0L281 481L109 920H248L428 461L84 0H-74Z"  />
<glyph unicode="&#x2044;" horiz-adv-x="427" d="M839 1416L-270 -55H-412L700 1416H839Z"  />
<glyph unicode="&#x20AC;" horiz-adv-x="1178" d="M459 901H1036L1008 754H410Q400 695 393 645H987L958 498H393Q404 338 477 248T678 158Q860 158 1069 293L1042 78Q851 -18 664 -18Q485 -18 352 109T201 498H51L80 645H201Q205 705 215 754H51L80 901H258Q355 1153 563 1284T1026 1415Q1116 1415 1235 1395L1202 1217Q1090 1239 1012 1239Q828 1239 682 1152T459 901Z"  />
<glyph unicode="&#x2113;" horiz-adv-x="661" d="M24 587L239 748L375 1192Q433 1381 505 1436T662 1492Q757 1492 810 1434T863 1305Q863 1205 774 1077T408 722L254 222Q243 188 243 169Q243 131 250 122T278 112Q344 112 509 222L470 53Q346 -26 247 -26Q169 -26 121 19T72 143Q72 213 106 324L175 545L85 477L24 587ZM480 953Q633 1098 678 1170T723 1299Q723 1373 667 1373Q609 1373 560 1215L480 953Z"  />
<glyph unicode="&#x2122;" horiz-adv-x="2048" d="M408 651V1346H143V1466H809V1346H543V651H408ZM901 651V1466H1102L1309 815L1505 1466H1702V651H1577L1579 1335L1368 651H1245L1026 1346V651H901Z"  />
<glyph unicode="&#x2126;" horiz-adv-x="1573" d="M496 160Q388 227 331 290Q244 386 197 515T150 802Q150 998 229 1162T460 1415T808 1503Q1144 1503 1324 1249Q1455 1063 1455 801Q1455 633 1401 504T1260 281Q1207 223 1111 160L1475 166V0H900V177Q980 217 1024 255Q1096 316 1146 400T1221 579T1247 777Q1247 915 1198 1054T1048 1267T804 1340Q613 1340 508 1220Q362 1051 362 780Q362 563 453 408T704 180V0H127V168L496 160Z"  />
<glyph unicode="&#x212E;" horiz-adv-x="1229" d="M321 531V160Q441 39 619 39Q873 39 1014 285L1086 242Q968 72 855 19T619 -34Q387 -34 239 124T90 531Q90 783 239 939T619 1096Q833 1096 985 954T1148 531H321ZM917 605V902Q793 1023 617 1023Q442 1023 321 901V605H917Z"  />
<glyph unicode="&#x2202;" horiz-adv-x="1012" d="M422 1138L287 1198Q357 1355 455 1423T647 1491Q723 1491 784 1452T877 1361Q924 1282 946 1174T969 926Q969 638 883 414T649 82T360 -25Q223 -25 138 66T52 322Q52 548 205 709Q402 916 854 924Q850 1092 830 1180T762 1315T649 1363Q587 1363 528 1314T422 1138ZM850 796Q606 782 493 728T306 552T232 303Q232 220 283 166T402 112Q477 112 562 167Q679 243 752 401T850 796Z"  />
<glyph unicode="&#x2206;" horiz-adv-x="1253" d="M668 1409L1245 0H12L668 1409ZM594 1059L147 100H991L594 1059Z"  />
<glyph unicode="&#x220F;" horiz-adv-x="1686" d="M161 1491H1523V-431H1332V1317H354V-431H161V1491Z"  />
<glyph unicode="&#x2211;" horiz-adv-x="1460" d="M139 1491H1376V1327H388L995 552L346 -270H1386V-431H122V-244L742 544L139 1316V1491Z"  />
<glyph unicode="&#x2212;" horiz-adv-x="1196" d="M145 807H1112V639H145V807Z"  />
<glyph unicode="&#x2215;" horiz-adv-x="426" d="M840 1415L-270 -55H-412L700 1415H840Z"  />
<glyph unicode="&#x2219;" horiz-adv-x="532" d="M184 709Q184 759 221 795T309 831Q360 831 396 795T432 709Q432 658 396 621T309 584Q259 584 222 621T184 709Z"  />
<glyph unicode="&#x221A;" horiz-adv-x="1124" d="M1055 1868L748 -78L250 950L53 854L20 922L319 1069L723 244L983 1878L1055 1868Z"  />
<glyph unicode="&#x221E;" horiz-adv-x="1460" d="M689 812Q794 944 853 986Q933 1044 1022 1044Q1127 1044 1218 968T1310 723Q1310 605 1276 538T1170 429T1022 388Q933 388 853 445Q794 488 689 620Q553 449 400 449Q299 449 227 525T154 716Q154 829 226 906T400 983Q553 983 689 812ZM758 717Q845 582 917 532Q963 499 1020 499Q1096 499 1147 555T1199 713Q1199 819 1147 875T1016 931Q967 931 924 903Q866 864 758 717ZM620 716Q540 816 492 844T400 873Q342 873 304 832T265 719Q265 648 305 606T402 563Q503 563 620 716Z"  />
<glyph unicode="&#x222B;" horiz-adv-x="561" d="M602 1760Q602 1721 573 1696T497 1671Q460 1671 437 1696T393 1721Q375 1721 366 1707T356 1663Q356 1629 375 1407T395 856Q395 351 365 147T286 -136Q260 -177 219 -198T133 -219Q84 -219 47 -184T10 -99Q10 -61 35 -34T100 -7Q134 -7 165 -40T210 -73Q235 -73 249 -29T264 125Q264 162 258 322T252 884Q252 1365 269 1522T310 1738Q339 1808 379 1842T463 1876Q520 1876 561 1844T602 1760Z"  />
<glyph unicode="&#x2248;" horiz-adv-x="1196" d="M80 610V779Q237 911 385 911Q471 911 643 833T889 755Q1006 755 1176 892V722Q1020 591 877 591Q793 591 619 669T371 747Q254 747 80 610ZM80 249V418Q237 550 385 550Q471 550 643 472T889 394Q1006 394 1176 531V361Q1020 230 877 230Q793 230 619 308T371 386Q254 386 80 249Z"  />
<glyph unicode="&#x2260;" horiz-adv-x="1195" d="M415 417H114V585H481L590 862H114V1030H656L865 1565H990L781 1030H1082V862H716L607 585H1082V417H542L333 -119H206L415 417Z"  />
<glyph unicode="&#x2264;" horiz-adv-x="1195" d="M114 762V930L1082 1340V1160L314 845L1082 526V347L114 762ZM1082 106H114V273H1082V106Z"  />
<glyph unicode="&#x2265;" horiz-adv-x="1195" d="M1082 762L114 347V526L882 845L114 1160V1340L1082 930V762ZM1082 106H114V273H1082V106Z"  />
<glyph unicode="&#x25CA;" horiz-adv-x="1012" d="M962 763L565 0H443L46 763L443 1526H565L962 763ZM839 763L504 1415L169 763L504 111L839 763Z"  />
<glyph unicode="&#xF003;" horiz-adv-x="662" d="M637 1417L561 989H680L668 901H545L504 680H375L418 901H109V948L553 1417H637ZM287 989H434L484 1200L287 989Z"  />
<glyph unicode="&#xF004;" horiz-adv-x="683" d="M78 -483Q213 -439 213 -307Q132 -273 132 -199Q132 -146 169 -112T257 -78Q317 -78 354 -124T391 -240Q391 -349 308 -443T65 -574L78 -483Z"  />
<glyph unicode="&#xFB01;" horiz-adv-x="981" d="M612 920L590 766H395L223 -387H53L223 766H88L111 920H244Q277 1178 376 1296T662 1415Q793 1415 875 1344T958 1155H793Q769 1266 655 1266Q546 1266 496 1196T416 920H612ZM930 920L795 0H621L756 920H930Z"  />
<glyph unicode="&#xFB02;" horiz-adv-x="981" d="M618 920L590 766H397L223 -387H53L223 766H90L113 920H244Q277 1174 372 1294T649 1415Q707 1415 750 1397L729 1255Q694 1266 651 1266Q448 1266 418 920H618ZM999 1397L793 0H618L825 1397H999Z"  />

</font>
</defs>
</svg>
