<?xml  version="1.0" encoding="UTF-8"?>
<!DOCTYPE svg PUBLIC "-//W3C//DTD SVG 1.0//EN" "http://www.w3.org/TR/2001/REC-SVG-20010904/DTD/svg10.dtd" >
<svg xmlns="http://www.w3.org/2000/svg" >
<metadata>
<version>1.0</version>
<id><![CDATA[Gill Sans W02 Bold]]></id>
<vendor>Monotype Imaging Inc.</vendor>
<credits>
<name>Fonts.com WebFonts</name>
<URL>http://webfonts.fonts.com</URL>
<role>Home of the Web fonts</role>
</credits>
<license>
<URL>http://webfonts.fonts.com/Legal</URL>
</license>
<copyright><![CDATA[Digitized data copyright The Monotype Corporation 1991-1999.]]></copyright>
<trademark><![CDATA[Gill Sans¨ is a trademark of The Monotype Corporation which may be registered in certain jurisdictions.]]></trademark>
<licensee>
<name></name>
</licensee>
</metadata>
<defs >
<font horiz-adv-x="1175" id="7bf70546-8c62-412f-9a7f-ea4d750a97b9">
<font-face font-family="" panose-1="2 11 8 2 2 1 4 2 2 3" ascent="1924" descent="-654" units-per-em="2048" alphabetic="0">
</font-face>
<missing-glyph horiz-adv-x="569" />

<glyph unicode="&#xA;" />
<glyph unicode="&#xD;" />
<glyph unicode=" " horiz-adv-x="569" />
<glyph unicode="!" horiz-adv-x="555" d="M449 1194Q449 1054 402 780T336 464T279 422Q237 422 222 456T157 751T106 1194Q106 1415 279 1415Q449 1415 449 1194ZM100 160Q100 233 152 285T279 338Q352 338 404 286T457 160Q457 86 405 34T279 -18Q205 -18 153 34T100 160Z"  />
<glyph unicode="&quot;" horiz-adv-x="981" d="M823 944H645L596 1219V1466H872V1219L823 944ZM109 1466H385V1219L336 944H158L109 1219V1466Z"  />
<glyph unicode="#" horiz-adv-x="1196" d="M-12 1026H285L362 1396H594L516 1026H831L909 1396H1137L1059 1026H1210V802H1014L958 534H1210V311H909L831 -60H604L680 311H367L291 -60H57L135 311H-12V534H182L238 802H-12V1026ZM469 802L414 534H727L782 802H469Z"  />
<glyph unicode="$" horiz-adv-x="1110" d="M956 1237V985Q809 1097 637 1120V788Q825 730 926 617T1028 373Q1028 223 927 119T637 -18V-244H465V-18Q280 11 106 123V365Q293 222 465 193V586Q92 673 92 977Q92 1117 192 1219T465 1341V1415H637V1341Q785 1335 956 1237ZM465 850V1120Q328 1086 328 989Q328 894 465 850ZM637 532V197Q795 233 795 358Q795 477 637 532Z"  />
<glyph unicode="%" horiz-adv-x="1473" d="M379 1415Q515 1415 612 1319T709 1085Q709 950 612 853T379 756Q243 756 146 853T49 1085Q49 1223 145 1319T379 1415ZM379 932Q440 932 482 976T524 1085Q524 1148 481 1193T379 1239Q317 1239 275 1195T233 1085Q233 1024 276 978T379 932ZM1307 1415L330 -16H160L1143 1415H1307ZM1092 641Q1228 641 1324 545T1421 311Q1421 176 1324 79T1092 -18Q956 -18 859 79T762 311Q762 448 858 544T1092 641ZM1092 158Q1153 158 1195 202T1237 311Q1237 374 1194 419T1092 465Q1030 465 988 421T946 311Q946 250 989 204T1092 158Z"  />
<glyph unicode="&amp;" horiz-adv-x="1536" d="M1188 725H1487Q1368 449 1206 307L1487 0H1063L961 111Q758 -18 522 -18Q332 -18 206 87T80 350Q80 586 393 745Q266 919 266 1055Q266 1210 387 1312T694 1415Q872 1415 985 1322T1098 1083Q1098 879 838 725L1028 506Q1118 596 1188 725ZM686 891Q825 972 825 1067Q825 1118 789 1151T696 1184Q640 1184 604 1154T567 1077Q567 997 686 891ZM799 291L551 565Q408 473 408 377Q408 310 460 262T584 213Q685 213 799 291Z"  />
<glyph unicode="&apos;" horiz-adv-x="492" d="M336 944H158L109 1219V1466H385V1219L336 944Z"  />
<glyph unicode="(" horiz-adv-x="788" d="M776 1415Q412 1014 412 473Q412 -62 776 -471H565Q343 -293 218 -39T92 473Q92 730 218 985T565 1415H776Z"  />
<glyph unicode=")" horiz-adv-x="788" d="M12 -471Q377 -60 377 473Q377 1014 12 1415H223Q443 1241 569 986T696 473Q696 216 571 -37T223 -471H12Z"  />
<glyph unicode="*" horiz-adv-x="961" d="M607 616Q613 598 613 584Q613 541 554 541H429Q365 541 365 582Q365 597 371 616L462 907L437 930L234 721Q189 675 168 675Q150 675 132 709L75 817Q62 842 62 861Q62 898 105 907L417 975V979L105 1049Q61 1060 61 1096Q61 1113 70 1130L132 1247Q151 1283 167 1283Q187 1283 234 1235L437 1026L462 1049L371 1339Q365 1358 365 1372Q365 1415 429 1415H548Q613 1415 613 1373Q613 1359 607 1339L517 1049L541 1026L744 1235Q791 1282 808 1282Q824 1282 847 1241L898 1149Q917 1113 917 1091Q917 1058 873 1049L562 979V975L873 907Q917 898 917 861Q917 840 902 813L849 717Q824 673 807 673Q791 673 761 705L541 930L517 907L607 616Z"  />
<glyph unicode="+" horiz-adv-x="1196" d="M86 592V854H467V1235H729V854H1110V592H729V211H467V592H86Z"  />
<glyph unicode="&#x2c;" horiz-adv-x="555" d="M102 -346V-283Q197 -192 197 -52Q197 -35 195 -18Q90 22 90 131Q90 201 138 247T258 293Q348 293 405 228T463 59Q463 -89 362 -208T102 -346Z"  />
<glyph unicode="-" horiz-adv-x="682" d="M608 610V338H74V610H608Z"  />
<glyph unicode="." horiz-adv-x="555" d="M98 160Q98 233 150 285T276 338Q350 338 402 286T455 160Q455 86 403 34T276 -18Q203 -18 151 34T98 160Z"  />
<glyph unicode="/" horiz-adv-x="575" d="M0 -18L346 1415H557L207 -18H0Z"  />
<glyph unicode="0" horiz-adv-x="1130" d="M567 1415Q789 1415 913 1224T1038 705Q1038 364 917 173T571 -18Q343 -18 217 172T90 698Q90 1038 218 1226T567 1415ZM567 244Q651 244 689 345T727 727Q727 960 690 1056T565 1153Q480 1153 441 1059T401 684Q401 449 440 347T567 244Z"  />
<glyph unicode="1" horiz-adv-x="1130" d="M715 1397V0H406V1397H715Z"  />
<glyph unicode="2" horiz-adv-x="1130" d="M1034 285V0H111V39Q238 194 401 431T608 769T651 963Q651 1045 597 1104T465 1163Q312 1163 129 989V1282Q334 1415 520 1415Q726 1415 844 1309T963 1018Q963 765 584 285H1034Z"  />
<glyph unicode="3" horiz-adv-x="1130" d="M416 602V848Q503 848 555 897T608 1014Q608 1084 552 1130T410 1176Q293 1176 154 1108V1354Q293 1415 473 1415Q672 1415 796 1320T920 1073Q920 864 713 750Q958 654 958 391Q958 205 823 94T461 -18Q276 -18 119 61V332Q277 221 414 221Q511 221 572 272T633 406Q633 488 575 543T416 602Z"  />
<glyph unicode="4" horiz-adv-x="1130" d="M938 1415V567H1032V344H938V0H629V344H84V567L741 1415H938ZM330 567H629V948L330 567Z"  />
<glyph unicode="5" horiz-adv-x="1130" d="M928 1397V1116H481V856Q705 871 840 745T975 426Q975 224 838 103T469 -18Q266 -18 131 57V311Q292 221 428 221Q524 221 586 276T649 416Q649 509 573 563T362 617Q288 617 203 600V1397H928Z"  />
<glyph unicode="6" horiz-adv-x="1130" d="M866 1415L543 887Q589 899 636 899Q793 899 904 778T1016 459Q1016 254 884 118T553 -18Q348 -18 219 119T90 477Q90 716 281 1024L522 1415H866ZM559 244Q631 244 674 299T717 451Q717 545 673 602T557 659Q485 659 443 602T401 446Q401 350 443 297T559 244Z"  />
<glyph unicode="7" horiz-adv-x="1130" d="M272 88L647 1118H131V1397H1055V1380L551 -18L272 88Z"  />
<glyph unicode="8" horiz-adv-x="1130" d="M309 737Q137 845 137 1036Q137 1206 254 1310T561 1415Q761 1415 878 1304T995 1034Q995 839 825 737Q1034 629 1034 399Q1034 211 906 97T563 -18Q357 -18 228 98T98 397Q98 640 309 737ZM569 823Q629 823 662 876T696 1024Q696 1210 565 1210Q506 1210 471 1160T436 1020Q436 929 472 876T569 823ZM569 186Q638 186 680 244T723 401Q723 504 681 564T567 625Q496 625 453 567T410 410Q410 308 454 247T569 186Z"  />
<glyph unicode="9" horiz-adv-x="1130" d="M256 -18L578 506Q530 493 483 493Q327 493 215 621T102 932Q102 1137 236 1276T567 1415Q765 1415 896 1276T1028 928Q1028 680 844 381L598 -18H256ZM561 731Q628 731 672 790T717 940Q717 1039 675 1096T561 1153Q492 1153 447 1094T401 942Q401 848 445 790T561 731Z"  />
<glyph unicode=":" horiz-adv-x="555" d="M98 766Q98 839 150 891T276 944Q350 944 402 892T455 766Q455 693 403 641T276 588Q203 588 151 640T98 766ZM98 160Q98 233 150 285T276 338Q350 338 402 286T455 160Q455 86 403 34T276 -18Q203 -18 151 34T98 160Z"  />
<glyph unicode=";" horiz-adv-x="555" d="M98 766Q98 839 150 891T276 944Q350 944 402 892T455 766Q455 693 403 641T276 588Q203 588 151 640T98 766ZM102 -346V-283Q197 -192 197 -52Q197 -35 195 -18Q90 22 90 131Q90 201 138 247T258 293Q348 293 405 228T463 59Q463 -89 362 -208T102 -346Z"  />
<glyph unicode="&lt;" horiz-adv-x="1196" d="M96 604V850L1102 1286V1006L399 727L1102 449V168L96 604Z"  />
<glyph unicode="=" horiz-adv-x="1196" d="M86 815V1077H1110V815H86ZM86 369V631H1110V369H86Z"  />
<glyph unicode="&gt;" horiz-adv-x="1196" d="M1100 604L94 168V449L797 727L94 1006V1286L1100 850V604Z"  />
<glyph unicode="?" horiz-adv-x="768" d="M51 1122L102 1374Q220 1415 340 1415Q496 1415 587 1337T678 1128Q678 1053 650 973T524 770T404 589T381 477V453Q381 431 369 426T317 420Q280 420 265 436T228 523T207 649Q207 761 301 922Q367 1034 367 1090Q367 1194 246 1194Q155 1194 70 1122H51ZM145 160Q145 233 197 285T324 338Q397 338 449 286T502 160Q502 86 450 34T324 -18Q250 -18 198 34T145 160Z"  />
<glyph unicode="@" horiz-adv-x="2005" d="M1778 18H1991Q1881 -201 1654 -315T1112 -430Q667 -430 364 -192T61 471Q61 893 331 1192T1087 1491Q1465 1491 1701 1279T1937 727Q1937 439 1747 220T1276 0Q1121 0 1094 115Q979 0 823 0Q654 0 546 117T438 420Q438 670 589 876T975 1083Q1156 1083 1243 948L1268 1059H1532L1372 301Q1367 275 1367 256Q1367 205 1405 205Q1499 205 1628 365T1757 731Q1757 978 1579 1144T1071 1311Q678 1311 460 1067T242 473Q242 135 476 -57T1087 -250Q1566 -250 1778 18ZM1001 903Q866 903 781 755T696 416Q696 310 746 246T877 182Q1019 182 1103 345T1188 670Q1188 777 1137 840T1001 903Z"  />
<glyph unicode="A" horiz-adv-x="1599" d="M973 1397L1593 0H1219L1104 276H479L375 0H6L569 1397H973ZM1001 520L776 1063L571 520H1001Z"  />
<glyph unicode="B" horiz-adv-x="1430" d="M156 1397H760Q976 1397 1099 1293T1223 1047Q1223 865 1032 768Q1176 730 1252 634T1329 410Q1329 228 1204 114T836 0H156V1397ZM504 1141V842H686Q770 842 817 885T864 993Q864 1057 817 1099T686 1141H504ZM504 586V256H700Q839 256 900 294T961 428Q961 501 903 543T748 586H504Z"  />
<glyph unicode="C" horiz-adv-x="1579" d="M1458 426V121Q1196 -18 909 -18Q537 -18 317 187T96 694Q96 995 328 1205T936 1415Q1235 1415 1442 1292V981Q1188 1124 961 1124Q738 1124 597 1005T455 700Q455 514 594 393T952 272Q1060 272 1160 300T1458 426Z"  />
<glyph unicode="D" horiz-adv-x="1642" d="M154 1397H770Q1127 1397 1334 1202T1542 696Q1542 371 1332 186T731 0H154V1397ZM502 1141V256H729Q950 256 1067 377T1184 698Q1184 904 1066 1022T725 1141H502Z"  />
<glyph unicode="E" horiz-adv-x="1300" d="M1190 256V0H160V1397H1176V1141H508V848H1145V592H508V256H1190Z"  />
<glyph unicode="F" horiz-adv-x="1237" d="M1118 1397V1141H504V829H1118V573H504V0H156V1397H1118Z"  />
<glyph unicode="G" horiz-adv-x="1665" d="M1489 1300V995Q1222 1124 967 1124Q721 1124 588 1000T455 684Q455 500 588 386T938 272Q1053 272 1169 322V485H967V741H1518V170Q1435 87 1266 35T930 -18Q565 -18 331 183T96 696Q96 1014 330 1214T938 1415Q1246 1415 1489 1300Z"  />
<glyph unicode="H" horiz-adv-x="1706" d="M1550 1397V0H1202V565H506V0H158V1397H506V836H1202V1397H1550Z"  />
<glyph unicode="I" horiz-adv-x="682" d="M516 1397V0H168V1397H516Z"  />
<glyph unicode="J" horiz-adv-x="682" d="M530 1397V129Q530 -408 36 -408Q-11 -408 -66 -403V-129Q-38 -134 -13 -134Q182 -134 182 123V1397H530Z"  />
<glyph unicode="K" horiz-adv-x="1473" d="M1329 1397L874 741L1491 0H1055L502 655V0H154V1397H502V768L946 1397H1329Z"  />
<glyph unicode="L" horiz-adv-x="1260" d="M1221 256V0H156V1397H504V256H1221Z"  />
<glyph unicode="M" horiz-adv-x="1812" d="M907 879L1356 1397H1659V0H1311V872L934 434H881L504 872V0H156V1397H459L907 879Z"  />
<glyph unicode="N" horiz-adv-x="1729" d="M1571 1397V0H1278L506 895V0H158V1397H477L1223 543V1397H1571Z"  />
<glyph unicode="O" horiz-adv-x="1792" d="M897 1415Q1254 1415 1475 1200T1696 698Q1696 408 1472 195T897 -18Q542 -18 319 194T96 698Q96 985 317 1200T897 1415ZM897 272Q1095 272 1216 389T1337 698Q1337 890 1216 1007T897 1124Q698 1124 577 1007T455 698Q455 507 576 390T897 272Z"  />
<glyph unicode="P" horiz-adv-x="1343" d="M170 1397H793Q1005 1397 1130 1274T1255 983Q1255 809 1132 685T795 561H518V0H170V1397ZM518 1141V817H680Q897 817 897 979Q897 1070 839 1105T641 1141H518Z"  />
<glyph unicode="Q" horiz-adv-x="1792" d="M1694 -61L1716 -90L1444 -322Q1332 -314 1212 -279Q1099 -246 983 -191Q873 -138 765 -67Q685 -14 575 26Q484 59 400 119Q313 181 247 265Q176 354 138 457Q96 570 96 690Q96 980 323 1197T901 1415Q1256 1415 1477 1198T1698 702Q1698 476 1558 287T1178 23Q1360 -81 1558 -81Q1635 -81 1694 -61ZM897 1124Q698 1124 577 1006T455 694Q455 502 576 384T897 266Q1093 266 1216 382T1339 694Q1339 891 1215 1007T897 1124Z"  />
<glyph unicode="R" horiz-adv-x="1386" d="M156 1397H780Q983 1397 1110 1280T1237 995Q1237 764 997 653Q1103 606 1197 396T1380 0H997Q963 69 879 263T734 512T604 567H504V0H156V1397ZM504 1141V823H688Q776 823 827 864T879 983Q879 1141 680 1141H504Z"  />
<glyph unicode="S" horiz-adv-x="1237" d="M1104 1307V1034Q826 1159 661 1159Q567 1159 512 1128T456 1044Q456 1004 496 968T691 875T939 769T1099 631T1167 406Q1167 212 1020 97T631 -18Q371 -18 127 117V418Q267 324 375 281T604 238Q809 238 809 367Q809 411 768 450T571 545T323 649T165 786T98 1014Q98 1194 243 1304T631 1415Q855 1415 1104 1307Z"  />
<glyph unicode="T" horiz-adv-x="1473" d="M1417 1397V1141H911V0H563V1141H57V1397H1417Z"  />
<glyph unicode="U" horiz-adv-x="1686" d="M1192 1397H1540V604Q1540 298 1359 140T842 -18Q510 -18 327 142T143 602V1397H492V594Q492 448 587 360T838 272Q999 272 1095 362T1192 618V1397Z"  />
<glyph unicode="V" horiz-adv-x="1473" d="M1473 1397L827 -18H676L0 1397H379L748 600L1098 1397H1473Z"  />
<glyph unicode="W" horiz-adv-x="2390" d="M1194 893L762 -18H612L-2 1397H367L696 625L1055 1397H1335L1694 625L2021 1397H2390L1778 -18H1628L1194 893Z"  />
<glyph unicode="X" horiz-adv-x="1665" d="M1595 1397L1049 723L1655 0H1204L825 461L453 0H8L600 723L41 1397H492L825 985L1153 1397H1595Z"  />
<glyph unicode="Y" horiz-adv-x="1450" d="M551 0V653L0 1397H422L725 958L1030 1397H1450L899 653V0H551Z"  />
<glyph unicode="Z" horiz-adv-x="1430" d="M1364 1397L602 256H1364V0H8L776 1141H61V1397H1364Z"  />
<glyph unicode="[" horiz-adv-x="897" d="M858 1397V1174H469V-229H858V-453H172V1397H858Z"  />
<glyph unicode="\" horiz-adv-x="575" d="M571 -18H365L14 1415H225L571 -18Z"  />
<glyph unicode="]" horiz-adv-x="897" d="M39 -453V-229H428V1174H39V1397H725V-453H39Z"  />
<glyph unicode="^" horiz-adv-x="1196" d="M115 598L492 1397H713L1079 598H795L598 1087L401 598H115Z"  />
<glyph unicode="_" horiz-adv-x="1024" d="M-12 -154H1036V-256H-12V-154Z"  />
<glyph unicode="`" horiz-adv-x="682" d="M16 1384H354L506 1085H354L16 1384Z"  />
<glyph unicode="a" horiz-adv-x="1087" d="M1087 233V68Q939 -18 809 -18Q669 -18 643 88Q488 -18 332 -18Q222 -18 145 51T68 213Q68 336 147 411T629 606Q639 764 465 764Q276 764 117 606V848Q303 963 526 963Q926 963 926 676V246Q926 180 975 180Q1012 180 1087 233ZM629 229V457Q480 405 425 364T369 258Q369 217 397 188T465 158Q549 158 629 229Z"  />
<glyph unicode="b" horiz-adv-x="1194" d="M416 1397V891Q533 963 659 963Q863 963 991 827T1120 475Q1120 258 997 120T680 -18Q540 -18 416 72V0H119V1397H416ZM416 698V260Q506 180 592 180Q698 180 758 259T819 479Q819 615 756 689T588 764Q507 764 416 698Z"  />
<glyph unicode="c" horiz-adv-x="1024" d="M948 258V45Q774 -18 629 -18Q380 -18 231 115T82 469Q82 684 232 823T616 963Q766 963 934 901V680Q811 743 692 743Q559 743 479 669T399 471Q399 346 477 270T682 193Q776 193 948 258Z"  />
<glyph unicode="d" horiz-adv-x="1194" d="M1073 1397V0H776V76Q662 -18 514 -18Q325 -18 199 122T72 473Q72 689 200 826T530 963Q655 963 776 903V1397H1073ZM776 258V709Q695 764 610 764Q498 764 436 686T373 467Q373 337 435 259T600 180Q691 180 776 258Z"  />
<glyph unicode="e" horiz-adv-x="1130" d="M1044 293V106Q874 -18 623 -18Q374 -18 225 115T76 469Q76 685 216 824T573 963Q791 963 930 817T1061 424H383Q392 296 474 227T694 158Q861 158 1044 293ZM389 580H799Q775 786 594 786Q411 786 389 580Z"  />
<glyph unicode="f" horiz-adv-x="618" d="M463 944H598V741H463V0H166V741H31V944H166V991Q166 1190 278 1302T580 1415Q626 1415 760 1397V1157Q667 1169 627 1169Q463 1169 463 1004V944Z"  />
<glyph unicode="g" horiz-adv-x="1110" d="M1085 944V745H950Q997 665 997 588Q997 478 915 385T673 275T491 242T469 201Q469 176 497 161T717 129T985 28T1061 -154Q1061 -309 933 -390T561 -471Q313 -471 185 -396T57 -197Q57 -25 309 43Q195 77 195 166Q195 270 367 309Q252 329 177 409T102 600Q102 736 210 840T524 944H1085ZM551 768Q478 768 429 718T379 596Q379 527 430 477T551 426Q621 426 671 479T721 606Q721 673 673 720T551 768ZM575 -295Q670 -295 729 -260T788 -176Q788 -72 557 -72Q452 -72 392 -102T332 -184Q332 -295 575 -295Z"  />
<glyph unicode="h" horiz-adv-x="1194" d="M424 1397V805H428Q552 963 727 963Q878 963 975 868T1073 602V0H776V539Q776 745 623 745Q522 745 424 602V0H127V1397H424Z"  />
<glyph unicode="i" horiz-adv-x="555" d="M113 1251Q113 1319 161 1367T276 1415Q344 1415 392 1367T440 1251Q440 1184 392 1136T276 1087Q209 1087 161 1135T113 1251ZM426 944V0H129V944H426Z"  />
<glyph unicode="j" horiz-adv-x="555" d="M119 1251Q119 1319 167 1367T283 1415Q350 1415 398 1367T446 1251Q446 1184 398 1136T283 1087Q215 1087 167 1135T119 1251ZM432 944V-27Q432 -221 336 -337T76 -471L-18 -203Q135 -180 135 45V944H432Z"  />
<glyph unicode="k" horiz-adv-x="1130" d="M426 1397V477H430L797 944H1145L776 477L1161 0H797L430 465H426V0H129V1397H426Z"  />
<glyph unicode="l" horiz-adv-x="555" d="M426 1397V0H129V1397H426Z"  />
<glyph unicode="m" horiz-adv-x="1962" d="M426 944V823Q577 963 754 963Q997 963 1094 762Q1265 963 1466 963Q1629 963 1732 864T1835 606V0H1538V553Q1538 653 1492 708T1364 764Q1234 764 1130 604V0H834V559Q834 658 785 711T653 764Q536 764 426 633V0H129V944H426Z"  />
<glyph unicode="n" horiz-adv-x="1194" d="M420 944V809Q551 963 727 963Q874 963 972 869T1071 600V0H774V575Q774 764 627 764Q522 764 420 608V0H123V944H420Z"  />
<glyph unicode="o" horiz-adv-x="1217" d="M610 963Q832 963 986 833T1141 471Q1141 238 984 110T610 -18Q375 -18 226 118T76 473Q76 695 228 829T610 963ZM610 158Q823 158 823 479Q823 786 610 786Q508 786 451 705T393 473Q393 158 610 158Z"  />
<glyph unicode="p" horiz-adv-x="1194" d="M414 944V862Q533 963 684 963Q868 963 995 824T1122 483Q1122 256 995 119T657 -18Q527 -18 414 47V-471H117V944H414ZM414 676V242Q498 180 586 180Q694 180 757 257T821 467Q821 602 763 677T598 752Q509 752 414 676Z"  />
<glyph unicode="q" horiz-adv-x="1194" d="M778 944H1075V-471H778V47Q668 -18 535 -18Q327 -18 200 120T72 483Q72 688 197 825T510 963Q661 963 778 862V944ZM778 242V676Q686 752 594 752Q489 752 431 678T373 467Q373 334 435 257T606 180Q695 180 778 242Z"  />
<glyph unicode="r" horiz-adv-x="918" d="M428 944V674H432Q561 963 733 963Q815 963 930 877L848 614Q738 684 672 684Q569 684 499 557T428 408V0H131V944H428Z"  />
<glyph unicode="s" horiz-adv-x="874" d="M772 893V682Q602 786 457 786Q350 786 350 713Q350 694 372 676T545 598T757 460T819 289Q819 142 719 62T434 -18Q244 -18 96 51V260Q278 180 401 180Q545 180 545 250Q545 277 519 301T340 384T132 514T76 672Q76 801 183 882T467 963Q636 963 772 893Z"  />
<glyph unicode="t" horiz-adv-x="831" d="M801 944V741H457V352Q457 282 495 242T602 201Q694 201 801 256V41Q659 -18 526 -18Q352 -18 256 72T160 336V741H25V799L420 1241H457V944H801Z"  />
<glyph unicode="u" horiz-adv-x="1194" d="M774 0V135Q643 -18 469 -18Q315 -18 219 77T123 340V944H420V360Q420 180 569 180Q653 180 712 245T772 342V944H1071V0H774Z"  />
<glyph unicode="v" horiz-adv-x="1044" d="M440 -18L4 944H322L522 424L725 944H1040L606 -18H440Z"  />
<glyph unicode="w" horiz-adv-x="1599" d="M801 496L563 -18H424L-2 944H301L500 424L711 944H891L1100 424L1298 944H1602L1178 -18H1036L801 496Z"  />
<glyph unicode="x" horiz-adv-x="1130" d="M1096 944L723 483L1124 0H780L557 293L342 0H8L393 483L8 944H354L557 672L750 944H1096Z"  />
<glyph unicode="y" horiz-adv-x="1044" d="M1042 944L410 -453H94L371 154L2 944H319L518 459L731 944H1042Z"  />
<glyph unicode="z" horiz-adv-x="1067" d="M86 944H1008L524 203H1008V0H39L524 741H86V944Z"  />
<glyph unicode="{" horiz-adv-x="788" d="M59 643Q170 643 224 710T279 948V1110Q279 1303 367 1393T653 1483H743V1243H731Q596 1243 567 1209T537 1016Q537 814 507 711T362 526Q477 446 507 343T537 37Q537 -121 566 -155T731 -190H743V-430H653Q456 -430 368 -340T279 -57V104Q279 275 225 342T59 410V643Z"  />
<glyph unicode="|" horiz-adv-x="575" d="M176 -453V1397H399V-453H176Z"  />
<glyph unicode="}" horiz-adv-x="788" d="M729 410Q618 409 564 342T510 104V-57Q510 -250 422 -340T135 -430H45V-190H57Q193 -190 222 -156T252 37Q252 239 282 342T426 526Q312 607 282 710T252 1016Q252 1174 223 1208T57 1243H45V1483H135Q333 1483 421 1393T510 1110V948Q510 778 564 711T729 643V410Z"  />
<glyph unicode="~" horiz-adv-x="1196" d="M33 358V627Q210 774 360 774Q451 774 619 694T862 614Q987 614 1161 766V500Q1096 436 1004 394T838 352Q749 352 576 433T344 514Q216 514 33 358Z"  />
<glyph unicode="&#xA0;" horiz-adv-x="569" />
<glyph unicode="&#xA1;" horiz-adv-x="555" d="M455 784Q455 711 403 659T276 606Q203 606 151 658T98 784Q98 858 150 910T276 963Q350 963 402 911T455 784ZM106 -250Q106 -110 153 164T219 480T276 522Q318 522 333 488T398 193T449 -250Q449 -471 276 -471Q106 -471 106 -250Z"  />
<glyph unicode="&#xA2;" horiz-adv-x="1024" d="M965 1294L852 932Q907 915 932 903V680Q867 716 791 737L621 201Q650 197 681 197Q810 197 946 264V45Q789 -18 553 -18L436 -387H291L414 0Q84 112 84 465Q84 681 231 821T618 962Q664 962 713 956L819 1294H965ZM492 254L647 743Q530 734 462 658T393 471Q393 334 492 254Z"  />
<glyph unicode="&#xA3;" horiz-adv-x="1067" d="M688 809V565H489L436 299Q468 309 500 309Q564 309 659 287T817 264Q909 264 983 299V23Q897 -18 801 -18Q768 -18 637 6T416 31Q272 31 96 -18Q111 195 203 565H111V809H268Q374 1186 513 1300T800 1415Q825 1415 850 1411L969 1143Q916 1155 870 1155Q635 1155 557 809H688Z"  />
<glyph unicode="&#xA4;" horiz-adv-x="1130" d="M780 313Q686 256 565 256Q447 256 352 311L219 178L45 352L178 485Q123 575 123 700Q123 812 178 915L45 1049L215 1219L346 1087Q463 1143 565 1143Q680 1143 780 1087L913 1221L1087 1047L954 913Q1010 815 1010 700Q1010 591 952 481L1085 348L915 178L780 313ZM770 700Q770 784 710 843T565 903Q481 903 422 844T362 700Q362 616 421 556T565 496Q649 496 709 556T770 700Z"  />
<glyph unicode="&#xA5;" horiz-adv-x="1130" d="M422 272H51V496H422V614H51V838H311L2 1466H311L565 899L821 1466H1130L815 838H1079V614H705V496H1079V272H705V0H422V272Z"  />
<glyph unicode="&#xA6;" horiz-adv-x="575" d="M176 700V1397H399V700H176ZM176 -453V360H399V-453H176Z"  />
<glyph unicode="&#xA7;" horiz-adv-x="1067" d="M231 891Q172 974 154 1014T135 1106Q135 1248 246 1331T547 1415Q728 1415 828 1353T928 1192Q928 1129 884 1085T776 1040Q681 1040 648 1149Q635 1195 615 1217T543 1239Q492 1239 458 1210T424 1137Q424 1104 456 1065T679 897T942 653T1014 422Q1014 310 971 227T831 51Q926 -70 926 -180Q926 -315 820 -393T528 -471Q358 -471 249 -408T139 -250Q139 -192 185 -147T291 -102Q394 -102 425 -222Q435 -261 452 -278T522 -295Q574 -295 606 -268T639 -199Q639 -159 604 -114T377 59T119 295T51 512Q51 714 231 891ZM383 756Q313 673 313 592Q313 532 358 466T684 190Q754 265 754 346Q754 463 620 569L383 756Z"  />
<glyph unicode="&#xA8;" horiz-adv-x="682" d="M579 1411Q648 1411 695 1364T743 1248Q743 1179 696 1131T579 1083Q511 1083 464 1131T416 1248Q416 1316 463 1363T579 1411ZM102 1411Q171 1412 218 1364T266 1248Q266 1179 219 1131T102 1083Q34 1083 -13 1131T-61 1248Q-61 1316 -14 1363T102 1411Z"  />
<glyph unicode="&#xA9;" horiz-adv-x="1516" d="M758 1415Q1076 1415 1300 1191T1524 649Q1524 331 1300 107T758 -117Q439 -117 216 106T-8 649Q-8 967 215 1191T758 1415ZM758 1263Q502 1263 323 1084T143 649Q143 393 322 213T758 33Q1013 33 1193 213T1374 649Q1374 905 1194 1084T758 1263ZM942 536L1104 481Q1023 223 768 223Q589 223 485 338T381 643Q381 840 484 957T770 1075Q1018 1075 1104 831L942 792Q890 932 764 932Q557 932 557 649Q557 519 608 442T756 364Q893 364 942 536Z"  />
<glyph unicode="&#xAA;" horiz-adv-x="725" d="M723 995V879Q621 823 532 823Q441 823 418 879Q323 823 225 823Q148 823 97 867T45 977Q45 1039 103 1089T406 1202Q406 1286 313 1286Q185 1286 78 1176V1343Q203 1415 352 1415Q477 1415 549 1371T621 1239V995Q621 958 639 958Q663 958 723 995ZM406 977V1098Q319 1070 291 1050T262 995Q262 942 313 942Q360 942 406 977Z"  />
<glyph unicode="&#xAB;" horiz-adv-x="1217" d="M868 469L1194 14H901L571 469L901 924H1194L868 469ZM315 469L641 14H348L18 469L348 924H641L315 469Z"  />
<glyph unicode="&#xAC;" horiz-adv-x="1196" d="M846 238V674H86V936H1108V238H846Z"  />
<glyph unicode="&#xAD;" horiz-adv-x="683" d="M608 611V337H75V611H608Z"  />
<glyph unicode="&#xAE;" horiz-adv-x="1516" d="M758 1415Q1076 1415 1300 1191T1524 649Q1524 331 1300 107T758 -117Q439 -117 216 106T-8 649Q-8 967 215 1191T758 1415ZM758 1263Q502 1263 323 1084T143 649Q143 393 322 213T758 33Q1013 33 1193 213T1374 649Q1374 905 1194 1084T758 1263ZM1118 239H915L850 373Q817 440 774 493T701 559T606 573H575V239H412V1053H813Q931 1053 1000 993T1069 825Q1069 630 850 598V594Q900 576 931 543T1024 403L1118 239ZM575 702H745Q895 702 895 815Q895 926 727 926H575V702Z"  />
<glyph unicode="&#xAF;" horiz-adv-x="1024" d="M-12 1600H1036V1498H-12V1600Z"  />
<glyph unicode="&#xB0;" horiz-adv-x="811" d="M86 1171Q86 1303 180 1397T406 1491Q537 1491 631 1397T725 1171Q725 1040 631 946T406 852Q274 852 180 946T86 1171ZM549 1171Q549 1231 507 1273T406 1315Q346 1315 304 1273T262 1171Q262 1112 304 1070T406 1028Q465 1028 507 1070T549 1171Z"  />
<glyph unicode="&#xB1;" horiz-adv-x="1196" d="M86 737V999H467V1380H729V999H1110V737H729V356H467V737H86ZM86 0V262H1110V0H86Z"  />
<glyph unicode="&#xB2;" horiz-adv-x="682" d="M637 836V680H68V707Q245 903 316 1006T387 1178Q387 1219 359 1246T289 1274Q200 1274 78 1169V1343Q207 1415 319 1415Q447 1415 520 1359T594 1208Q594 1082 377 836H637Z"  />
<glyph unicode="&#xB3;" horiz-adv-x="682" d="M242 987V1124Q354 1135 354 1206Q354 1240 325 1262T248 1284Q182 1284 86 1239V1380Q175 1415 287 1415Q409 1415 486 1365T563 1235Q563 1130 446 1069Q586 1014 586 887Q586 791 501 731T276 670Q184 670 66 719V874Q169 809 256 809Q307 809 338 832T369 893Q369 978 242 987Z"  />
<glyph unicode="&#xB4;" horiz-adv-x="682" d="M668 1384L330 1085H178L330 1384H668Z"  />
<glyph unicode="&#xB5;" horiz-adv-x="1260" d="M139 944H436V483Q436 180 625 180Q715 180 768 251T821 446V944H1118V0H842V123H838Q814 55 758 19T635 -18Q499 -18 440 115H436V-360H139V944Z"  />
<glyph unicode="&#xB6;" horiz-adv-x="1130" d="M635 -473H391V573Q206 588 102 694T-2 979Q-2 1175 117 1285T444 1396H1128V1134H1016V-473H772V1134H635V-473Z"  />
<glyph unicode="&#xB7;" horiz-adv-x="683" d="M898 710Q898 643 850 595T734 546Q666 546 618 594T569 710Q569 778 617 826T734 875Q801 875 849 827T898 710Z"  />
<glyph unicode="&#xB8;" horiz-adv-x="682" d="M479 16L453 -47Q580 -93 580 -197Q580 -274 521 -320T356 -367Q257 -367 205 -348V-244Q360 -249 360 -180Q360 -123 276 -123L356 16H479Z"  />
<glyph unicode="&#xB9;" horiz-adv-x="682" d="M449 1415V680H236V1415H449Z"  />
<glyph unicode="&#xBA;" horiz-adv-x="811" d="M408 1415Q561 1415 660 1331T760 1122Q760 991 662 907T408 823Q253 823 153 906T53 1116Q53 1244 154 1329T408 1415ZM410 944Q530 944 530 1128Q530 1294 403 1294Q283 1294 283 1114Q283 944 410 944Z"  />
<glyph unicode="&#xBB;" horiz-adv-x="1217" d="M899 469L573 924H866L1196 469L866 14H573L899 469ZM350 469L25 924H317L647 469L317 14H25L350 469Z"  />
<glyph unicode="&#xBC;" horiz-adv-x="1835" d="M455 1415V680H242V1415H455ZM1378 1415L399 -55H207L1186 1415H1378ZM1503 737V303H1561V176H1503V0H1296V176H977V297L1370 737H1503ZM1296 463L1151 303H1296V463Z"  />
<glyph unicode="&#xBD;" horiz-adv-x="1835" d="M1378 1415L399 -55H207L1186 1415H1378ZM455 1415V680H242V1415H455ZM1669 156V0H1100V27Q1277 223 1348 326T1419 498Q1419 539 1392 566T1321 594Q1232 594 1110 489V664Q1239 735 1352 735Q1479 735 1552 679T1626 528Q1626 402 1409 156H1669Z"  />
<glyph unicode="&#xBE;" horiz-adv-x="1835" d="M248 987V1124Q360 1135 360 1206Q360 1240 331 1262T254 1284Q188 1284 92 1239V1380Q181 1415 293 1415Q415 1415 492 1365T569 1235Q569 1130 453 1069Q592 1014 592 887Q592 791 507 731T283 670Q191 670 72 719V874Q176 809 262 809Q313 809 344 832T375 893Q375 978 248 987ZM1425 1415L446 -55H254L1233 1415H1425ZM1550 737V303H1608V176H1550V0H1343V176H1024V297L1417 737H1550ZM1343 463L1198 303H1343V463Z"  />
<glyph unicode="&#xBF;" horiz-adv-x="768" d="M623 784Q623 711 571 659T444 606Q371 606 319 658T266 784Q266 858 318 910T444 963Q518 963 570 911T623 784ZM717 -178L666 -430Q548 -471 428 -471Q272 -471 181 -393T90 -184Q90 -109 118 -29T244 174T364 355T387 467V492Q387 513 399 518T451 524Q488 524 503 508T540 421T561 295Q561 183 467 22Q401 -90 401 -145Q401 -250 522 -250Q613 -250 698 -178H717Z"  />
<glyph unicode="&#xC0;" horiz-adv-x="1599" d="M973 1397L1593 0H1219L1104 276H479L375 0H6L569 1397H973ZM1001 520L776 1063L571 520H1001ZM475 1831H813L965 1532H813L475 1831Z"  />
<glyph unicode="&#xC1;" horiz-adv-x="1599" d="M973 1397L1593 0H1219L1104 276H479L375 0H6L569 1397H973ZM1001 520L776 1063L571 520H1001ZM1127 1831L789 1532H637L789 1831H1127Z"  />
<glyph unicode="&#xC2;" horiz-adv-x="1599" d="M973 1397L1593 0H1219L1104 276H479L375 0H6L569 1397H973ZM1001 520L776 1063L571 520H1001ZM940 1875L1143 1516H961L801 1695L637 1516H457L660 1875H940Z"  />
<glyph unicode="&#xC3;" horiz-adv-x="1599" d="M973 1397L1593 0H1219L1104 276H479L375 0H6L569 1397H973ZM1001 520L776 1063L571 520H1001ZM1059 1821H1198Q1177 1512 959 1512Q896 1512 782 1567T629 1623Q551 1623 537 1516H402Q413 1663 478 1742T645 1821Q711 1821 819 1766T969 1711Q1041 1711 1059 1821Z"  />
<glyph unicode="&#xC4;" horiz-adv-x="1599" d="M973 1397L1593 0H1219L1104 276H479L375 0H6L569 1397H973ZM1001 520L776 1063L571 520H1001ZM1038 1858Q1107 1858 1154 1811T1202 1695Q1202 1626 1155 1578T1038 1530Q970 1530 923 1578T875 1695Q875 1763 922 1810T1038 1858ZM561 1858Q630 1859 677 1811T725 1695Q725 1626 678 1578T561 1530Q493 1530 446 1578T398 1695Q398 1763 445 1810T561 1858Z"  />
<glyph unicode="&#xC5;" horiz-adv-x="1599" d="M973 1397L1593 0H1219L1104 276H479L375 0H6L569 1397H595Q562 1447 562 1510Q562 1596 623 1656T771 1717Q856 1717 917 1656T978 1510Q978 1447 945 1397H973ZM771 1620Q724 1620 692 1589T660 1510Q660 1463 692 1430T771 1397Q818 1397 850 1430T883 1510Q883 1556 850 1588T771 1620ZM1001 520L776 1063L571 520H1001Z"  />
<glyph unicode="&#xC6;" horiz-adv-x="2198" d="M2064 1397V1141H1413V836H2036V580H1413V256H2083V0H1065V580H692L346 0H-12L823 1397H2064ZM846 836H1065V1214L846 836Z"  />
<glyph unicode="&#xC7;" horiz-adv-x="1579" d="M1458 426V121Q1180 -26 875 -17L863 -47Q990 -93 990 -197Q990 -278 929 -322T766 -367Q667 -367 615 -348V-244Q770 -249 770 -180Q770 -123 686 -123L752 -8Q460 31 278 226T96 694Q96 1016 339 1215T936 1415Q1235 1415 1442 1292V981Q1188 1124 961 1124Q745 1124 600 1008T455 700Q455 508 597 390T952 272Q1156 272 1458 426Z"  />
<glyph unicode="&#xC8;" horiz-adv-x="1300" d="M1190 256V0H160V1397H1176V1141H508V848H1145V592H508V256H1190ZM326 1831H664L816 1532H664L326 1831Z"  />
<glyph unicode="&#xC9;" horiz-adv-x="1300" d="M1190 256V0H160V1397H1176V1141H508V848H1145V592H508V256H1190ZM977 1831L639 1532H487L639 1831H977Z"  />
<glyph unicode="&#xCA;" horiz-adv-x="1300" d="M1190 256V0H160V1397H1176V1141H508V848H1145V592H508V256H1190ZM790 1875L993 1516H811L651 1695L487 1516H307L510 1875H790Z"  />
<glyph unicode="&#xCB;" horiz-adv-x="1300" d="M1190 256V0H160V1397H1176V1141H508V848H1145V592H508V256H1190ZM888 1858Q957 1858 1004 1811T1052 1695Q1052 1626 1005 1578T888 1530Q820 1530 773 1578T725 1695Q725 1763 772 1810T888 1858ZM411 1858Q480 1859 527 1811T575 1695Q575 1626 528 1578T411 1530Q343 1530 296 1578T248 1695Q248 1763 295 1810T411 1858Z"  />
<glyph unicode="&#xCC;" horiz-adv-x="682" d="M516 1397V0H168V1397H516ZM16 1831H354L506 1532H354L16 1831Z"  />
<glyph unicode="&#xCD;" horiz-adv-x="682" d="M516 1397V0H168V1397H516ZM668 1831L330 1532H178L330 1831H668Z"  />
<glyph unicode="&#xCE;" horiz-adv-x="682" d="M516 1397V0H168V1397H516ZM481 1875L684 1516H502L342 1695L178 1516H-2L201 1875H481Z"  />
<glyph unicode="&#xCF;" horiz-adv-x="682" d="M516 1397V0H168V1397H516ZM579 1858Q648 1858 695 1811T743 1695Q743 1626 696 1578T579 1530Q511 1530 464 1578T416 1695Q416 1763 463 1810T579 1858ZM102 1858Q171 1859 218 1811T266 1695Q266 1626 219 1578T102 1530Q34 1530 -13 1578T-61 1695Q-61 1763 -14 1810T102 1858Z"  />
<glyph unicode="&#xD0;" horiz-adv-x="1642" d="M154 1397H770Q1127 1397 1334 1202T1542 696Q1542 371 1332 186T731 0H154V606H-16V793H154V1397ZM502 1141V793H813V606H502V256H729Q950 256 1067 377T1184 698Q1184 904 1066 1022T725 1141H502Z"  />
<glyph unicode="&#xD1;" horiz-adv-x="1729" d="M1571 1397V0H1278L506 895V0H158V1397H477L1223 543V1397H1571ZM1125 1821H1264Q1243 1512 1025 1512Q962 1512 848 1567T695 1623Q617 1623 603 1516H468Q479 1663 544 1742T711 1821Q777 1821 885 1766T1035 1711Q1107 1711 1125 1821Z"  />
<glyph unicode="&#xD2;" horiz-adv-x="1792" d="M897 1415Q1254 1415 1475 1200T1696 698Q1696 408 1472 195T897 -18Q542 -18 319 194T96 698Q96 985 317 1200T897 1415ZM897 272Q1095 272 1216 389T1337 698Q1337 890 1216 1007T897 1124Q698 1124 577 1007T455 698Q455 507 576 390T897 272ZM571 1831H909L1061 1532H909L571 1831Z"  />
<glyph unicode="&#xD3;" horiz-adv-x="1792" d="M897 1415Q1254 1415 1475 1200T1696 698Q1696 408 1472 195T897 -18Q542 -18 319 194T96 698Q96 985 317 1200T897 1415ZM897 272Q1095 272 1216 389T1337 698Q1337 890 1216 1007T897 1124Q698 1124 577 1007T455 698Q455 507 576 390T897 272ZM1223 1831L885 1532H733L885 1831H1223Z"  />
<glyph unicode="&#xD4;" horiz-adv-x="1792" d="M897 1415Q1254 1415 1475 1200T1696 698Q1696 408 1472 195T897 -18Q542 -18 319 194T96 698Q96 985 317 1200T897 1415ZM897 272Q1095 272 1216 389T1337 698Q1337 890 1216 1007T897 1124Q698 1124 577 1007T455 698Q455 507 576 390T897 272ZM1036 1875L1239 1516H1057L897 1695L733 1516H553L756 1875H1036Z"  />
<glyph unicode="&#xD5;" horiz-adv-x="1792" d="M897 1415Q1254 1415 1475 1200T1696 698Q1696 408 1472 195T897 -18Q542 -18 319 194T96 698Q96 985 317 1200T897 1415ZM897 272Q1095 272 1216 389T1337 698Q1337 890 1216 1007T897 1124Q698 1124 577 1007T455 698Q455 507 576 390T897 272ZM1155 1821H1294Q1273 1512 1055 1512Q992 1512 878 1567T725 1623Q647 1623 633 1516H498Q509 1663 574 1742T741 1821Q807 1821 915 1766T1065 1711Q1137 1711 1155 1821Z"  />
<glyph unicode="&#xD6;" horiz-adv-x="1792" d="M897 1415Q1254 1415 1475 1200T1696 698Q1696 408 1472 195T897 -18Q542 -18 319 194T96 698Q96 985 317 1200T897 1415ZM897 272Q1095 272 1216 389T1337 698Q1337 890 1216 1007T897 1124Q698 1124 577 1007T455 698Q455 507 576 390T897 272ZM1134 1858Q1203 1858 1250 1811T1298 1695Q1298 1626 1251 1578T1134 1530Q1066 1530 1019 1578T971 1695Q971 1763 1018 1810T1134 1858ZM657 1858Q726 1859 773 1811T821 1695Q821 1626 774 1578T657 1530Q589 1530 542 1578T494 1695Q494 1763 541 1810T657 1858Z"  />
<glyph unicode="&#xD7;" horiz-adv-x="1196" d="M111 420L414 723L111 1026L295 1210L598 907L901 1210L1085 1026L782 723L1085 420L901 236L598 539L295 236L111 420Z"  />
<glyph unicode="&#xD8;" horiz-adv-x="1792" d="M403 125L178 -76L53 80L258 258Q96 456 96 698Q96 984 318 1199T899 1415Q1177 1415 1391 1270L1563 1425L1704 1284L1534 1137Q1696 941 1696 698Q1696 407 1473 195T899 -18Q621 -18 403 125ZM506 483L1151 1059Q1044 1124 899 1124Q700 1124 578 1007T455 698Q455 573 506 483ZM1286 915L643 338Q742 272 899 272Q1096 272 1216 389T1337 698Q1337 826 1286 915Z"  />
<glyph unicode="&#xD9;" horiz-adv-x="1686" d="M1192 1397H1540V604Q1540 298 1359 140T842 -18Q510 -18 327 142T143 602V1397H492V594Q492 448 587 360T838 272Q999 272 1095 362T1192 618V1397ZM518 1831H856L1008 1532H856L518 1831Z"  />
<glyph unicode="&#xDA;" horiz-adv-x="1686" d="M1192 1397H1540V604Q1540 298 1359 140T842 -18Q510 -18 327 142T143 602V1397H492V594Q492 448 587 360T838 272Q999 272 1095 362T1192 618V1397ZM1170 1831L832 1532H680L832 1831H1170Z"  />
<glyph unicode="&#xDB;" horiz-adv-x="1686" d="M1192 1397H1540V604Q1540 298 1359 140T842 -18Q510 -18 327 142T143 602V1397H492V594Q492 448 587 360T838 272Q999 272 1095 362T1192 618V1397ZM983 1875L1186 1516H1004L844 1695L680 1516H500L703 1875H983Z"  />
<glyph unicode="&#xDC;" horiz-adv-x="1686" d="M1192 1397H1540V604Q1540 298 1359 140T842 -18Q510 -18 327 142T143 602V1397H492V594Q492 448 587 360T838 272Q999 272 1095 362T1192 618V1397ZM1081 1858Q1150 1858 1197 1811T1245 1695Q1245 1626 1198 1578T1081 1530Q1013 1530 966 1578T918 1695Q918 1763 965 1810T1081 1858ZM604 1858Q673 1859 720 1811T768 1695Q768 1626 721 1578T604 1530Q536 1530 489 1578T441 1695Q441 1763 488 1810T604 1858Z"  />
<glyph unicode="&#xDD;" horiz-adv-x="1450" d="M551 0V653L0 1397H422L725 958L1030 1397H1450L899 653V0H551ZM1053 1831L715 1532H563L715 1831H1053Z"  />
<glyph unicode="&#xDE;" horiz-adv-x="1343" d="M170 1397H518V1116H793Q1004 1116 1129 993T1255 702Q1255 528 1132 405T795 281H518V0H170V1397ZM518 860V537H680Q897 537 897 698Q897 789 839 824T641 860H518Z"  />
<glyph unicode="&#xDF;" horiz-adv-x="1237" d="M133 0V975Q133 1189 255 1302T586 1415Q808 1415 940 1318T1073 1061Q1073 872 893 791Q1130 699 1130 410Q1130 220 1015 101T717 -18Q645 -18 578 0V190Q618 176 633 176Q722 176 775 249T829 446Q829 725 590 715V862Q772 855 772 1051Q772 1139 728 1189T604 1239Q430 1239 430 979V0H133Z"  />
<glyph unicode="&#xE0;" horiz-adv-x="1087" d="M1087 233V68Q939 -18 809 -18Q669 -18 643 88Q488 -18 332 -18Q222 -18 145 51T68 213Q68 336 147 411T629 606Q639 764 465 764Q276 764 117 606V848Q303 963 526 963Q926 963 926 676V246Q926 180 975 180Q1012 180 1087 233ZM629 229V457Q480 405 425 364T369 258Q369 217 397 188T465 158Q549 158 629 229ZM219 1384H557L709 1085H557L219 1384Z"  />
<glyph unicode="&#xE1;" horiz-adv-x="1087" d="M1087 233V68Q939 -18 809 -18Q669 -18 643 88Q488 -18 332 -18Q222 -18 145 51T68 213Q68 336 147 411T629 606Q639 764 465 764Q276 764 117 606V848Q303 963 526 963Q926 963 926 676V246Q926 180 975 180Q1012 180 1087 233ZM629 229V457Q480 405 425 364T369 258Q369 217 397 188T465 158Q549 158 629 229ZM871 1384L533 1085H381L533 1384H871Z"  />
<glyph unicode="&#xE2;" horiz-adv-x="1087" d="M1087 233V68Q939 -18 809 -18Q669 -18 643 88Q488 -18 332 -18Q222 -18 145 51T68 213Q68 336 147 411T629 606Q639 764 465 764Q276 764 117 606V848Q303 963 526 963Q926 963 926 676V246Q926 180 975 180Q1012 180 1087 233ZM629 229V457Q480 405 425 364T369 258Q369 217 397 188T465 158Q549 158 629 229ZM684 1428L887 1069H705L545 1248L381 1069H201L404 1428H684Z"  />
<glyph unicode="&#xE3;" horiz-adv-x="1087" d="M1087 233V68Q939 -18 809 -18Q669 -18 643 88Q488 -18 332 -18Q222 -18 145 51T68 213Q68 336 147 411T629 606Q639 764 465 764Q276 764 117 606V848Q303 963 526 963Q926 963 926 676V246Q926 180 975 180Q1012 180 1087 233ZM629 229V457Q480 405 425 364T369 258Q369 217 397 188T465 158Q549 158 629 229ZM803 1374H942Q921 1065 703 1065Q640 1065 526 1120T373 1176Q295 1176 281 1069H146Q157 1216 222 1295T389 1374Q455 1374 563 1319T713 1264Q785 1264 803 1374Z"  />
<glyph unicode="&#xE4;" horiz-adv-x="1087" d="M1087 233V68Q939 -18 809 -18Q669 -18 643 88Q488 -18 332 -18Q222 -18 145 51T68 213Q68 336 147 411T629 606Q639 764 465 764Q276 764 117 606V848Q303 963 526 963Q926 963 926 676V246Q926 180 975 180Q1012 180 1087 233ZM629 229V457Q480 405 425 364T369 258Q369 217 397 188T465 158Q549 158 629 229ZM782 1411Q851 1411 898 1364T946 1248Q946 1179 899 1131T782 1083Q714 1083 667 1131T619 1248Q619 1316 666 1363T782 1411ZM305 1411Q374 1412 421 1364T469 1248Q469 1179 422 1131T305 1083Q237 1083 190 1131T142 1248Q142 1316 189 1363T305 1411Z"  />
<glyph unicode="&#xE5;" horiz-adv-x="1087" d="M1087 233V68Q939 -18 809 -18Q669 -18 643 88Q488 -18 332 -18Q222 -18 145 51T68 213Q68 336 147 411T629 606Q639 764 465 764Q276 764 117 606V848Q303 963 526 963Q926 963 926 676V246Q926 180 975 180Q1012 180 1087 233ZM629 229V457Q480 405 425 364T369 258Q369 217 397 188T465 158Q549 158 629 229ZM336 1249Q336 1335 397 1395T545 1456Q631 1456 691 1396T752 1249Q752 1163 691 1102T545 1040Q459 1040 398 1102T336 1249ZM658 1249Q658 1295 625 1327T545 1360Q499 1360 467 1328T434 1249Q434 1203 466 1170T545 1137Q591 1137 624 1170T658 1249Z"  />
<glyph unicode="&#xE6;" horiz-adv-x="1599" d="M1518 305V111Q1345 -18 1108 -18Q871 -18 725 111Q558 -18 342 -18Q222 -18 148 49T74 217Q74 339 173 423T643 604Q650 677 603 720T475 764Q395 764 294 720T115 604V840Q325 963 504 963Q671 963 811 858Q928 963 1092 963Q1285 963 1415 813T1532 426H940Q934 301 998 230T1174 158Q1352 158 1518 305ZM940 582H1247Q1231 786 1090 786Q947 786 940 582ZM643 225V457Q375 383 375 256Q375 214 402 186T469 158Q538 158 643 225Z"  />
<glyph unicode="&#xE7;" horiz-adv-x="1024" d="M948 258V45Q778 -18 608 -18L596 -47Q723 -93 723 -197Q723 -274 664 -320T500 -367Q400 -367 348 -348V-244Q504 -249 504 -180Q504 -123 420 -123L487 -4Q294 32 188 158T82 469Q82 684 232 823T616 963Q766 963 934 901V680Q811 743 692 743Q559 743 479 669T399 471Q399 346 477 270T682 193Q776 193 948 258Z"  />
<glyph unicode="&#xE8;" horiz-adv-x="1130" d="M1044 293V106Q874 -18 623 -18Q374 -18 225 115T76 469Q76 685 216 824T573 963Q791 963 930 817T1061 424H383Q392 296 474 227T694 158Q861 158 1044 293ZM389 580H799Q775 786 594 786Q411 786 389 580ZM242 1384H580L732 1085H580L242 1384Z"  />
<glyph unicode="&#xE9;" horiz-adv-x="1130" d="M1044 293V106Q874 -18 623 -18Q374 -18 225 115T76 469Q76 685 216 824T573 963Q791 963 930 817T1061 424H383Q392 296 474 227T694 158Q861 158 1044 293ZM389 580H799Q775 786 594 786Q411 786 389 580ZM893 1384L555 1085H403L555 1384H893Z"  />
<glyph unicode="&#xEA;" horiz-adv-x="1130" d="M1044 293V106Q874 -18 623 -18Q374 -18 225 115T76 469Q76 685 216 824T573 963Q791 963 930 817T1061 424H383Q392 296 474 227T694 158Q861 158 1044 293ZM389 580H799Q775 786 594 786Q411 786 389 580ZM706 1428L909 1069H727L567 1248L403 1069H223L426 1428H706Z"  />
<glyph unicode="&#xEB;" horiz-adv-x="1130" d="M1044 293V106Q874 -18 623 -18Q374 -18 225 115T76 469Q76 685 216 824T573 963Q791 963 930 817T1061 424H383Q392 296 474 227T694 158Q861 158 1044 293ZM389 580H799Q775 786 594 786Q411 786 389 580ZM804 1411Q873 1411 920 1364T968 1248Q968 1179 921 1131T804 1083Q736 1083 689 1131T641 1248Q641 1316 688 1363T804 1411ZM327 1411Q396 1412 443 1364T491 1248Q491 1179 444 1131T327 1083Q259 1083 212 1131T164 1248Q164 1316 211 1363T327 1411Z"  />
<glyph unicode="&#xEC;" horiz-adv-x="555" d="M426 944V0H129V944H426ZM-47 1384H291L443 1085H291L-47 1384Z"  />
<glyph unicode="&#xED;" horiz-adv-x="555" d="M426 944V0H129V944H426ZM605 1384L267 1085H115L267 1384H605Z"  />
<glyph unicode="&#xEE;" horiz-adv-x="555" d="M426 944V0H129V944H426ZM418 1428L621 1069H439L279 1248L115 1069H-65L138 1428H418Z"  />
<glyph unicode="&#xEF;" horiz-adv-x="555" d="M426 944V0H129V944H426ZM517 1411Q586 1411 633 1364T681 1248Q681 1179 634 1131T517 1083Q449 1083 402 1131T354 1248Q354 1316 401 1363T517 1411ZM40 1411Q109 1412 156 1364T204 1248Q204 1179 157 1131T40 1083Q-28 1083 -75 1131T-123 1248Q-123 1316 -76 1363T40 1411Z"  />
<glyph unicode="&#xF0;" horiz-adv-x="1260" d="M1098 1288L893 1217Q1159 950 1159 553Q1159 274 1007 128T629 -18Q393 -18 244 118T94 473Q94 678 232 820T569 963Q689 963 797 889L801 891Q762 993 625 1120L328 1016L283 1139L508 1219Q449 1262 401 1284L588 1415Q693 1371 772 1315L1053 1415L1098 1288ZM629 158Q842 158 842 479Q842 786 629 786Q526 786 469 705T412 473Q412 158 629 158Z"  />
<glyph unicode="&#xF1;" horiz-adv-x="1194" d="M420 944V809Q551 963 727 963Q874 963 972 869T1071 600V0H774V575Q774 764 627 764Q522 764 420 608V0H123V944H420ZM856 1374H995Q974 1065 756 1065Q693 1065 579 1120T426 1176Q348 1176 334 1069H199Q210 1216 275 1295T442 1374Q508 1374 616 1319T766 1264Q838 1264 856 1374Z"  />
<glyph unicode="&#xF2;" horiz-adv-x="1217" d="M610 963Q832 963 986 833T1141 471Q1141 238 984 110T610 -18Q375 -18 226 118T76 473Q76 695 228 829T610 963ZM610 158Q823 158 823 479Q823 786 610 786Q508 786 451 705T393 473Q393 158 610 158ZM285 1384H623L775 1085H623L285 1384Z"  />
<glyph unicode="&#xF3;" horiz-adv-x="1217" d="M610 963Q832 963 986 833T1141 471Q1141 238 984 110T610 -18Q375 -18 226 118T76 473Q76 695 228 829T610 963ZM610 158Q823 158 823 479Q823 786 610 786Q508 786 451 705T393 473Q393 158 610 158ZM936 1384L598 1085H446L598 1384H936Z"  />
<glyph unicode="&#xF4;" horiz-adv-x="1217" d="M610 963Q832 963 986 833T1141 471Q1141 238 984 110T610 -18Q375 -18 226 118T76 473Q76 695 228 829T610 963ZM610 158Q823 158 823 479Q823 786 610 786Q508 786 451 705T393 473Q393 158 610 158ZM749 1428L952 1069H770L610 1248L446 1069H266L469 1428H749Z"  />
<glyph unicode="&#xF5;" horiz-adv-x="1217" d="M610 963Q832 963 986 833T1141 471Q1141 238 984 110T610 -18Q375 -18 226 118T76 473Q76 695 228 829T610 963ZM610 158Q823 158 823 479Q823 786 610 786Q508 786 451 705T393 473Q393 158 610 158ZM869 1374H1008Q987 1065 769 1065Q706 1065 592 1120T439 1176Q361 1176 347 1069H212Q223 1216 288 1295T455 1374Q521 1374 629 1319T779 1264Q851 1264 869 1374Z"  />
<glyph unicode="&#xF6;" horiz-adv-x="1217" d="M610 963Q832 963 986 833T1141 471Q1141 238 984 110T610 -18Q375 -18 226 118T76 473Q76 695 228 829T610 963ZM610 158Q823 158 823 479Q823 786 610 786Q508 786 451 705T393 473Q393 158 610 158ZM847 1411Q916 1411 963 1364T1011 1248Q1011 1179 964 1131T847 1083Q779 1083 732 1131T684 1248Q684 1316 731 1363T847 1411ZM370 1411Q439 1412 486 1364T534 1248Q534 1179 487 1131T370 1083Q302 1083 255 1131T207 1248Q207 1316 254 1363T370 1411Z"  />
<glyph unicode="&#xF7;" horiz-adv-x="1196" d="M449 1126Q449 1188 493 1232T598 1276Q659 1276 703 1232T748 1126Q748 1065 704 1021T598 977Q537 977 493 1021T449 1126ZM86 592V854H1110V592H86ZM449 319Q449 381 493 425T598 469Q659 469 703 425T748 319Q748 258 704 214T598 170Q537 170 493 214T449 319Z"  />
<glyph unicode="&#xF8;" horiz-adv-x="1217" d="M338 43L205 -111L100 -18L221 123Q76 262 76 473Q76 695 228 829T610 963Q757 963 881 903L1024 1069L1133 965L1006 815Q1141 687 1141 471Q1141 238 984 110T610 -18Q453 -18 338 43ZM406 340L743 739Q688 786 610 786Q508 786 451 705T393 473Q393 391 406 340ZM813 596L477 205Q528 158 610 158Q823 158 823 479Q823 548 813 596Z"  />
<glyph unicode="&#xF9;" horiz-adv-x="1194" d="M774 0V135Q643 -18 469 -18Q315 -18 219 77T123 340V944H420V360Q420 180 569 180Q653 180 712 245T772 342V944H1071V0H774ZM272 1384H610L762 1085H610L272 1384Z"  />
<glyph unicode="&#xFA;" horiz-adv-x="1194" d="M774 0V135Q643 -18 469 -18Q315 -18 219 77T123 340V944H420V360Q420 180 569 180Q653 180 712 245T772 342V944H1071V0H774ZM924 1384L586 1085H434L586 1384H924Z"  />
<glyph unicode="&#xFB;" horiz-adv-x="1194" d="M774 0V135Q643 -18 469 -18Q315 -18 219 77T123 340V944H420V360Q420 180 569 180Q653 180 712 245T772 342V944H1071V0H774ZM737 1428L940 1069H758L598 1248L434 1069H254L457 1428H737Z"  />
<glyph unicode="&#xFC;" horiz-adv-x="1194" d="M774 0V135Q643 -18 469 -18Q315 -18 219 77T123 340V944H420V360Q420 180 569 180Q653 180 712 245T772 342V944H1071V0H774ZM835 1411Q904 1411 951 1364T999 1248Q999 1179 952 1131T835 1083Q767 1083 720 1131T672 1248Q672 1316 719 1363T835 1411ZM358 1411Q427 1412 474 1364T522 1248Q522 1179 475 1131T358 1083Q290 1083 243 1131T195 1248Q195 1316 242 1363T358 1411Z"  />
<glyph unicode="&#xFD;" horiz-adv-x="1044" d="M1042 944L410 -453H94L371 154L2 944H319L518 459L731 944H1042ZM850 1384L512 1085H360L512 1384H850Z"  />
<glyph unicode="&#xFE;" horiz-adv-x="1194" d="M414 1397V862Q533 963 684 963Q868 963 995 824T1122 483Q1122 256 995 119T657 -18Q527 -18 414 47V-471H117V1397H414ZM414 676V242Q498 180 586 180Q694 180 757 257T821 467Q821 602 763 677T598 752Q509 752 414 676Z"  />
<glyph unicode="&#xFF;" horiz-adv-x="1044" d="M1042 944L410 -453H94L371 154L2 944H319L518 459L731 944H1042ZM761 1411Q830 1411 877 1364T925 1248Q925 1179 878 1131T761 1083Q693 1083 646 1131T598 1248Q598 1316 645 1363T761 1411ZM284 1411Q353 1412 400 1364T448 1248Q448 1179 401 1131T284 1083Q216 1083 169 1131T121 1248Q121 1316 168 1363T284 1411Z"  />
<glyph unicode="&#x100;" horiz-adv-x="1599" d="M973 1397L1593 0H1219L1104 276H479L375 0H6L569 1397H973ZM1001 520L776 1063L571 520H1001ZM1196 1794V1595H404V1794H1196Z"  />
<glyph unicode="&#x101;" horiz-adv-x="1087" d="M1087 233V68Q939 -18 809 -18Q669 -18 643 88Q488 -18 332 -18Q222 -18 145 51T68 213Q68 336 147 411T629 606Q639 764 465 764Q276 764 117 606V848Q303 963 526 963Q926 963 926 676V246Q926 180 975 180Q1012 180 1087 233ZM629 229V457Q480 405 425 364T369 258Q369 217 397 188T465 158Q549 158 629 229ZM941 1317V1118H149V1317H941Z"  />
<glyph unicode="&#x102;" horiz-adv-x="1599" d="M973 1397L1593 0H1219L1104 276H479L375 0H6L569 1397H973ZM1001 520L776 1063L571 520H1001ZM971 1924H1174Q1159 1786 1054 1680T805 1573Q662 1573 562 1664T426 1924H631Q673 1797 799 1797Q935 1797 971 1924Z"  />
<glyph unicode="&#x103;" horiz-adv-x="1087" d="M1087 233V68Q939 -18 809 -18Q669 -18 643 88Q488 -18 332 -18Q222 -18 145 51T68 213Q68 336 147 411T629 606Q639 764 465 764Q276 764 117 606V848Q303 963 526 963Q926 963 926 676V246Q926 180 975 180Q1012 180 1087 233ZM629 229V457Q480 405 425 364T369 258Q369 217 397 188T465 158Q549 158 629 229ZM715 1477H918Q903 1339 798 1233T549 1126Q406 1126 306 1217T170 1477H375Q417 1350 543 1350Q679 1350 715 1477Z"  />
<glyph unicode="&#x104;" horiz-adv-x="1599" d="M1595 0H1386Q1361 -62 1361 -96Q1361 -144 1391 -176T1469 -209Q1492 -209 1547 -190V-354Q1473 -385 1389 -385Q1291 -385 1236 -323T1181 -154Q1181 -68 1221 0L1104 276H479L375 0H6L571 1396H973L1595 0ZM1003 520L776 1061L571 520H1003Z"  />
<glyph unicode="&#x105;" horiz-adv-x="1088" d="M909 -5Q887 -60 887 -93Q887 -144 922 -172T1003 -201Q1026 -201 1074 -191V-354Q997 -386 916 -386Q816 -386 760 -324T704 -161Q704 -82 740 -10Q661 9 643 87Q489 -18 331 -18Q220 -18 144 51T67 229Q67 293 98 348T189 443T374 524L629 607Q629 684 594 725T466 766Q276 766 117 607V847Q304 962 529 962Q673 962 767 920T894 818T927 638V263Q927 220 938 204T974 188Q1009 188 1089 233V67Q1013 21 909 -5ZM629 457L563 431Q451 389 410 353T369 260Q369 214 399 187T463 159Q553 159 629 229V457Z"  />
<glyph unicode="&#x106;" horiz-adv-x="1579" d="M1458 426V121Q1196 -18 909 -18Q537 -18 317 187T96 694Q96 995 328 1205T936 1415Q1235 1415 1442 1292V981Q1188 1124 961 1124Q738 1124 597 1005T455 700Q455 514 594 393T952 272Q1060 272 1160 300T1458 426ZM1230 1831L892 1532H740L892 1831H1230Z"  />
<glyph unicode="&#x107;" horiz-adv-x="1024" d="M948 258V45Q774 -18 629 -18Q380 -18 231 115T82 469Q82 684 232 823T616 963Q766 963 934 901V680Q811 743 692 743Q559 743 479 669T399 471Q399 346 477 270T682 193Q776 193 948 258ZM904 1384L566 1085H414L566 1384H904Z"  />
<glyph unicode="&#x108;" horiz-adv-x="1579" d="M1458 426V121Q1196 -18 909 -18Q537 -18 317 187T96 694Q96 995 328 1205T936 1415Q1235 1415 1442 1292V981Q1188 1124 961 1124Q738 1124 597 1005T455 700Q455 514 594 393T952 272Q1060 272 1160 300T1458 426ZM1043 1875L1246 1516H1064L904 1695L740 1516H560L763 1875H1043Z"  />
<glyph unicode="&#x109;" horiz-adv-x="1024" d="M948 258V45Q774 -18 629 -18Q380 -18 231 115T82 469Q82 684 232 823T616 963Q766 963 934 901V680Q811 743 692 743Q559 743 479 669T399 471Q399 346 477 270T682 193Q776 193 948 258ZM717 1428L920 1069H738L578 1248L414 1069H234L437 1428H717Z"  />
<glyph unicode="&#x10A;" horiz-adv-x="1579" d="M1458 426V121Q1196 -18 909 -18Q537 -18 317 187T96 694Q96 995 328 1205T936 1415Q1235 1415 1442 1292V981Q1188 1124 961 1124Q738 1124 597 1005T455 700Q455 514 594 393T952 272Q1060 272 1160 300T1458 426ZM904 1858Q973 1858 1020 1811T1068 1695Q1068 1626 1021 1578T904 1530Q836 1530 789 1578T741 1695Q741 1763 788 1810T904 1858Z"  />
<glyph unicode="&#x10B;" horiz-adv-x="1024" d="M948 258V45Q774 -18 629 -18Q380 -18 231 115T82 469Q82 684 232 823T616 963Q766 963 934 901V680Q811 743 692 743Q559 743 479 669T399 471Q399 346 477 270T682 193Q776 193 948 258ZM578 1411Q647 1411 694 1364T742 1248Q742 1179 695 1131T578 1083Q510 1083 463 1131T415 1248Q415 1316 462 1363T578 1411Z"  />
<glyph unicode="&#x10C;" horiz-adv-x="1579" d="M1458 426V121Q1196 -18 909 -18Q537 -18 317 187T96 694Q96 995 328 1205T936 1415Q1235 1415 1442 1292V981Q1188 1124 961 1124Q738 1124 597 1005T455 700Q455 514 594 393T952 272Q1060 272 1160 300T1458 426ZM763 1516L560 1875H742L902 1697L1066 1875H1246L1043 1516H763Z"  />
<glyph unicode="&#x10D;" horiz-adv-x="1024" d="M948 258V45Q774 -18 629 -18Q380 -18 231 115T82 469Q82 684 232 823T616 963Q766 963 934 901V680Q811 743 692 743Q559 743 479 669T399 471Q399 346 477 270T682 193Q776 193 948 258ZM437 1069L234 1428H416L576 1250L740 1428H920L717 1069H437Z"  />
<glyph unicode="&#x10E;" horiz-adv-x="1642" d="M154 1397H770Q1127 1397 1334 1202T1542 696Q1542 371 1332 186T731 0H154V1397ZM502 1141V256H729Q950 256 1067 377T1184 698Q1184 904 1066 1022T725 1141H502ZM608 1516L405 1875H587L747 1697L911 1875H1091L888 1516H608Z"  />
<glyph unicode="&#x10F;" horiz-adv-x="1429" d="M1073 1397V0H776V76Q662 -18 514 -18Q325 -18 199 122T72 473Q72 689 200 826T530 963Q655 963 776 903V1397H1073ZM776 258V709Q695 764 610 764Q498 764 436 686T373 467Q373 337 435 259T600 180Q691 180 776 258ZM1151 890Q1235 985 1235 1098Q1235 1109 1233 1125Q1140 1167 1140 1267Q1140 1330 1186 1372T1294 1414Q1367 1414 1421 1357T1475 1201Q1475 1069 1385 961T1151 834V890Z"  />
<glyph unicode="&#x110;" horiz-adv-x="1643" d="M154 605H-17V792H154V1397H722Q1135 1397 1341 1193T1548 701Q1548 400 1344 200T696 0H154V605ZM506 605V265H647Q810 265 888 284T1039 358T1149 503T1187 703Q1187 856 1119 960T947 1097T683 1131H506V792H812V605H506Z"  />
<glyph unicode="&#x111;" horiz-adv-x="1195" d="M1071 1244H1184V1096H1071V0H777V77Q664 -19 514 -19Q337 -19 206 114T75 473Q75 694 204 828T530 962Q660 962 777 902V1096H597V1244H777V1397H1071V1244ZM777 257V708Q699 764 612 764Q517 764 448 696T379 466Q379 325 445 258T603 191Q693 191 777 257Z"  />
<glyph unicode="&#x112;" horiz-adv-x="1300" d="M1190 256V0H160V1397H1176V1141H508V848H1145V592H508V256H1190ZM1046 1764V1565H254V1764H1046Z"  />
<glyph unicode="&#x113;" horiz-adv-x="1130" d="M1044 293V106Q874 -18 623 -18Q374 -18 225 115T76 469Q76 685 216 824T573 963Q791 963 930 817T1061 424H383Q392 296 474 227T694 158Q861 158 1044 293ZM389 580H799Q775 786 594 786Q411 786 389 580ZM962 1317V1118H170V1317H962Z"  />
<glyph unicode="&#x114;" horiz-adv-x="1300" d="M1190 256V0H160V1397H1176V1141H508V848H1145V592H508V256H1190ZM821 1924H1024Q1009 1786 904 1680T655 1573Q512 1573 412 1664T276 1924H481Q523 1797 649 1797Q785 1797 821 1924Z"  />
<glyph unicode="&#x115;" horiz-adv-x="1130" d="M1044 293V106Q874 -18 623 -18Q374 -18 225 115T76 469Q76 685 216 824T573 963Q791 963 930 817T1061 424H383Q392 296 474 227T694 158Q861 158 1044 293ZM389 580H799Q775 786 594 786Q411 786 389 580ZM737 1477H940Q925 1339 820 1233T571 1126Q428 1126 328 1217T192 1477H397Q439 1350 565 1350Q701 1350 737 1477Z"  />
<glyph unicode="&#x116;" horiz-adv-x="1300" d="M1190 256V0H160V1397H1176V1141H508V848H1145V592H508V256H1190ZM732 1858Q801 1858 848 1811T896 1695Q896 1626 849 1578T732 1530Q664 1530 617 1578T569 1695Q569 1763 616 1810T732 1858Z"  />
<glyph unicode="&#x117;" horiz-adv-x="1130" d="M1044 293V106Q874 -18 623 -18Q374 -18 225 115T76 469Q76 685 216 824T573 963Q791 963 930 817T1061 424H383Q392 296 474 227T694 158Q861 158 1044 293ZM389 580H799Q775 786 594 786Q411 786 389 580ZM567 1411Q636 1411 683 1364T731 1248Q731 1179 684 1131T567 1083Q499 1083 452 1131T404 1248Q404 1316 451 1363T567 1411Z"  />
<glyph unicode="&#x118;" horiz-adv-x="1300" d="M1190 0H1028Q1003 -62 1003 -96Q1003 -144 1033 -176T1111 -209Q1134 -209 1189 -190V-354Q1115 -385 1031 -385Q933 -385 878 -323T823 -154Q823 -68 862 0H159V1396H1175V1136H512V854H1145V592H512V256H1190V0Z"  />
<glyph unicode="&#x119;" horiz-adv-x="1130" d="M885 24Q849 -52 849 -95Q849 -144 884 -172T965 -201Q989 -201 1036 -191V-354Q960 -386 879 -386Q784 -386 726 -325T668 -158Q668 -81 701 -15Q667 -18 633 -18Q476 -18 362 24T162 185T76 470Q76 686 221 824T575 962Q736 962 855 880T1017 683T1060 425H384Q389 304 470 235T694 165Q880 165 1045 296V106Q976 57 885 24ZM389 579H798Q789 670 735 726T593 783Q507 783 453 727T389 579Z"  />
<glyph unicode="&#x11A;" horiz-adv-x="1300" d="M1190 256V0H160V1397H1176V1141H508V848H1145V592H508V256H1190ZM510 1516L307 1875H489L649 1697L813 1875H993L790 1516H510Z"  />
<glyph unicode="&#x11B;" horiz-adv-x="1130" d="M1044 293V106Q874 -18 623 -18Q374 -18 225 115T76 469Q76 685 216 824T573 963Q791 963 930 817T1061 424H383Q392 296 474 227T694 158Q861 158 1044 293ZM389 580H799Q775 786 594 786Q411 786 389 580ZM426 1069L223 1428H405L565 1250L729 1428H909L706 1069H426Z"  />
<glyph unicode="&#x11C;" horiz-adv-x="1665" d="M1489 1300V995Q1222 1124 967 1124Q721 1124 588 1000T455 684Q455 500 588 386T938 272Q1053 272 1169 322V485H967V741H1518V170Q1435 87 1266 35T930 -18Q565 -18 331 183T96 696Q96 1014 330 1214T938 1415Q1246 1415 1489 1300ZM1087 1875L1290 1516H1108L948 1695L784 1516H604L807 1875H1087Z"  />
<glyph unicode="&#x11D;" horiz-adv-x="1110" d="M1085 944V745H950Q997 665 997 588Q997 478 915 385T673 275T491 242T469 201Q469 176 497 161T717 129T985 28T1061 -154Q1061 -309 933 -390T561 -471Q313 -471 185 -396T57 -197Q57 -25 309 43Q195 77 195 166Q195 270 367 309Q252 329 177 409T102 600Q102 736 210 840T524 944H1085ZM551 768Q478 768 429 718T379 596Q379 527 430 477T551 426Q621 426 671 479T721 606Q721 673 673 720T551 768ZM575 -295Q670 -295 729 -260T788 -176Q788 -72 557 -72Q452 -72 392 -102T332 -184Q332 -295 575 -295ZM713 1428L916 1069H734L574 1248L410 1069H230L433 1428H713Z"  />
<glyph unicode="&#x11E;" horiz-adv-x="1665" d="M1489 1300V995Q1222 1124 967 1124Q721 1124 588 1000T455 684Q455 500 588 386T938 272Q1053 272 1169 322V485H967V741H1518V170Q1435 87 1266 35T930 -18Q565 -18 331 183T96 696Q96 1014 330 1214T938 1415Q1246 1415 1489 1300ZM1085 1924H1288Q1273 1786 1168 1680T919 1573Q776 1573 676 1664T540 1924H745Q787 1797 913 1797Q1049 1797 1085 1924Z"  />
<glyph unicode="&#x11F;" horiz-adv-x="1110" d="M1085 944V745H950Q997 665 997 588Q997 478 915 385T673 275T491 242T469 201Q469 176 497 161T717 129T985 28T1061 -154Q1061 -309 933 -390T561 -471Q313 -471 185 -396T57 -197Q57 -25 309 43Q195 77 195 166Q195 270 367 309Q252 329 177 409T102 600Q102 736 210 840T524 944H1085ZM551 768Q478 768 429 718T379 596Q379 527 430 477T551 426Q621 426 671 479T721 606Q721 673 673 720T551 768ZM575 -295Q670 -295 729 -260T788 -176Q788 -72 557 -72Q452 -72 392 -102T332 -184Q332 -295 575 -295ZM754 1477H957Q942 1339 837 1233T588 1126Q445 1126 345 1217T209 1477H414Q456 1350 582 1350Q718 1350 754 1477Z"  />
<glyph unicode="&#x120;" horiz-adv-x="1665" d="M1489 1300V995Q1222 1124 967 1124Q721 1124 588 1000T455 684Q455 500 588 386T938 272Q1053 272 1169 322V485H967V741H1518V170Q1435 87 1266 35T930 -18Q565 -18 331 183T96 696Q96 1014 330 1214T938 1415Q1246 1415 1489 1300ZM872 1858Q941 1858 988 1811T1036 1695Q1036 1626 989 1578T872 1530Q804 1530 757 1578T709 1695Q709 1763 756 1810T872 1858Z"  />
<glyph unicode="&#x121;" horiz-adv-x="1110" d="M1085 944V745H950Q997 665 997 588Q997 478 915 385T673 275T491 242T469 201Q469 176 497 161T717 129T985 28T1061 -154Q1061 -309 933 -390T561 -471Q313 -471 185 -396T57 -197Q57 -25 309 43Q195 77 195 166Q195 270 367 309Q252 329 177 409T102 600Q102 736 210 840T524 944H1085ZM551 768Q478 768 429 718T379 596Q379 527 430 477T551 426Q621 426 671 479T721 606Q721 673 673 720T551 768ZM575 -295Q670 -295 729 -260T788 -176Q788 -72 557 -72Q452 -72 392 -102T332 -184Q332 -295 575 -295ZM542 1411Q611 1411 658 1364T706 1248Q706 1179 659 1131T542 1083Q474 1083 427 1131T379 1248Q379 1316 426 1363T542 1411Z"  />
<glyph unicode="&#x122;" horiz-adv-x="1665" d="M1489 1300V995Q1222 1124 967 1124Q721 1124 588 1000T455 684Q455 500 588 386T938 272Q1053 272 1169 322V485H967V741H1518V170Q1435 87 1266 35T930 -18Q565 -18 331 183T96 696Q96 1014 330 1214T938 1415Q1246 1415 1489 1300ZM781 -598Q865 -503 865 -390Q865 -379 863 -363Q770 -321 770 -221Q770 -158 816 -116T924 -74Q997 -74 1051 -131T1105 -287Q1105 -419 1015 -527T781 -654V-598Z"  />
<glyph unicode="&#x123;" horiz-adv-x="1110" d="M1085 944V745H950Q997 665 997 588Q997 478 915 385T673 275T491 242T469 201Q469 176 497 161T717 129T985 28T1061 -154Q1061 -309 933 -390T561 -471Q313 -471 185 -396T57 -197Q57 -25 309 43Q195 77 195 166Q195 270 367 309Q252 329 177 409T102 600Q102 736 210 840T524 944H1085ZM551 768Q478 768 429 718T379 596Q379 527 430 477T551 426Q621 426 671 479T721 606Q721 673 673 720T551 768ZM575 -295Q670 -295 729 -260T788 -176Q788 -72 557 -72Q452 -72 392 -102T332 -184Q332 -295 575 -295ZM695 1565Q611 1470 611 1357Q611 1346 613 1330Q706 1288 706 1188Q706 1125 660 1083T552 1041Q479 1041 425 1098T371 1254Q371 1386 461 1494T695 1621V1565Z"  />
<glyph unicode="&#x124;" horiz-adv-x="1706" d="M1550 1397V0H1202V565H506V0H158V1397H506V836H1202V1397H1550ZM992 1875L1195 1516H1013L853 1695L689 1516H509L712 1875H992Z"  />
<glyph unicode="&#x125;" horiz-adv-x="1194" d="M424 1397V805H428Q552 963 727 963Q878 963 975 868T1073 602V0H776V539Q776 745 623 745Q522 745 424 602V0H127V1397H424ZM741 1875L944 1516H762L602 1695L438 1516H258L461 1875H741Z"  />
<glyph unicode="&#x126;" horiz-adv-x="1706" d="M1551 1196H1707V1010H1551V0H1200V565H507V0H156V1010H0V1196H156V1397H507V1196H1200V1397H1551V1196ZM507 1010V837H1200V1010H507Z"  />
<glyph unicode="&#x127;" horiz-adv-x="1194" d="M430 1207H781V1059H430V805Q557 962 731 962Q882 962 976 859T1071 574V0H775V510Q775 665 728 705T625 745Q567 745 513 703T430 603V0H128V1059H0V1207H128V1397H430V1207Z"  />
<glyph unicode="&#x128;" horiz-adv-x="682" d="M516 1397V0H168V1397H516ZM600 1821H739Q718 1512 500 1512Q437 1512 323 1567T170 1623Q92 1623 78 1516H-57Q-46 1663 19 1742T186 1821Q252 1821 360 1766T510 1711Q582 1711 600 1821Z"  />
<glyph unicode="&#x129;" horiz-adv-x="555" d="M426 944V0H129V944H426ZM538 1374H677Q656 1065 438 1065Q375 1065 261 1120T108 1176Q30 1176 16 1069H-119Q-108 1216 -43 1295T124 1374Q190 1374 298 1319T448 1264Q520 1264 538 1374Z"  />
<glyph unicode="&#x12A;" horiz-adv-x="682" d="M516 1397V0H168V1397H516ZM737 1764V1565H-55V1764H737Z"  />
<glyph unicode="&#x12B;" horiz-adv-x="555" d="M426 944V0H129V944H426ZM675 1317V1118H-117V1317H675Z"  />
<glyph unicode="&#x12E;" horiz-adv-x="682" d="M518 0H330Q305 -61 305 -96Q305 -144 335 -176T413 -209Q436 -209 491 -190V-354Q417 -385 333 -385Q235 -385 180 -323T125 -154Q125 -67 166 2V1396H518V0Z"  />
<glyph unicode="&#x12F;" horiz-adv-x="555" d="M444 1255Q444 1187 396 1139T281 1091Q214 1091 166 1139T117 1255Q117 1322 165 1370T281 1418Q348 1418 396 1370T444 1255ZM297 0Q272 -51 272 -95Q272 -138 302 -169T379 -201Q407 -201 459 -191V-354Q383 -386 301 -386Q199 -386 145 -322T91 -162Q91 -70 131 0V944H417V0H297Z"  />
<glyph unicode="&#x130;" horiz-adv-x="682" d="M516 1397V0H168V1397H516ZM342 1858Q411 1858 458 1811T506 1695Q506 1626 459 1578T342 1530Q274 1530 227 1578T179 1695Q179 1763 226 1810T342 1858Z"  />
<glyph unicode="&#x131;" horiz-adv-x="555" d="M426 944V0H129V944H426Z"  />
<glyph unicode="&#x132;" horiz-adv-x="1365" d="M517 1397V0H166V1397H517ZM1216 1397V210Q1216 36 1197 -61T1117 -242T961 -366T754 -407Q642 -407 618 -404V-129Q640 -135 662 -135Q740 -135 788 -96T851 7T865 241V1397H1216Z"  />
<glyph unicode="&#x133;" horiz-adv-x="1109" d="M997 1256Q997 1189 950 1141T835 1093Q767 1093 720 1141T672 1256Q672 1323 719 1370T835 1418Q902 1418 949 1371T997 1256ZM443 1255Q443 1187 395 1139T280 1091Q213 1091 165 1139T117 1255Q117 1322 165 1370T280 1418Q348 1418 395 1370T443 1255ZM417 944V0H131V944H417ZM986 944V84Q986 -61 975 -135T915 -290T789 -418T632 -468L537 -202Q618 -190 654 -125T690 84V944H986Z"  />
<glyph unicode="&#x134;" horiz-adv-x="682" d="M530 1397V129Q530 -408 36 -408Q-11 -408 -66 -403V-129Q-38 -134 -13 -134Q182 -134 182 123V1397H530ZM481 1875L684 1516H502L342 1695L178 1516H-2L201 1875H481Z"  />
<glyph unicode="&#x135;" horiz-adv-x="555" d="M413 1397L615 1038H433L274 1217L110 1038H-70L133 1397H413ZM431 944V84Q431 -61 420 -135T360 -290T234 -418T77 -468L-18 -202Q47 -195 91 -139T136 84V944H431Z"  />
<glyph unicode="&#x136;" horiz-adv-x="1473" d="M1329 1397L874 741L1491 0H1055L502 655V0H154V1397H502V768L946 1397H1329ZM622 -598Q706 -503 706 -390Q706 -379 704 -363Q611 -321 611 -221Q611 -158 657 -116T765 -74Q838 -74 892 -131T946 -287Q946 -419 856 -527T622 -654V-598Z"  />
<glyph unicode="&#x137;" horiz-adv-x="1130" d="M426 1397V477H430L797 944H1145L776 477L1161 0H797L430 465H426V0H129V1397H426ZM454 -598Q538 -503 538 -390Q538 -379 536 -363Q443 -321 443 -221Q443 -158 489 -116T597 -74Q670 -74 724 -131T778 -287Q778 -419 688 -527T454 -654V-598Z"  />
<glyph unicode="&#x139;" horiz-adv-x="1260" d="M1221 256V0H156V1397H504V256H1221ZM1035 1831L697 1532H545L697 1831H1035Z"  />
<glyph unicode="&#x13A;" horiz-adv-x="555" d="M426 1397V0H129V1397H426ZM668 1831L330 1532H178L330 1831H668Z"  />
<glyph unicode="&#x13B;" horiz-adv-x="1260" d="M1221 256V0H156V1397H504V256H1221ZM573 -62Q876 -62 876 -209Q876 -279 817 -323T655 -367Q593 -367 500 -347V-243Q606 -243 631 -237T657 -206Q657 -161 573 -158V-62Z"  />
<glyph unicode="&#x13C;" horiz-adv-x="555" d="M426 1397V0H129V1397H426ZM165 -62Q468 -62 468 -209Q468 -279 409 -323T247 -367Q185 -367 92 -347V-243Q198 -243 223 -237T249 -206Q249 -161 165 -158V-62Z"  />
<glyph unicode="&#x13D;" horiz-adv-x="1260" d="M1221 256V0H156V1397H504V256H1221ZM521 1516L318 1875H500L660 1697L824 1875H1004L801 1516H521Z"  />
<glyph unicode="&#x13E;" horiz-adv-x="555" d="M426 1397V0H129V1397H426ZM517 890Q601 985 601 1098Q601 1109 599 1125Q506 1167 506 1267Q506 1330 552 1372T660 1414Q733 1414 787 1357T841 1201Q841 1069 751 961T517 834V890Z"  />
<glyph unicode="&#x13F;" horiz-adv-x="1260" d="M1221 256V0H156V1397H504V256H1221ZM1017 756Q1017 689 969 641T853 592Q785 592 737 640T688 756Q688 824 736 872T853 921Q920 921 968 873T1017 756Z"  />
<glyph unicode="&#x140;" horiz-adv-x="875" d="M425 1397V0H128V1397H425ZM862 710Q862 643 814 595T698 546Q630 546 582 594T533 710Q533 778 581 826T698 875Q765 875 813 827T862 710Z"  />
<glyph unicode="&#x141;" horiz-adv-x="1260" d="M1221 256V0H156V446L-37 289V569L156 727V1397H504V983L791 1219V936L504 700V256H1221Z"  />
<glyph unicode="&#x142;" horiz-adv-x="555" d="M426 1397V938L584 1069V831L426 700V0H129V489L-29 358V594L129 725V1397H426Z"  />
<glyph unicode="&#x143;" horiz-adv-x="1729" d="M1571 1397V0H1278L506 895V0H158V1397H477L1223 543V1397H1571ZM1212 1831L874 1532H722L874 1831H1212Z"  />
<glyph unicode="&#x144;" horiz-adv-x="1194" d="M420 944V809Q551 963 727 963Q874 963 972 869T1071 600V0H774V575Q774 764 627 764Q522 764 420 608V0H123V944H420ZM924 1384L586 1085H434L586 1384H924Z"  />
<glyph unicode="&#x145;" horiz-adv-x="1729" d="M1571 1397V0H1278L506 895V0H158V1397H477L1223 543V1397H1571ZM726 -598Q810 -503 810 -390Q810 -379 808 -363Q715 -321 715 -221Q715 -158 761 -116T869 -74Q942 -74 996 -131T1050 -287Q1050 -419 960 -527T726 -654V-598Z"  />
<glyph unicode="&#x146;" horiz-adv-x="1194" d="M420 944V809Q551 963 727 963Q874 963 972 869T1071 600V0H774V575Q774 764 627 764Q522 764 420 608V0H123V944H420ZM468 -598Q552 -503 552 -390Q552 -379 550 -363Q457 -321 457 -221Q457 -158 503 -116T611 -74Q684 -74 738 -131T792 -287Q792 -419 702 -527T468 -654V-598Z"  />
<glyph unicode="&#x147;" horiz-adv-x="1729" d="M1571 1397V0H1278L506 895V0H158V1397H477L1223 543V1397H1571ZM725 1516L522 1875H704L864 1697L1028 1875H1208L1005 1516H725Z"  />
<glyph unicode="&#x148;" horiz-adv-x="1194" d="M420 944V809Q551 963 727 963Q874 963 972 869T1071 600V0H774V575Q774 764 627 764Q522 764 420 608V0H123V944H420ZM459 1069L256 1428H438L598 1250L762 1428H942L739 1069H459Z"  />
<glyph unicode="&#x149;" horiz-adv-x="1600" d="M831 944V809Q962 963 1138 963Q1285 963 1383 869T1482 600V0H1185V575Q1185 764 1038 764Q933 764 831 608V0H534V944H831ZM102 776V840Q197 930 197 1070Q197 1088 195 1104Q90 1144 90 1253Q90 1323 138 1369T258 1415Q348 1415 405 1350T463 1182Q463 1033 362 914T102 776Z"  />
<glyph unicode="&#x14C;" horiz-adv-x="1792" d="M897 1415Q1254 1415 1475 1200T1696 698Q1696 408 1472 195T897 -18Q542 -18 319 194T96 698Q96 985 317 1200T897 1415ZM897 272Q1095 272 1216 389T1337 698Q1337 890 1216 1007T897 1124Q698 1124 577 1007T455 698Q455 507 576 390T897 272ZM1291 1764V1565H499V1764H1291Z"  />
<glyph unicode="&#x14D;" horiz-adv-x="1217" d="M610 963Q832 963 986 833T1141 471Q1141 238 984 110T610 -18Q375 -18 226 118T76 473Q76 695 228 829T610 963ZM610 158Q823 158 823 479Q823 786 610 786Q508 786 451 705T393 473Q393 158 610 158ZM1004 1317V1118H212V1317H1004Z"  />
<glyph unicode="&#x14E;" horiz-adv-x="1792" d="M897 1415Q1254 1415 1475 1200T1696 698Q1696 408 1472 195T897 -18Q542 -18 319 194T96 698Q96 985 317 1200T897 1415ZM897 272Q1095 272 1216 389T1337 698Q1337 890 1216 1007T897 1124Q698 1124 577 1007T455 698Q455 507 576 390T897 272ZM1066 1924H1269Q1254 1786 1149 1680T900 1573Q757 1573 657 1664T521 1924H726Q768 1797 894 1797Q1030 1797 1066 1924Z"  />
<glyph unicode="&#x14F;" horiz-adv-x="1217" d="M610 963Q832 963 986 833T1141 471Q1141 238 984 110T610 -18Q375 -18 226 118T76 473Q76 695 228 829T610 963ZM610 158Q823 158 823 479Q823 786 610 786Q508 786 451 705T393 473Q393 158 610 158ZM779 1477H982Q967 1339 862 1233T613 1126Q470 1126 370 1217T234 1477H439Q481 1350 607 1350Q743 1350 779 1477Z"  />
<glyph unicode="&#x150;" horiz-adv-x="1792" d="M897 1415Q1254 1415 1475 1200T1696 698Q1696 408 1472 195T897 -18Q542 -18 319 194T96 698Q96 985 317 1200T897 1415ZM897 272Q1095 272 1216 389T1337 698Q1337 890 1216 1007T897 1124Q698 1124 577 1007T455 698Q455 507 576 390T897 272ZM1396 1831L1128 1532H982L1089 1831H1396ZM1015 1831L747 1532H602L708 1831H1015Z"  />
<glyph unicode="&#x151;" horiz-adv-x="1217" d="M610 963Q832 963 986 833T1141 471Q1141 238 984 110T610 -18Q375 -18 226 118T76 473Q76 695 228 829T610 963ZM610 158Q823 158 823 479Q823 786 610 786Q508 786 451 705T393 473Q393 158 610 158ZM1112 1384L844 1085H698L805 1384H1112ZM731 1384L463 1085H318L424 1384H731Z"  />
<glyph unicode="&#x152;" horiz-adv-x="2241" d="M2118 1397V1141H1464V848H2089V592H1464V256H2132V0H877Q523 0 310 188T96 702Q96 1019 306 1208T874 1397H2118ZM1116 1141H948Q724 1141 590 1015T455 698Q455 508 590 382T948 256H1116V1141Z"  />
<glyph unicode="&#x153;" horiz-adv-x="1792" d="M1714 305V102Q1537 -18 1341 -18Q1143 -18 975 102Q810 -18 608 -18Q382 -18 228 124T74 477Q74 685 227 824T612 963Q798 963 961 850Q1033 909 1092 936T1245 963Q1463 963 1601 818T1731 426H1122Q1118 308 1190 233T1372 158Q1555 158 1714 305ZM1122 582H1458Q1458 670 1411 728T1284 786Q1212 786 1167 730T1122 582ZM608 158Q825 158 825 492Q825 633 768 709T604 786Q391 786 391 469Q391 158 608 158Z"  />
<glyph unicode="&#x154;" horiz-adv-x="1386" d="M156 1397H780Q983 1397 1110 1280T1237 995Q1237 764 997 653Q1103 606 1197 396T1380 0H997Q963 69 879 263T734 512T604 567H504V0H156V1397ZM504 1141V823H688Q776 823 827 864T879 983Q879 1141 680 1141H504ZM1024 1831L686 1532H534L686 1831H1024Z"  />
<glyph unicode="&#x155;" horiz-adv-x="918" d="M428 944V674H432Q561 963 733 963Q815 963 930 877L848 614Q738 684 672 684Q569 684 499 557T428 408V0H131V944H428ZM856 1384L518 1085H366L518 1384H856Z"  />
<glyph unicode="&#x156;" horiz-adv-x="1386" d="M156 1397H780Q983 1397 1110 1280T1237 995Q1237 764 997 653Q1103 606 1197 396T1380 0H997Q963 69 879 263T734 512T604 567H504V0H156V1397ZM504 1141V823H688Q776 823 827 864T879 983Q879 1141 680 1141H504ZM582 -598Q666 -503 666 -390Q666 -379 664 -363Q571 -321 571 -221Q571 -158 617 -116T725 -74Q798 -74 852 -131T906 -287Q906 -419 816 -527T582 -654V-598Z"  />
<glyph unicode="&#x157;" horiz-adv-x="918" d="M428 944V674H432Q561 963 733 963Q815 963 930 877L848 614Q738 684 672 684Q569 684 499 557T428 408V0H131V944H428ZM381 -598Q465 -503 465 -390Q465 -379 463 -363Q370 -321 370 -221Q370 -158 416 -116T524 -74Q597 -74 651 -131T705 -287Q705 -419 615 -527T381 -654V-598Z"  />
<glyph unicode="&#x158;" horiz-adv-x="1386" d="M156 1397H780Q983 1397 1110 1280T1237 995Q1237 764 997 653Q1103 606 1197 396T1380 0H997Q963 69 879 263T734 512T604 567H504V0H156V1397ZM504 1141V823H688Q776 823 827 864T879 983Q879 1141 680 1141H504ZM536 1516L333 1875H515L675 1697L839 1875H1019L816 1516H536Z"  />
<glyph unicode="&#x159;" horiz-adv-x="918" d="M428 944V674H432Q561 963 733 963Q815 963 930 877L848 614Q738 684 672 684Q569 684 499 557T428 408V0H131V944H428ZM392 1069L189 1428H371L531 1250L695 1428H875L672 1069H392Z"  />
<glyph unicode="&#x15A;" horiz-adv-x="1237" d="M1104 1307V1034Q826 1159 661 1159Q567 1159 512 1128T456 1044Q456 1004 496 968T691 875T939 769T1099 631T1167 406Q1167 212 1020 97T631 -18Q371 -18 127 117V418Q267 324 375 281T604 238Q809 238 809 367Q809 411 768 450T571 545T323 649T165 786T98 1014Q98 1194 243 1304T631 1415Q855 1415 1104 1307ZM973 1831L635 1532H483L635 1831H973Z"  />
<glyph unicode="&#x15B;" horiz-adv-x="874" d="M772 893V682Q602 786 457 786Q350 786 350 713Q350 694 372 676T545 598T757 460T819 289Q819 142 719 62T434 -18Q244 -18 96 51V260Q278 180 401 180Q545 180 545 250Q545 277 519 301T340 384T132 514T76 672Q76 801 183 882T467 963Q636 963 772 893ZM775 1384L437 1085H285L437 1384H775Z"  />
<glyph unicode="&#x15C;" horiz-adv-x="1237" d="M1104 1307V1034Q826 1159 661 1159Q567 1159 512 1128T456 1044Q456 1004 496 968T691 875T939 769T1099 631T1167 406Q1167 212 1020 97T631 -18Q371 -18 127 117V418Q267 324 375 281T604 238Q809 238 809 367Q809 411 768 450T571 545T323 649T165 786T98 1014Q98 1194 243 1304T631 1415Q855 1415 1104 1307ZM767 1875L970 1516H788L628 1695L464 1516H284L487 1875H767Z"  />
<glyph unicode="&#x15D;" horiz-adv-x="874" d="M772 893V682Q602 786 457 786Q350 786 350 713Q350 694 372 676T545 598T757 460T819 289Q819 142 719 62T434 -18Q244 -18 96 51V260Q278 180 401 180Q545 180 545 250Q545 277 519 301T340 384T132 514T76 672Q76 801 183 882T467 963Q636 963 772 893ZM590 1428L793 1069H611L451 1248L287 1069H107L310 1428H590Z"  />
<glyph unicode="&#x15E;" horiz-adv-x="1237" d="M1104 1307V1034Q826 1159 661 1159Q567 1159 512 1128T456 1044Q456 1004 496 968T691 875T939 769T1099 631T1167 406Q1167 212 1020 97T631 -18Q371 -18 127 117V418Q267 324 375 281T604 238Q809 238 809 367Q809 411 768 450T571 545T323 649T165 786T98 1014Q98 1194 243 1304T631 1415Q855 1415 1104 1307ZM663 1L637 -62Q764 -108 764 -212Q764 -289 705 -335T540 -382Q441 -382 389 -363V-259Q544 -264 544 -195Q544 -138 460 -138L540 1H663Z"  />
<glyph unicode="&#x15F;" horiz-adv-x="874" d="M772 893V682Q602 786 457 786Q350 786 350 713Q350 694 372 676T545 598T757 460T819 289Q819 142 719 62T434 -18Q244 -18 96 51V260Q278 180 401 180Q545 180 545 250Q545 277 519 301T340 384T132 514T76 672Q76 801 183 882T467 963Q636 963 772 893ZM499 1L473 -62Q600 -108 600 -212Q600 -289 541 -335T376 -382Q277 -382 225 -363V-259Q380 -264 380 -195Q380 -138 296 -138L376 1H499Z"  />
<glyph unicode="&#x160;" horiz-adv-x="1237" d="M1104 1307V1034Q826 1159 661 1159Q567 1159 512 1128T456 1044Q456 1004 496 968T691 875T939 769T1099 631T1167 406Q1167 212 1020 97T631 -18Q371 -18 127 117V418Q267 324 375 281T604 238Q809 238 809 367Q809 411 768 450T571 545T323 649T165 786T98 1014Q98 1194 243 1304T631 1415Q855 1415 1104 1307ZM480 1516L277 1875H459L619 1697L783 1875H963L760 1516H480Z"  />
<glyph unicode="&#x161;" horiz-adv-x="874" d="M772 893V682Q602 786 457 786Q350 786 350 713Q350 694 372 676T545 598T757 460T819 289Q819 142 719 62T434 -18Q244 -18 96 51V260Q278 180 401 180Q545 180 545 250Q545 277 519 301T340 384T132 514T76 672Q76 801 183 882T467 963Q636 963 772 893ZM297 1069L94 1428H276L436 1250L600 1428H780L577 1069H297Z"  />
<glyph unicode="&#x162;" horiz-adv-x="1473" d="M1417 1397V1141H911V0H563V1141H57V1397H1417ZM575 -598Q659 -503 659 -390Q659 -379 657 -363Q564 -321 564 -221Q564 -158 610 -116T718 -74Q791 -74 845 -131T899 -287Q899 -419 809 -527T575 -654V-598Z"  />
<glyph unicode="&#x163;" horiz-adv-x="831" d="M801 944V741H457V352Q457 282 495 242T602 201Q694 201 801 256V41Q659 -18 526 -18Q352 -18 256 72T160 336V741H25V799L420 1241H457V944H801ZM331 -598Q415 -503 415 -390Q415 -379 413 -363Q320 -321 320 -221Q320 -158 366 -116T474 -74Q547 -74 601 -131T655 -287Q655 -419 565 -527T331 -654V-598Z"  />
<glyph unicode="&#x164;" horiz-adv-x="1473" d="M1417 1397V1141H911V0H563V1141H57V1397H1417ZM594 1516L391 1875H573L733 1697L897 1875H1077L874 1516H594Z"  />
<glyph unicode="&#x165;" horiz-adv-x="1152" d="M801 944V741H457V352Q457 282 495 242T602 201Q694 201 801 256V41Q659 -18 526 -18Q352 -18 256 72T160 336V741H25V799L420 1241H457V944H801ZM881 890Q965 985 965 1098Q965 1109 963 1125Q870 1167 870 1267Q870 1330 916 1372T1024 1414Q1097 1414 1151 1357T1205 1201Q1205 1069 1115 961T881 834V890Z"  />
<glyph unicode="&#x166;" horiz-adv-x="1472" d="M913 618H1264V431H913V0H558V431H207V618H558V1134H54V1397H1418V1134H913V618Z"  />
<glyph unicode="&#x167;" horiz-adv-x="832" d="M461 609H800V461H460Q460 303 488 252T601 200Q692 200 800 256V41Q662 -19 523 -19Q398 -19 308 38T189 172T160 398V461H24V609H160V740H24V795L419 1241H461V944H800V740H461V609Z"  />
<glyph unicode="&#x168;" horiz-adv-x="1686" d="M1192 1397H1540V604Q1540 298 1359 140T842 -18Q510 -18 327 142T143 602V1397H492V594Q492 448 587 360T838 272Q999 272 1095 362T1192 618V1397ZM1099 1821H1238Q1217 1512 999 1512Q936 1512 822 1567T669 1623Q591 1623 577 1516H442Q453 1663 518 1742T685 1821Q751 1821 859 1766T1009 1711Q1081 1711 1099 1821Z"  />
<glyph unicode="&#x169;" horiz-adv-x="1194" d="M774 0V135Q643 -18 469 -18Q315 -18 219 77T123 340V944H420V360Q420 180 569 180Q653 180 712 245T772 342V944H1071V0H774ZM858 1374H997Q976 1065 758 1065Q695 1065 581 1120T428 1176Q350 1176 336 1069H201Q212 1216 277 1295T444 1374Q510 1374 618 1319T768 1264Q840 1264 858 1374Z"  />
<glyph unicode="&#x16A;" horiz-adv-x="1686" d="M1192 1397H1540V604Q1540 298 1359 140T842 -18Q510 -18 327 142T143 602V1397H492V594Q492 448 587 360T838 272Q999 272 1095 362T1192 618V1397ZM1236 1764V1565H444V1764H1236Z"  />
<glyph unicode="&#x16B;" horiz-adv-x="1194" d="M774 0V135Q643 -18 469 -18Q315 -18 219 77T123 340V944H420V360Q420 180 569 180Q653 180 712 245T772 342V944H1071V0H774ZM995 1317V1118H203V1317H995Z"  />
<glyph unicode="&#x16C;" horiz-adv-x="1686" d="M1192 1397H1540V604Q1540 298 1359 140T842 -18Q510 -18 327 142T143 602V1397H492V594Q492 448 587 360T838 272Q999 272 1095 362T1192 618V1397ZM1012 1924H1215Q1200 1786 1095 1680T846 1573Q703 1573 603 1664T467 1924H672Q714 1797 840 1797Q976 1797 1012 1924Z"  />
<glyph unicode="&#x16D;" horiz-adv-x="1194" d="M774 0V135Q643 -18 469 -18Q315 -18 219 77T123 340V944H420V360Q420 180 569 180Q653 180 712 245T772 342V944H1071V0H774ZM770 1477H973Q958 1339 853 1233T604 1126Q461 1126 361 1217T225 1477H430Q472 1350 598 1350Q734 1350 770 1477Z"  />
<glyph unicode="&#x16E;" horiz-adv-x="1686" d="M1192 1397H1540V604Q1540 298 1359 140T842 -18Q510 -18 327 142T143 602V1397H492V594Q492 448 587 360T838 272Q999 272 1095 362T1192 618V1397ZM664 1696Q664 1782 725 1842T873 1903Q959 1903 1019 1843T1080 1696Q1080 1610 1019 1549T873 1487Q787 1487 726 1549T664 1696ZM986 1696Q986 1742 953 1774T873 1807Q827 1807 795 1775T762 1696Q762 1650 794 1617T873 1584Q919 1584 952 1617T986 1696Z"  />
<glyph unicode="&#x16F;" horiz-adv-x="1194" d="M774 0V135Q643 -18 469 -18Q315 -18 219 77T123 340V944H420V360Q420 180 569 180Q653 180 712 245T772 342V944H1071V0H774ZM391 1249Q391 1335 452 1395T600 1456Q686 1456 746 1396T807 1249Q807 1163 746 1102T600 1040Q514 1040 453 1102T391 1249ZM713 1249Q713 1295 680 1327T600 1360Q554 1360 522 1328T489 1249Q489 1203 521 1170T600 1137Q646 1137 679 1170T713 1249Z"  />
<glyph unicode="&#x170;" horiz-adv-x="1686" d="M1192 1397H1540V604Q1540 298 1359 140T842 -18Q510 -18 327 142T143 602V1397H492V594Q492 448 587 360T838 272Q999 272 1095 362T1192 618V1397ZM1342 1831L1074 1532H928L1035 1831H1342ZM961 1831L693 1532H548L654 1831H961Z"  />
<glyph unicode="&#x171;" horiz-adv-x="1194" d="M774 0V135Q643 -18 469 -18Q315 -18 219 77T123 340V944H420V360Q420 180 569 180Q653 180 712 245T772 342V944H1071V0H774ZM1103 1384L835 1085H689L796 1384H1103ZM722 1384L454 1085H309L415 1384H722Z"  />
<glyph unicode="&#x172;" horiz-adv-x="1686" d="M1540 604Q1540 298 1359 140Q1254 -2 1254 -96Q1254 -144 1284 -176T1362 -209Q1387 -209 1440 -190V-354Q1366 -385 1282 -385Q1184 -385 1129 -323T1074 -154Q1074 -61 1120 16Q997 -18 842 -18Q509 -18 326 142T143 602V1397H492V594Q492 447 587 360T838 272Q1003 272 1097 363T1192 618V1397H1540V604Z"  />
<glyph unicode="&#x173;" horiz-adv-x="1195" d="M934 0Q909 -57 909 -94Q909 -200 1026 -200Q1052 -200 1096 -191V-354Q1020 -386 936 -386Q844 -386 786 -323T727 -161Q727 -73 768 0V136Q660 -19 468 -19Q348 -19 264 40T153 173T125 354V944H425V440Q425 297 456 243T568 189Q681 189 768 322V944H1067V0H934Z"  />
<glyph unicode="&#x174;" horiz-adv-x="2390" d="M1194 893L762 -18H612L-2 1397H367L696 625L1055 1397H1335L1694 625L2021 1397H2390L1778 -18H1628L1194 893ZM1335 1875L1538 1516H1356L1196 1695L1032 1516H852L1055 1875H1335Z"  />
<glyph unicode="&#x175;" horiz-adv-x="1599" d="M801 496L563 -18H424L-2 944H301L500 424L711 944H891L1100 424L1298 944H1602L1178 -18H1036L801 496ZM942 1428L1145 1069H963L803 1248L639 1069H459L662 1428H942Z"  />
<glyph unicode="&#x176;" horiz-adv-x="1450" d="M551 0V653L0 1397H422L725 958L1030 1397H1450L899 653V0H551ZM864 1875L1067 1516H885L725 1695L561 1516H381L584 1875H864Z"  />
<glyph unicode="&#x177;" horiz-adv-x="1044" d="M1042 944L410 -453H94L371 154L2 944H319L518 459L731 944H1042ZM663 1428L866 1069H684L524 1248L360 1069H180L383 1428H663Z"  />
<glyph unicode="&#x178;" horiz-adv-x="1450" d="M551 0V653L0 1397H422L725 958L1030 1397H1450L899 653V0H551ZM964 1858Q1033 1858 1080 1811T1128 1695Q1128 1626 1081 1578T964 1530Q896 1530 849 1578T801 1695Q801 1763 848 1810T964 1858ZM487 1858Q556 1859 603 1811T651 1695Q651 1626 604 1578T487 1530Q419 1530 372 1578T324 1695Q324 1763 371 1810T487 1858Z"  />
<glyph unicode="&#x179;" horiz-adv-x="1430" d="M1364 1397L602 256H1364V0H8L776 1141H61V1397H1364ZM1032 1831L694 1532H542L694 1831H1032Z"  />
<glyph unicode="&#x17A;" horiz-adv-x="1067" d="M86 944H1008L524 203H1008V0H39L524 741H86V944ZM849 1384L511 1085H359L511 1384H849Z"  />
<glyph unicode="&#x17B;" horiz-adv-x="1430" d="M1364 1397L602 256H1364V0H8L776 1141H61V1397H1364ZM728 1858Q797 1858 844 1811T892 1695Q892 1626 845 1578T728 1530Q660 1530 613 1578T565 1695Q565 1763 612 1810T728 1858Z"  />
<glyph unicode="&#x17C;" horiz-adv-x="1067" d="M86 944H1008L524 203H1008V0H39L524 741H86V944ZM557 1411Q626 1411 673 1364T721 1248Q721 1179 674 1131T557 1083Q489 1083 442 1131T394 1248Q394 1316 441 1363T557 1411Z"  />
<glyph unicode="&#x17D;" horiz-adv-x="1430" d="M1364 1397L602 256H1364V0H8L776 1141H61V1397H1364ZM576 1516L373 1875H555L715 1697L879 1875H1059L856 1516H576Z"  />
<glyph unicode="&#x17E;" horiz-adv-x="1067" d="M86 944H1008L524 203H1008V0H39L524 741H86V944ZM394 1069L191 1428H373L533 1250L697 1428H877L674 1069H394Z"  />
<glyph unicode="&#x192;" horiz-adv-x="1130" d="M276 850L313 1061H514L545 1231Q570 1376 646 1433T870 1491H879Q1014 1491 1143 1450L1087 1225Q996 1251 930 1251Q873 1251 846 1227T797 1061H1004L967 850H762L588 -143Q560 -307 484 -368T260 -430Q112 -430 -20 -391L37 -170Q134 -190 207 -190Q274 -190 293 -152T328 -23L477 850H276Z"  />
<glyph unicode="&#x218;" horiz-adv-x="1237" d="M1104 1307V1034Q826 1159 661 1159Q567 1159 512 1128T456 1044Q456 1004 496 968T691 875T939 769T1099 631T1167 406Q1167 212 1020 97T631 -18Q371 -18 127 117V418Q267 324 375 281T604 238Q809 238 809 367Q809 411 768 450T571 545T323 649T165 786T98 1014Q98 1194 243 1304T631 1415Q855 1415 1104 1307ZM481 -598Q565 -503 565 -390Q565 -379 563 -363Q470 -321 470 -221Q470 -158 516 -116T624 -74Q697 -74 751 -131T805 -287Q805 -419 715 -527T481 -654V-598Z"  />
<glyph unicode="&#x219;" horiz-adv-x="874" d="M772 893V682Q602 786 457 786Q350 786 350 713Q350 694 372 676T545 598T757 460T819 289Q819 142 719 62T434 -18Q244 -18 96 51V260Q278 180 401 180Q545 180 545 250Q545 277 519 301T340 384T132 514T76 672Q76 801 183 882T467 963Q636 963 772 893ZM311 -598Q395 -503 395 -390Q395 -379 393 -363Q300 -321 300 -221Q300 -158 346 -116T454 -74Q527 -74 581 -131T635 -287Q635 -419 545 -527T311 -654V-598Z"  />
<glyph unicode="&#x21A;" horiz-adv-x="1473" d="M1417 1397V1141H911V0H563V1141H57V1397H1417ZM581 -598Q665 -503 665 -390Q665 -379 663 -363Q570 -321 570 -221Q570 -158 616 -116T724 -74Q797 -74 851 -131T905 -287Q905 -419 815 -527T581 -654V-598Z"  />
<glyph unicode="&#x21B;" horiz-adv-x="831" d="M801 944V741H457V352Q457 282 495 242T602 201Q694 201 801 256V41Q659 -18 526 -18Q352 -18 256 72T160 336V741H25V799L420 1241H457V944H801ZM283 -598Q367 -503 367 -390Q367 -379 365 -363Q272 -321 272 -221Q272 -158 318 -116T426 -74Q499 -74 553 -131T607 -287Q607 -419 517 -527T283 -654V-598Z"  />
<glyph unicode="&#x2C6;" horiz-adv-x="682" d="M481 1428L684 1069H502L342 1248L178 1069H-2L201 1428H481Z"  />
<glyph unicode="&#x2C7;" horiz-adv-x="682" d="M201 1069L-2 1428H180L340 1250L504 1428H684L481 1069H201Z"  />
<glyph unicode="&#x2C9;" horiz-adv-x="682" d="M737 1317V1118H-55V1317H737Z"  />
<glyph unicode="&#x2D8;" horiz-adv-x="682" d="M512 1477H715Q700 1339 595 1233T346 1126Q203 1126 103 1217T-33 1477H172Q214 1350 340 1350Q476 1350 512 1477Z"  />
<glyph unicode="&#x2D9;" horiz-adv-x="682" d="M342 1411Q411 1411 458 1364T506 1248Q506 1179 459 1131T342 1083Q274 1083 227 1131T179 1248Q179 1316 226 1363T342 1411Z"  />
<glyph unicode="&#x2DA;" horiz-adv-x="682" d="M133 1249Q133 1335 194 1395T342 1456Q428 1456 488 1396T549 1249Q549 1163 488 1102T342 1040Q256 1040 195 1102T133 1249ZM455 1249Q455 1295 422 1327T342 1360Q296 1360 264 1328T231 1249Q231 1203 263 1170T342 1137Q388 1137 421 1170T455 1249Z"  />
<glyph unicode="&#x2DB;" horiz-adv-x="682" d="M520 -190V-354Q446 -385 362 -385Q266 -385 210 -323T154 -154Q154 -57 205 18H367Q334 -57 334 -96Q334 -145 365 -177T442 -209Q465 -209 520 -190Z"  />
<glyph unicode="&#x2DC;" horiz-adv-x="682" d="M600 1374H739Q718 1065 500 1065Q437 1065 323 1120T170 1176Q92 1176 78 1069H-57Q-46 1216 19 1295T186 1374Q252 1374 360 1319T510 1264Q582 1264 600 1374Z"  />
<glyph unicode="&#x2DD;" horiz-adv-x="682" d="M774 1384L506 1085H360L467 1384H774ZM393 1384L125 1085H-20L86 1384H393Z"  />
<glyph unicode="&#x326;" horiz-adv-x="683" d="M181 -598Q265 -503 265 -390Q265 -379 263 -363Q170 -321 170 -221Q170 -158 216 -116T324 -74Q397 -74 451 -131T505 -287Q505 -419 415 -527T181 -654V-598Z"  />
<glyph unicode="&#x37E;" horiz-adv-x="555" d="M98 766Q98 839 150 891T276 944Q350 944 402 892T455 766Q455 693 403 641T276 588Q203 588 151 640T98 766ZM102 -346V-283Q197 -192 197 -52Q197 -35 195 -18Q90 22 90 131Q90 201 138 247T258 293Q348 293 405 228T463 59Q463 -89 362 -208T102 -346Z"  />
<glyph unicode="&#x394;" horiz-adv-x="1599" d="M1593 0H6L596 1396H1001L1593 0ZM1101 297L787 1102L455 297H1101Z"  />
<glyph unicode="&#x3A9;" horiz-adv-x="1573" d="M462 206Q346 255 277 318Q176 408 127 534T77 811Q77 1121 268 1312T777 1503Q1010 1503 1166 1424T1416 1180T1510 813Q1510 611 1417 453T1128 208L1458 231H1530V0H888V243Q985 290 1041 348Q1117 428 1155 542T1194 784Q1194 1031 1080 1157T787 1284Q617 1284 503 1155T388 789Q388 653 431 536T556 338Q608 286 700 243V0H55V230H153L462 206Z"  />
<glyph unicode="&#x3BC;" horiz-adv-x="1224" d="M1177 26Q1088 -18 991 -18Q898 -18 860 55Q776 -18 673 -18Q517 -18 428 131V-471H131V944H428V336Q539 200 639 200Q683 200 722 236T771 314T780 448V944H1077V299Q1077 209 1134 209Q1147 209 1177 219V26Z"  />
<glyph unicode="&#x3C0;" horiz-adv-x="1472" d="M1422 717H1194V0H897V717H575V0H278V717Q249 719 242 719Q173 719 50 678V903Q129 946 299 946H1422V717Z"  />
<glyph unicode="&#x2013;" horiz-adv-x="1024" d="M1036 608V338H-12V608H1036Z"  />
<glyph unicode="&#x2014;" horiz-adv-x="2048" d="M2060 608V338H-12V608H2060Z"  />
<glyph unicode="&#x2018;" horiz-adv-x="555" d="M453 1415V1352Q358 1261 358 1121Q358 1104 360 1087Q465 1047 465 938Q465 868 417 822T297 776Q207 776 150 841T92 1010Q92 1158 193 1277T453 1415Z"  />
<glyph unicode="&#x2019;" horiz-adv-x="555" d="M102 776V840Q197 930 197 1070Q197 1088 195 1104Q90 1144 90 1253Q90 1323 138 1369T258 1415Q348 1415 405 1350T463 1182Q463 1033 362 914T102 776Z"  />
<glyph unicode="&#x201A;" horiz-adv-x="555" d="M102 -346V-283Q197 -192 197 -52Q197 -35 195 -18Q90 22 90 131Q90 201 138 247T258 293Q348 293 405 228T463 59Q463 -89 362 -208T102 -346Z"  />
<glyph unicode="&#x201C;" horiz-adv-x="1153" d="M1047 1415V1352Q952 1261 952 1121Q952 1104 954 1087Q1059 1047 1059 938Q1059 868 1011 822T891 776Q801 776 744 841T686 1010Q686 1158 787 1277T1047 1415ZM477 1415V1352Q383 1261 383 1121Q383 1104 385 1087Q489 1047 489 938Q489 868 442 822T322 776Q232 776 175 841T117 1010Q117 1158 218 1277T477 1415Z"  />
<glyph unicode="&#x201D;" horiz-adv-x="1153" d="M676 776V840Q770 930 770 1070Q770 1088 768 1104Q664 1144 664 1253Q664 1323 711 1369T831 1415Q921 1415 978 1350T1036 1182Q1036 1033 935 914T676 776ZM106 776V840Q201 930 201 1070Q201 1088 199 1104Q94 1144 94 1253Q94 1323 142 1369T262 1415Q352 1415 409 1350T467 1182Q467 1033 366 914T106 776Z"  />
<glyph unicode="&#x201E;" horiz-adv-x="1153" d="M688 -346V-283Q782 -192 782 -52Q782 -35 780 -18Q676 22 676 131Q676 201 723 247T844 293Q934 293 991 228T1049 59Q1049 -89 947 -208T688 -346ZM117 -346V-283Q211 -192 211 -52Q211 -35 209 -18Q104 22 104 131Q104 201 152 247T272 293Q362 293 419 228T477 59Q477 -89 376 -208T117 -346Z"  />
<glyph unicode="&#x2020;" horiz-adv-x="1044" d="M463 780L106 702Q97 700 90 700Q51 700 51 780V907Q51 989 91 989Q97 989 106 987L463 907L389 1358Q384 1396 402 1405T463 1415H584Q629 1415 645 1405T655 1360L584 907L938 987Q995 1000 995 907V780Q995 690 940 702L584 780L694 -424Q700 -471 629 -471H416Q345 -471 350 -418L463 780Z"  />
<glyph unicode="&#x2021;" horiz-adv-x="1044" d="M911 145Q925 149 936 149Q993 149 993 18Q993 -121 952 -121Q946 -121 928 -117L573 -37L657 -389Q661 -404 661 -415Q661 -471 522 -471Q384 -471 384 -415Q384 -404 387 -389L469 -37L117 -117Q103 -120 94 -120Q70 -120 61 -91T51 25Q51 149 107 149Q119 149 133 145L469 66L387 473L469 879L133 799Q116 794 105 794Q51 794 51 930Q51 1076 100 1065L469 981L387 1333Q384 1348 384 1359Q384 1415 522 1415Q662 1415 662 1359Q662 1349 659 1339L573 981L928 1061Q943 1064 951 1064Q993 1064 993 922Q993 795 937 795Q926 795 911 799L573 879L657 473L573 66L911 145Z"  />
<glyph unicode="&#x2022;" horiz-adv-x="725" d="M66 698Q66 821 152 907T360 993Q483 993 569 907T655 698Q655 576 569 490T360 403Q238 403 152 489T66 698Z"  />
<glyph unicode="&#x2026;" horiz-adv-x="2048" d="M1528 160Q1528 233 1580 285T1706 338Q1779 338 1831 286T1884 160Q1884 86 1832 34T1706 -18Q1633 -18 1581 34T1528 160ZM846 160Q846 233 898 285T1024 338Q1097 338 1149 286T1202 160Q1202 86 1150 34T1024 -18Q951 -18 899 34T846 160ZM164 160Q164 233 216 285T342 338Q415 338 467 286T520 160Q520 86 468 34T342 -18Q269 -18 217 34T164 160Z"  />
<glyph unicode="&#x2030;" horiz-adv-x="2218" d="M375 1415Q511 1415 608 1319T705 1085Q705 950 608 853T375 756Q239 756 142 853T45 1085Q45 1223 141 1319T375 1415ZM375 932Q436 932 478 976T520 1085Q520 1148 477 1193T375 1239Q313 1239 271 1195T229 1085Q229 1024 272 978T375 932ZM1303 1415L326 -16H156L1139 1415H1303ZM1843 641Q1980 641 2076 545T2173 311Q2173 176 2076 79T1843 -18Q1708 -18 1611 79T1513 311Q1513 448 1610 544T1843 641ZM1843 158Q1904 158 1946 202T1989 311Q1989 374 1946 419T1843 465Q1782 465 1740 421T1698 311Q1698 250 1741 204T1843 158ZM1087 641Q1224 641 1320 545T1417 311Q1417 176 1320 79T1087 -18Q952 -18 855 79T758 311Q758 448 854 544T1087 641ZM1087 158Q1148 158 1190 202T1233 311Q1233 374 1190 419T1087 465Q1026 465 984 421T942 311Q942 250 985 204T1087 158Z"  />
<glyph unicode="&#x2039;" horiz-adv-x="662" d="M315 469L641 14H348L18 469L348 924H641L315 469Z"  />
<glyph unicode="&#x203A;" horiz-adv-x="662" d="M346 469L20 924H313L643 469L313 14H20L346 469Z"  />
<glyph unicode="&#x2044;" horiz-adv-x="448" d="M810 1416L-170 -55H-362L618 1416H810Z"  />
<glyph unicode="&#x20AC;" horiz-adv-x="1284" d="M530 934H1077L1044 766H492Q489 735 489 704Q489 674 492 635H1028L995 467H524Q571 352 637 298T815 244Q887 244 959 266T1141 340V72Q942 -18 770 -18Q551 -18 406 108T205 467H33L66 635H182Q182 735 184 766H33L66 934H211Q273 1162 431 1288T825 1415Q970 1415 1165 1372L1122 1112Q964 1153 846 1153Q610 1153 530 934Z"  />
<glyph unicode="&#x2113;" horiz-adv-x="661" d="M4 411L145 602V993Q145 1180 172 1256T261 1374T415 1416Q529 1416 592 1356T656 1209Q656 1148 622 1038T459 734L387 626V298Q387 218 396 193T431 167Q474 167 625 249V48Q496 -26 381 -26Q254 -26 200 39T145 260V297L126 274L4 411ZM387 964Q470 1129 470 1199Q470 1242 429 1242Q404 1242 396 1221T387 1129V964Z"  />
<glyph unicode="&#x2122;" horiz-adv-x="2048" d="M469 577V1253H217V1396H881V1253H635V577H469ZM979 577V1396H1239L1391 831L1538 1396H1798V577H1640V1230L1462 577H1313L1137 1230V577H979Z"  />
<glyph unicode="&#x2126;" horiz-adv-x="1573" d="M462 206Q346 255 277 318Q176 408 127 534T77 811Q77 1121 268 1312T777 1503Q1010 1503 1166 1424T1416 1180T1510 813Q1510 611 1417 453T1128 208L1458 231H1530V0H888V243Q985 290 1041 348Q1117 428 1155 542T1194 784Q1194 1031 1080 1157T787 1284Q617 1284 503 1155T388 789Q388 653 431 536T556 338Q608 286 700 243V0H55V230H153L462 206Z"  />
<glyph unicode="&#x212E;" horiz-adv-x="1229" d="M321 531V160Q441 39 619 39Q873 39 1014 285L1086 242Q968 72 855 19T619 -34Q387 -34 239 124T90 531Q90 783 239 939T619 1096Q833 1096 985 954T1148 531H321ZM917 605V902Q793 1023 617 1023Q442 1023 321 901V605H917Z"  />
<glyph unicode="&#x2202;" horiz-adv-x="1012" d="M379 1123L242 1207Q294 1349 392 1420T612 1491Q757 1491 846 1391Q977 1246 977 943Q977 682 894 437T664 84T355 -25Q217 -25 131 67T44 329Q44 487 131 632T397 862T826 942Q825 1142 752 1238Q698 1309 607 1309Q538 1309 487 1270T379 1123ZM814 758Q785 759 770 759Q633 759 515 704T335 545T273 338Q273 260 315 213T414 165Q533 165 631 280Q772 445 814 758Z"  />
<glyph unicode="&#x2206;" horiz-adv-x="1253" d="M668 1409L1245 0H12L668 1409ZM594 1059L147 100H991L594 1059Z"  />
<glyph unicode="&#x220F;" horiz-adv-x="1686" d="M161 1491H1523V-431H1332V1317H354V-431H161V1491Z"  />
<glyph unicode="&#x2211;" horiz-adv-x="1460" d="M139 1491H1376V1327H388L995 552L346 -270H1386V-431H122V-244L742 544L139 1316V1491Z"  />
<glyph unicode="&#x2212;" horiz-adv-x="1196" d="M86 592V854H1110V592H86Z"  />
<glyph unicode="&#x2215;" horiz-adv-x="449" d="M809 1415L-170 -55H-362L618 1415H809Z"  />
<glyph unicode="&#x2219;" horiz-adv-x="555" d="M98 707Q98 780 150 832T276 885Q350 885 402 833T455 707Q455 633 403 581T276 528Q203 528 151 580T98 707Z"  />
<glyph unicode="&#x221A;" horiz-adv-x="1124" d="M1055 1868L748 -78L250 950L53 854L20 922L319 1069L723 244L983 1878L1055 1868Z"  />
<glyph unicode="&#x221E;" horiz-adv-x="1460" d="M681 843Q755 964 832 1017T1004 1071Q1136 1071 1223 978T1311 722Q1311 560 1224 467T1004 373Q910 373 833 426T681 601Q621 517 543 473T394 429Q293 429 223 507T152 722Q152 858 222 936T394 1014Q465 1014 543 970T681 843ZM774 724Q858 595 892 566Q945 521 1007 521Q1083 521 1124 580T1165 726Q1165 820 1120 872T1010 924Q959 924 908 888T774 724ZM595 726Q495 867 405 867Q359 867 326 830T292 727Q292 659 325 621T405 583Q444 583 475 604Q529 640 595 726Z"  />
<glyph unicode="&#x222B;" horiz-adv-x="561" d="M602 1760Q602 1721 573 1696T497 1671Q460 1671 437 1696T393 1721Q375 1721 366 1707T356 1663Q356 1629 375 1407T395 856Q395 351 365 147T286 -136Q260 -177 219 -198T133 -219Q84 -219 47 -184T10 -99Q10 -61 35 -34T100 -7Q134 -7 165 -40T210 -73Q235 -73 249 -29T264 125Q264 162 258 322T252 884Q252 1365 269 1522T310 1738Q339 1808 379 1842T463 1876Q520 1876 561 1844T602 1760Z"  />
<glyph unicode="&#x2248;" horiz-adv-x="1196" d="M33 740V1009Q210 1156 360 1156Q446 1156 617 1076Q789 996 862 996Q987 996 1161 1148V882Q1098 820 1007 777T838 734Q753 734 577 815Q401 896 344 896Q216 896 33 740ZM33 296V565Q210 712 360 712Q446 712 617 632Q789 552 862 552Q987 552 1161 704V438Q1098 376 1007 333T838 290Q753 290 577 371Q401 452 344 452Q216 452 33 296Z"  />
<glyph unicode="&#x2260;" horiz-adv-x="1124" d="M1106 279H485L301 -51L201 6L352 279H31V391H416L573 676H31V788H637L823 1124L924 1067L768 788H1106V676H707L547 391H1106V279Z"  />
<glyph unicode="&#x2264;" horiz-adv-x="1124" d="M1077 240L59 711V838L1077 1309V1182L190 774L1077 367V240ZM1077 0H59V112H1077V0Z"  />
<glyph unicode="&#x2265;" horiz-adv-x="1124" d="M1077 711L59 240V367L946 774L59 1182V1309L1077 838V711ZM1077 0H59V112H1077V0Z"  />
<glyph unicode="&#x25CA;" horiz-adv-x="1012" d="M962 763L565 0H443L46 763L443 1526H565L962 763ZM839 763L504 1415L169 763L504 111L839 763Z"  />
<glyph unicode="&#xF005;" horiz-adv-x="683" d="M235 -62Q538 -62 538 -209Q538 -279 479 -323T317 -367Q255 -367 162 -347V-243Q268 -243 293 -237T319 -206Q319 -161 235 -158V-62Z"  />
<glyph unicode="&#xFB01;" horiz-adv-x="1217" d="M719 1163Q676 1169 645 1169Q545 1169 504 1126T463 944H653V741H463V0H166V741H41V944H166Q166 1415 586 1415Q661 1415 719 1397V1163ZM780 1255Q780 1321 828 1368T942 1415Q1008 1415 1055 1368T1102 1255Q1102 1189 1055 1142T942 1094Q876 1094 828 1142T780 1255ZM1090 944V0H793V944H1090Z"  />
<glyph unicode="&#xFB02;" horiz-adv-x="1217" d="M653 944V741H463V0H166V741H43V944H166Q166 1415 586 1415Q661 1415 719 1397V1163Q676 1169 645 1169Q545 1169 504 1126T463 944H653ZM1090 1397V0H793V1397H1090Z"  />

</font>
</defs>
</svg>
