<?xml version="1.0" encoding="utf-8"?>
<!-- Generator: Adobe Illustrator 16.0.4, SVG Export Plug-In . SVG Version: 6.00 Build 0)  -->
<!DOCTYPE svg PUBLIC "-//W3C//DTD SVG 1.1//EN" "http://www.w3.org/Graphics/SVG/1.1/DTD/svg11.dtd">
<svg version="1.1" id="Layer_1" xmlns="http://www.w3.org/2000/svg" xmlns:xlink="http://www.w3.org/1999/xlink" x="0px" y="0px"
	 width="48px" height="48px" viewBox="0 0 48 48" enable-background="new 0 0 48 48" xml:space="preserve">
<g>
	<circle fill="#A6CE39" cx="24" cy="24.001" r="11.999"/>
	<g>
		<path fill="#FFFFFF" d="M20.094,29.457h-1.443V19.416h1.443v4.536V29.457z"/>
		<path fill="#FFFFFF" d="M22.208,19.416h3.902c3.71,0,5.344,2.65,5.344,5.021c0,2.577-2.017,5.021-5.329,5.021h-3.917V19.416z
			 M23.651,28.16h2.296c3.268,0,4.019-2.487,4.019-3.724c0-2.018-1.28-3.726-4.092-3.726h-2.223V28.16z"/>
		<path fill="#FFFFFF" d="M20.318,17.327c0,0.52-0.426,0.946-0.945,0.946c-0.521,0-0.946-0.427-0.946-0.946
			c0-0.521,0.426-0.947,0.946-0.947C19.893,16.379,20.318,16.806,20.318,17.327z"/>
	</g>
</g>
</svg>
